{
.appVersion = "895";
DisplayStrings = (
"/thal-ar/ringbelow-ar/dal-ar.fina/dalRing-ar.fina",
"/behDotless-ar.init/teh-ar.init/tehRing-ar.init",
"/behDotless-ar.medi/teh-ar.medi/tehRing-ar.medi",
"/tehRing-ar.medi",
"/ringcenter-ar",
"/behDotless-ar/teh-ar/tehRing-ar",
"/tcheh-ar.fina",
"/dal-ar.fina/reh-ar/zain-ar",
"/jeh-ar.fina",
"/dal-ar.fina",
"/thal-ar/dalVinvertedabove-ar.fina",
"/rehDotbelowdotabove-ar.isol",
"/dotcenter-ar/rehDotbelowdotabove-ar.fina",
"/one-ar"
);
classes = (
{
automatic = 1;

glyphs = (
{
glyphname = "hamza-ar";
lastChange = "2016-09-02 20:02:24 +0000";
layers = (
{
anchors = (
{
name = bottom;
position = "{521, -199}";
},
{
name = top;
position = "{521, 925}";
}
);
layerId = "93A312F7-B931-4485-B08E-C367313EB5E7";
paths = (
{
closed = 1;
nodes = (
"436 81 OFFCURVE",
"631 195 OFFCURVE",
"857 315 CURVE SMOOTH",
"866 320 OFFCURVE",
"871 327 OFFCURVE",
"869 336 CURVE SMOOTH",
"861 466 LINE SMOOTH",
"860 478 OFFCURVE",
"852 484 OFFCURVE",
"841 477 CURVE SMOOTH",
"494 271 LINE SMOOTH",
"486 267 OFFCURVE",
"477 267 OFFCURVE",
"470 274 CURVE SMOOTH",
"271 457 LINE SMOOTH",
"263 465 OFFCURVE",
"262 473 OFFCURVE",
"269 481 CURVE SMOOTH",
"370 599 OFFCURVE",
"507 619 OFFCURVE",
"652 614 CURVE SMOOTH",
"664 613 OFFCURVE",
"670 620 OFFCURVE",
"669 630 CURVE SMOOTH",
"658 719 LINE SMOOTH",
"657 728 OFFCURVE",
"653 735 OFFCURVE",
"643 738 CURVE SMOOTH",
"421 802 OFFCURVE",
"173 667 OFFCURVE",
"173 447 CURVE SMOOTH",
"173 351 OFFCURVE",
"275 248 OFFCURVE",
"346 195 CURVE SMOOTH",
"357 187 OFFCURVE",
"355 178 OFFCURVE",
"345 171 CURVE SMOOTH",
"224 98 LINE SMOOTH",
"216 93 OFFCURVE",
"213 87 OFFCURVE",
"213 77 CURVE SMOOTH",
"212 -26 LINE SMOOTH",
"212 -40 OFFCURVE",
"221 -46 OFFCURVE",
"232 -39 CURVE SMOOTH"
);
}
);
width = 1007;
},
{
anchors = (
{
name = bottom;
position = "{516, -220}";
},
{
name = top;
position = "{516, 946}";
}
);
layerId = "00FED3EE-B3F5-49E6-B91A-35FC52169726";
paths = (
{
closed = 1;
nodes = (
"844 310 LINE",
"853 316 OFFCURVE",
"860 324 OFFCURVE",
"860 331 CURVE",
"852 465 LINE",
"852 481 OFFCURVE",
"840 494 OFFCURVE",
"819 482 CURVE SMOOTH",
"487 285 LINE SMOOTH",
"482 282 OFFCURVE",
"477 283 OFFCURVE",
"474 286 CURVE SMOOTH",
"283 462 LINE SMOOTH",
"278 467 OFFCURVE",
"278 468 OFFCURVE",
"282 471 CURVE SMOOTH",
"388 551 OFFCURVE",
"481 597 OFFCURVE",
"605 597 CURVE SMOOTH",
"641 597 OFFCURVE",
"672 594 OFFCURVE",
"668 622 CURVE SMOOTH",
"658 708 LINE SMOOTH",
"656 721 OFFCURVE",
"649 731 OFFCURVE",
"636 734 CURVE SMOOTH",
"599 746 OFFCURVE",
"561 750 OFFCURVE",
"524 750 CURVE SMOOTH",
"337 750 OFFCURVE",
"173 620 OFFCURVE",
"173 445 CURVE SMOOTH",
"173 349 OFFCURVE",
"275 247 OFFCURVE",
"343 196 CURVE SMOOTH",
"347 193 OFFCURVE",
"348 191 OFFCURVE",
"342 188 CURVE SMOOTH",
"227 119 LINE SMOOTH",
"216 112 OFFCURVE",
"211 103 OFFCURVE",
"211 90 CURVE SMOOTH",
"210 -9 LINE SMOOTH",
"210 -30 OFFCURVE",
"228 -38 OFFCURVE",
"244 -29 CURVE"
);
}
);
width = 995;
},
{
anchors = (
{
name = bottom;
position = "{516, -220}";
},
{
name = top;
position = "{516, 946}";
}
);
layerId = "E3174D42-D779-465D-8194-70AED922C337";
paths = (
{
closed = 1;
nodes = (
"844 310 LINE",
"853 316 OFFCURVE",
"860 324 OFFCURVE",
"860 331 CURVE",
"852 465 LINE",
"852 481 OFFCURVE",
"840 494 OFFCURVE",
"819 482 CURVE SMOOTH",
"487 285 LINE SMOOTH",
"482 282 OFFCURVE",
"477 283 OFFCURVE",
"474 286 CURVE SMOOTH",
"283 462 LINE SMOOTH",
"278 467 OFFCURVE",
"278 468 OFFCURVE",
"282 471 CURVE SMOOTH",
"388 551 OFFCURVE",
"481 597 OFFCURVE",
"605 597 CURVE SMOOTH",
"641 597 OFFCURVE",
"672 594 OFFCURVE",
"668 622 CURVE SMOOTH",
"658 708 LINE SMOOTH",
"656 721 OFFCURVE",
"649 731 OFFCURVE",
"636 734 CURVE SMOOTH",
"599 746 OFFCURVE",
"561 750 OFFCURVE",
"524 750 CURVE SMOOTH",
"337 750 OFFCURVE",
"173 620 OFFCURVE",
"173 445 CURVE SMOOTH",
"173 349 OFFCURVE",
"275 247 OFFCURVE",
"343 196 CURVE SMOOTH",
"347 193 OFFCURVE",
"348 191 OFFCURVE",
"342 188 CURVE SMOOTH",
"227 119 LINE SMOOTH",
"216 112 OFFCURVE",
"211 103 OFFCURVE",
"211 90 CURVE SMOOTH",
"210 -9 LINE SMOOTH",
"210 -30 OFFCURVE",
"228 -38 OFFCURVE",
"244 -29 CURVE"
);
}
);
width = 995;
},
{
anchors = (
{
name = bottom;
position = "{564, -180}";
},
{
name = top;
position = "{513, 960}";
}
);
layerId = "AB6A8399-B57F-40CA-845C-76C4C0121470";
paths = (
{
closed = 1;
nodes = (
"263 -22 LINE",
"834 301 LINE",
"809 472 LINE",
"494 285 LINE SMOOTH",
"489 282 OFFCURVE",
"484 283 OFFCURVE",
"481 286 CURVE SMOOTH",
"290 462 LINE SMOOTH",
"285 467 OFFCURVE",
"285 468 OFFCURVE",
"289 471 CURVE SMOOTH",
"395 551 OFFCURVE",
"488 597 OFFCURVE",
"612 597 CURVE SMOOTH",
"621 597 OFFCURVE",
"629 597 OFFCURVE",
"637 597 CURVE",
"607 743 LINE",
"581 748 OFFCURVE",
"556 750 OFFCURVE",
"531 750 CURVE SMOOTH",
"344 750 OFFCURVE",
"180 620 OFFCURVE",
"180 445 CURVE SMOOTH",
"180 349 OFFCURVE",
"282 247 OFFCURVE",
"350 196 CURVE SMOOTH",
"354 193 OFFCURVE",
"355 191 OFFCURVE",
"349 188 CURVE SMOOTH",
"244 125 LINE"
);
}
);
width = 974;
},
{
anchors = (
{
name = bottom;
position = "{589, -180}";
},
{
name = top;
position = "{538, 960}";
}
);
layerId = "EAE1A523-EADE-4FB1-A034-E66E80F3AE4F";
paths = (
{
closed = 1;
nodes = (
"515 311 LINE",
"348 465 LINE",
"455 542 OFFCURVE",
"537 572 OFFCURVE",
"637 572 CURVE SMOOTH",
"662 572 LINE",
"686 602 LINE",
"653 764 LINE",
"621 772 OFFCURVE",
"590 775 OFFCURVE",
"556 775 CURVE SMOOTH",
"349 775 OFFCURVE",
"180 628 OFFCURVE",
"180 445 CURVE SMOOTH",
"180 368 OFFCURVE",
"240 273 OFFCURVE",
"336 194 CURVE",
"242 138 LINE",
"268 -62 LINE",
"886 288 LINE",
"853 513 LINE"
);
}
);
width = 1026;
}
);
leftKerningGroup = all;
unicode = 0621;
},
{
glyphname = "alef-ar";
lastChange = "2016-09-06 18:29:10 +0000";
layers = (
{
anchors = (
{
name = bottom;
position = "{293, -207}";
},
{
name = top;
position = "{259, 1707}";
}
);
layerId = "93A312F7-B931-4485-B08E-C367313EB5E7";
paths = (
{
closed = 1;
nodes = (
"344 -3 LINE SMOOTH",
"350 -1 OFFCURVE",
"354 3 OFFCURVE",
"354 12 CURVE SMOOTH",
"346 1519 LINE SMOOTH",
"346 1538 OFFCURVE",
"330 1546 OFFCURVE",
"315 1538 CURVE SMOOTH",
"181 1465 LINE SMOOTH",
"176 1463 OFFCURVE",
"173 1458 OFFCURVE",
"173 1451 CURVE SMOOTH",
"232 -15 LINE SMOOTH",
"232 -29 OFFCURVE",
"246 -38 OFFCURVE",
"259 -33 CURVE SMOOTH"
);
}
);
width = 492;
},
{
anchors = (
{
name = bottom;
position = "{298, -228}";
},
{
name = top;
position = "{275, 1707}";
}
);
layerId = "00FED3EE-B3F5-49E6-B91A-35FC52169726";
paths = (
{
closed = 1;
nodes = (
"349 -2 LINE SMOOTH",
"360 1 OFFCURVE",
"366 10 OFFCURVE",
"366 21 CURVE SMOOTH",
"358 1468 LINE SMOOTH",
"358 1493 OFFCURVE",
"336 1505 OFFCURVE",
"314 1495 CURVE SMOOTH",
"182 1423 LINE SMOOTH",
"176 1419 OFFCURVE",
"173 1411 OFFCURVE",
"173 1403 CURVE SMOOTH",
"229 -5 LINE SMOOTH",
"230 -22 OFFCURVE",
"244 -37 OFFCURVE",
"269 -31 CURVE SMOOTH"
);
}
);
width = 501;
},
{
anchors = (
{
name = bottom;
position = "{298, -228}";
},
{
name = top;
position = "{275, 1707}";
}
);
layerId = "E3174D42-D779-465D-8194-70AED922C337";
paths = (
{
closed = 1;
nodes = (
"349 -2 LINE SMOOTH",
"360 1 OFFCURVE",
"366 10 OFFCURVE",
"366 21 CURVE SMOOTH",
"358 1468 LINE SMOOTH",
"358 1493 OFFCURVE",
"336 1505 OFFCURVE",
"314 1495 CURVE SMOOTH",
"182 1423 LINE SMOOTH",
"176 1419 OFFCURVE",
"173 1411 OFFCURVE",
"173 1403 CURVE SMOOTH",
"229 -5 LINE SMOOTH",
"230 -22 OFFCURVE",
"244 -37 OFFCURVE",
"269 -31 CURVE SMOOTH"
);
}
);
width = 501;
},
{
anchors = (
{
name = bottom;
position = "{325, -229}";
},
{
name = top;
position = "{302, 1656}";
}
);
layerId = "AB6A8399-B57F-40CA-845C-76C4C0121470";
paths = (
{
closed = 1;
nodes = (
"413 0 LINE",
"405 1447 LINE",
"180 1381 LINE",
"236 -27 LINE"
);
}
);
width = 553;
},
{
anchors = (
{
name = bottom;
position = "{351, -249}";
},
{
name = top;
position = "{348, 1716}";
}
);
layerId = "EAE1A523-EADE-4FB1-A034-E66E80F3AE4F";
paths = (
{
closed = 1;
nodes = (
"464 0 LINE",
"456 1501 LINE",
"180 1420 LINE",
"238 -35 LINE"
);
}
);
width = 604;
}
);
leftKerningGroup = a;
unicode = 0627;
},
{
glyphname = "alef-ar.fina";
lastChange = "2016-09-06 18:29:26 +0000";
layers = (
{
anchors = (
{
name = bottom;
position = "{486, -173}";
},
{
name = top;
position = "{253, 1702}";
}
);
layerId = "93A312F7-B931-4485-B08E-C367313EB5E7";
paths = (
{
closed = 1;
nodes = (
"685 0 LINE",
"733 60 OFFCURVE",
"733 119 OFFCURVE",
"685 179 CURVE",
"599 179 LINE SMOOTH",
"545 179 OFFCURVE",
"436 200 OFFCURVE",
"366 243 CURVE SMOOTH",
"358 247 OFFCURVE",
"354 253 OFFCURVE",
"354 263 CURVE SMOOTH",
"335 1520 LINE SMOOTH",
"335 1534 OFFCURVE",
"327 1540 OFFCURVE",
"314 1532 CURVE SMOOTH",
"183 1449 LINE SMOOTH",
"175 1443 OFFCURVE",
"173 1439 OFFCURVE",
"173 1428 CURVE SMOOTH",
"225 393 LINE SMOOTH",
"239 123 OFFCURVE",
"307 0 OFFCURVE",
"551 0 CURVE SMOOTH"
);
}
);
width = 666;
},
{
anchors = (
{
name = bottom;
position = "{483, -195}";
},
{
name = top;
position = "{259, 1682}";
}
);
layerId = "00FED3EE-B3F5-49E6-B91A-35FC52169726";
paths = (
{
closed = 1;
nodes = (
"675 0 LINE",
"702 32 OFFCURVE",
"714 63 OFFCURVE",
"714 96 CURVE SMOOTH",
"714 128 OFFCURVE",
"702 159 OFFCURVE",
"675 191 CURVE",
"591 191 LINE SMOOTH",
"540 191 OFFCURVE",
"439 210 OFFCURVE",
"372 252 CURVE SMOOTH",
"368 254 OFFCURVE",
"366 255 OFFCURVE",
"366 262 CURVE SMOOTH",
"348 1473 LINE SMOOTH",
"348 1491 OFFCURVE",
"336 1506 OFFCURVE",
"313 1493 CURVE SMOOTH",
"187 1422 LINE SMOOTH",
"177 1416 OFFCURVE",
"173 1409 OFFCURVE",
"173 1398 CURVE",
"223 386 LINE",
"237 102 OFFCURVE",
"321 0 OFFCURVE",
"545 0 CURVE SMOOTH"
);
}
);
width = 656;
},
{
anchors = (
{
name = bottom;
position = "{483, -195}";
},
{
name = top;
position = "{259, 1682}";
}
);
layerId = "E3174D42-D779-465D-8194-70AED922C337";
paths = (
{
closed = 1;
nodes = (
"591 191 LINE SMOOTH",
"540 191 OFFCURVE",
"439 210 OFFCURVE",
"372 252 CURVE",
"368 254 OFFCURVE",
"366 255 OFFCURVE",
"366 262 CURVE",
"348 1473 LINE",
"348 1491 OFFCURVE",
"336 1506 OFFCURVE",
"313 1493 CURVE SMOOTH",
"187 1422 LINE SMOOTH",
"177 1416 OFFCURVE",
"173 1409 OFFCURVE",
"173 1398 CURVE",
"223 386 LINE SMOOTH",
"237 102 OFFCURVE",
"321 0 OFFCURVE",
"545 0 CURVE SMOOTH",
"666 0 LINE",
"693 32 OFFCURVE",
"705 64 OFFCURVE",
"705 96 CURVE SMOOTH",
"705 128 OFFCURVE",
"693 159 OFFCURVE",
"666 191 CURVE"
);
}
);
width = 656;
},
{
anchors = (
{
name = bottom;
position = "{572, -210}";
},
{
name = top;
position = "{296, 1698}";
}
);
layerId = "AB6A8399-B57F-40CA-845C-76C4C0121470";
paths = (
{
closed = 1;
nodes = (
"230 401 LINE SMOOTH",
"243 148 OFFCURVE",
"336 0 OFFCURVE",
"572 0 CURVE SMOOTH",
"703 0 LINE",
"738 35 OFFCURVE",
"753 72 OFFCURVE",
"753 112 CURVE SMOOTH",
"753 152 OFFCURVE",
"738 188 OFFCURVE",
"703 223 CURVE",
"618 223 LINE SMOOTH",
"570 223 OFFCURVE",
"478 240 OFFCURVE",
"413 279 CURVE",
"395 1489 LINE",
"180 1413 LINE"
);
}
);
width = 683;
},
{
anchors = (
{
name = bottom;
position = "{598, -220}";
},
{
name = top;
position = "{342, 1758}";
}
);
layerId = "EAE1A523-EADE-4FB1-A034-E66E80F3AE4F";
paths = (
{
closed = 1;
nodes = (
"231 425 LINE SMOOTH",
"245 138 OFFCURVE",
"364 0 OFFCURVE",
"598 0 CURVE SMOOTH",
"739 0 LINE",
"782 39 OFFCURVE",
"804 86 OFFCURVE",
"804 137 CURVE SMOOTH",
"804 188 OFFCURVE",
"782 233 OFFCURVE",
"739 273 CURVE",
"644 273 LINE SMOOTH",
"590 273 OFFCURVE",
"514 292 OFFCURVE",
"464 319 CURVE",
"445 1549 LINE",
"180 1455 LINE"
);
}
);
width = 709;
}
);
unicode = FE8E;
},
{
glyphname = "alef-ar.short";
lastChange = "2016-09-06 18:36:14 +0000";
layers = (
{
anchors = (
{
name = bottom;
position = "{293, -206}";
},
{
name = top;
position = "{259, 1533}";
}
);
layerId = "93A312F7-B931-4485-B08E-C367313EB5E7";
paths = (
{
closed = 1;
nodes = (
"344 -3 LINE SMOOTH",
"350 -1 OFFCURVE",
"354 3 OFFCURVE",
"354 12 CURVE SMOOTH",
"346 1347 LINE SMOOTH",
"346 1365 OFFCURVE",
"330 1373 OFFCURVE",
"315 1365 CURVE SMOOTH",
"181 1293 LINE SMOOTH",
"176 1290 OFFCURVE",
"173 1286 OFFCURVE",
"173 1279 CURVE SMOOTH",
"232 -15 LINE SMOOTH",
"233 -29 OFFCURVE",
"246 -38 OFFCURVE",
"259 -33 CURVE SMOOTH"
);
}
);
width = 492;
},
{
anchors = (
{
name = bottom;
position = "{303, -226}";
},
{
name = top;
position = "{269, 1533}";
}
);
components = (
{
name = "alef-ar";
transform = "{1, 0, 0, 0.893, 0, 0}";
}
);
layerId = "00FED3EE-B3F5-49E6-B91A-35FC52169726";
width = 501;
},
{
anchors = (
{
name = bottom;
position = "{303, -226}";
},
{
name = top;
position = "{269, 1533}";
}
);
components = (
{
name = "alef-ar";
transform = "{1, 0, 0, 0.893, 0, 0}";
}
);
layerId = "E3174D42-D779-465D-8194-70AED922C337";
width = 501;
},
{
anchors = (
{
name = bottom;
position = "{323, -226}";
},
{
name = top;
position = "{299, 1496}";
}
);
components = (
{
name = "alef-ar";
transform = "{1, 0, 0, 0.893, 0, 0}";
}
);
layerId = "AB6A8399-B57F-40CA-845C-76C4C0121470";
width = 553;
},
{
anchors = (
{
name = bottom;
position = "{343, -226}";
},
{
name = top;
position = "{329, 1536}";
}
);
components = (
{
name = "alef-ar";
transform = "{1, 0, 0, 0.893, 0, 0}";
}
);
layerId = "EAE1A523-EADE-4FB1-A034-E66E80F3AE4F";
width = 604;
}
);
leftKerningGroup = a;
userData = {
com.typemytype.robofont.guides = (
{
angle = 0;
isGlobal = 0;
x = 293;
y = 1187;
}
);
};
},
{
glyphname = "alef-ar.fina.short";
lastChange = "2016-09-06 18:35:40 +0000";
layers = (
{
anchors = (
{
name = bottom;
position = "{469, -173}";
},
{
name = top;
position = "{339, 1523}";
}
);
layerId = "93A312F7-B931-4485-B08E-C367313EB5E7";
paths = (
{
closed = 1;
nodes = (
"686 0 LINE",
"734 60 OFFCURVE",
"734 119 OFFCURVE",
"686 179 CURVE",
"599 179 LINE SMOOTH",
"545 179 OFFCURVE",
"436 200 OFFCURVE",
"366 243 CURVE SMOOTH",
"358 247 OFFCURVE",
"354 253 OFFCURVE",
"354 263 CURVE SMOOTH",
"335 1336 LINE SMOOTH",
"335 1350 OFFCURVE",
"327 1356 OFFCURVE",
"314 1348 CURVE SMOOTH",
"183 1265 LINE SMOOTH",
"175 1259 OFFCURVE",
"172 1255 OFFCURVE",
"173 1244 CURVE SMOOTH",
"225 393 LINE SMOOTH",
"243 123 OFFCURVE",
"307 0 OFFCURVE",
"551 0 CURVE SMOOTH"
);
}
);
width = 666;
},
{
anchors = (
{
name = bottom;
position = "{487, -205}";
},
{
name = top;
position = "{275, 1502}";
}
);
layerId = "00FED3EE-B3F5-49E6-B91A-35FC52169726";
paths = (
{
closed = 1;
nodes = (
"675 0 LINE",
"702 32 OFFCURVE",
"714 63 OFFCURVE",
"714 96 CURVE SMOOTH",
"714 128 OFFCURVE",
"702 159 OFFCURVE",
"675 191 CURVE",
"591 191 LINE SMOOTH",
"540 191 OFFCURVE",
"439 210 OFFCURVE",
"372 252 CURVE SMOOTH",
"368 254 OFFCURVE",
"366 255 OFFCURVE",
"366 262 CURVE SMOOTH",
"348 1271 LINE SMOOTH",
"348 1289 OFFCURVE",
"332 1304 OFFCURVE",
"313 1291 CURVE SMOOTH",
"187 1211 LINE SMOOTH",
"177 1205 OFFCURVE",
"173 1198 OFFCURVE",
"173 1187 CURVE",
"223 386 LINE",
"241 102 OFFCURVE",
"321 0 OFFCURVE",
"545 0 CURVE SMOOTH"
);
}
);
width = 656;
},
{
anchors = (
{
name = bottom;
position = "{487, -205}";
},
{
name = top;
position = "{275, 1502}";
}
);
layerId = "E3174D42-D779-465D-8194-70AED922C337";
paths = (
{
closed = 1;
nodes = (
"591 191 LINE SMOOTH",
"540 191 OFFCURVE",
"439 210 OFFCURVE",
"372 252 CURVE",
"368 254 OFFCURVE",
"366 255 OFFCURVE",
"366 262 CURVE",
"348 1271 LINE",
"348 1289 OFFCURVE",
"332 1304 OFFCURVE",
"313 1291 CURVE SMOOTH",
"187 1211 LINE SMOOTH",
"177 1205 OFFCURVE",
"173 1198 OFFCURVE",
"173 1187 CURVE",
"223 386 LINE SMOOTH",
"241 102 OFFCURVE",
"321 0 OFFCURVE",
"545 0 CURVE SMOOTH",
"666 0 LINE",
"693 32 OFFCURVE",
"705 64 OFFCURVE",
"705 96 CURVE SMOOTH",
"705 128 OFFCURVE",
"693 159 OFFCURVE",
"666 191 CURVE"
);
}
);
width = 656;
},
{
anchors = (
{
name = bottom;
position = "{573, -210}";
},
{
name = top;
position = "{302, 1492}";
}
);
layerId = "AB6A8399-B57F-40CA-845C-76C4C0121470";
paths = (
{
closed = 1;
nodes = (
"618 223 LINE SMOOTH",
"570 223 OFFCURVE",
"478 240 OFFCURVE",
"413 279 CURVE",
"395 1287 LINE",
"180 1202 LINE",
"230 401 LINE SMOOTH",
"248 106 OFFCURVE",
"338 0 OFFCURVE",
"572 0 CURVE SMOOTH",
"722 0 LINE",
"757 35 OFFCURVE",
"772 72 OFFCURVE",
"772 112 CURVE SMOOTH",
"772 152 OFFCURVE",
"757 188 OFFCURVE",
"722 223 CURVE"
);
}
);
width = 707;
},
{
anchors = (
{
name = bottom;
position = "{599, -220}";
},
{
name = top;
position = "{328, 1542}";
}
);
layerId = "EAE1A523-EADE-4FB1-A034-E66E80F3AE4F";
paths = (
{
closed = 1;
nodes = (
"644 273 LINE SMOOTH",
"590 273 OFFCURVE",
"514 292 OFFCURVE",
"464 319 CURVE",
"445 1349 LINE",
"180 1244 LINE",
"231 424 LINE SMOOTH",
"250 117 OFFCURVE",
"350 0 OFFCURVE",
"598 0 CURVE SMOOTH",
"763 0 LINE",
"806 39 OFFCURVE",
"828 86 OFFCURVE",
"828 137 CURVE SMOOTH",
"828 188 OFFCURVE",
"806 233 OFFCURVE",
"763 273 CURVE"
);
}
);
width = 733;
}
);
userData = {
com.schriftgestaltung.Glyphs.rightMetricsKey = z;
com.typemytype.robofont.guides = (
{
angle = 0;
isGlobal = 0;
x = 285;
y = 1176;
}
);
};
},
{
glyphname = "behDotless-ar";
lastChange = "2016-09-06 19:06:06 +0000";
layers = (
{
anchors = (
{
name = bottom;
position = "{889, -227}";
},
{
name = top;
position = "{836, 861}";
}
);
layerId = "93A312F7-B931-4485-B08E-C367313EB5E7";
paths = (
{
closed = 1;
nodes = (
"798 -56 OFFCURVE",
"967 -44 OFFCURVE",
"1141 -13 CURVE SMOOTH",
"1443 35 OFFCURVE",
"1686 126 OFFCURVE",
"1686 412 CURVE SMOOTH",
"1686 504 OFFCURVE",
"1616 788 OFFCURVE",
"1574 964 CURVE SMOOTH",
"1571 976 OFFCURVE",
"1561 977 OFFCURVE",
"1551 968 CURVE SMOOTH",
"1448 864 LINE SMOOTH",
"1442 857 OFFCURVE",
"1440 850 OFFCURVE",
"1442 841 CURVE SMOOTH",
"1570 292 LINE SMOOTH",
"1572 282 OFFCURVE",
"1570 275 OFFCURVE",
"1559 270 CURVE SMOOTH",
"1418 208 OFFCURVE",
"1068 126 OFFCURVE",
"750 132 CURVE SMOOTH",
"480 137 OFFCURVE",
"256 212 OFFCURVE",
"279 443 CURVE SMOOTH",
"293 587 LINE SMOOTH",
"294 597 OFFCURVE",
"289 604 OFFCURVE",
"278 605 CURVE SMOOTH",
"215 611 LINE SMOOTH",
"205 612 OFFCURVE",
"197 605 OFFCURVE",
"195 595 CURVE SMOOTH",
"178 443 LINE SMOOTH",
"138 94 OFFCURVE",
"301 -43 OFFCURVE",
"666 -53 CURVE SMOOTH"
);
}
);
width = 1824;
},
{
anchors = (
{
name = bottom;
position = "{832, -237}";
},
{
name = ring;
position = "{299, -136}";
},
{
name = top;
position = "{830, 856}";
}
);
layerId = "00FED3EE-B3F5-49E6-B91A-35FC52169726";
paths = (
{
closed = 1;
nodes = (
"366 -38 OFFCURVE",
"695 -38 CURVE SMOOTH",
"815 -38 OFFCURVE",
"963 -22 OFFCURVE",
"1115 1 CURVE SMOOTH",
"1405 45 OFFCURVE",
"1645 137 OFFCURVE",
"1645 419 CURVE SMOOTH",
"1645 508 OFFCURVE",
"1580 781 OFFCURVE",
"1538 950 CURVE SMOOTH",
"1535 962 OFFCURVE",
"1527 968 OFFCURVE",
"1518 968 CURVE SMOOTH",
"1512 968 OFFCURVE",
"1505 965 OFFCURVE",
"1500 959 CURVE SMOOTH",
"1400 859 LINE SMOOTH",
"1394 853 OFFCURVE",
"1391 846 OFFCURVE",
"1391 838 CURVE",
"1515 301 LINE",
"1517 295 OFFCURVE",
"1516 294 OFFCURVE",
"1510 291 CURVE SMOOTH",
"1383 228 OFFCURVE",
"1065 153 OFFCURVE",
"769 153 CURVE SMOOTH",
"516 153 OFFCURVE",
"293 216 OFFCURVE",
"293 419 CURVE SMOOTH",
"293 437 OFFCURVE",
"292 451 OFFCURVE",
"308 586 CURVE SMOOTH",
"310 601 OFFCURVE",
"300 612 OFFCURVE",
"285 613 CURVE SMOOTH",
"225 619 LINE SMOOTH",
"210 620 OFFCURVE",
"197 611 OFFCURVE",
"195 596 CURVE SMOOTH",
"174 438 OFFCURVE",
"173 398 OFFCURVE",
"173 356 CURVE SMOOTH",
"173 63 OFFCURVE"
);
}
);
width = 1780;
},
{
anchors = (
{
name = bottom;
position = "{832, -237}";
},
{
name = ring;
position = "{299, -136}";
},
{
name = top;
position = "{830, 856}";
}
);
layerId = "E3174D42-D779-465D-8194-70AED922C337";
paths = (
{
closed = 1;
nodes = (
"366 -38 OFFCURVE",
"695 -38 CURVE SMOOTH",
"815 -38 OFFCURVE",
"963 -22 OFFCURVE",
"1115 1 CURVE SMOOTH",
"1405 45 OFFCURVE",
"1645 137 OFFCURVE",
"1645 419 CURVE SMOOTH",
"1645 508 OFFCURVE",
"1580 781 OFFCURVE",
"1538 950 CURVE SMOOTH",
"1535 962 OFFCURVE",
"1527 968 OFFCURVE",
"1518 968 CURVE SMOOTH",
"1512 968 OFFCURVE",
"1505 965 OFFCURVE",
"1500 959 CURVE SMOOTH",
"1400 859 LINE SMOOTH",
"1394 853 OFFCURVE",
"1391 846 OFFCURVE",
"1391 838 CURVE",
"1515 301 LINE",
"1517 295 OFFCURVE",
"1516 294 OFFCURVE",
"1510 291 CURVE SMOOTH",
"1383 228 OFFCURVE",
"1065 153 OFFCURVE",
"769 153 CURVE SMOOTH",
"516 153 OFFCURVE",
"293 216 OFFCURVE",
"293 419 CURVE SMOOTH",
"293 437 OFFCURVE",
"292 451 OFFCURVE",
"308 586 CURVE SMOOTH",
"310 601 OFFCURVE",
"300 612 OFFCURVE",
"285 613 CURVE SMOOTH",
"225 619 LINE SMOOTH",
"210 620 OFFCURVE",
"197 611 OFFCURVE",
"195 596 CURVE SMOOTH",
"174 438 OFFCURVE",
"173 398 OFFCURVE",
"173 356 CURVE SMOOTH",
"173 63 OFFCURVE"
);
}
);
width = 1780;
},
{
anchors = (
{
name = bottom;
position = "{909, -254}";
},
{
name = ring;
position = "{355, -158}";
},
{
name = top;
position = "{857, 876}";
}
);
layerId = "AB6A8399-B57F-40CA-845C-76C4C0121470";
paths = (
{
closed = 1;
nodes = (
"180 96 OFFCURVE",
"352 -34 OFFCURVE",
"722 -34 CURVE SMOOTH",
"831 -34 OFFCURVE",
"973 -21 OFFCURVE",
"1145 5 CURVE SMOOTH",
"1438 49 OFFCURVE",
"1692 147 OFFCURVE",
"1692 439 CURVE SMOOTH",
"1692 529 OFFCURVE",
"1627 804 OFFCURVE",
"1584 974 CURVE",
"1398 857 LINE",
"1522 322 LINE",
"1392 261 OFFCURVE",
"1084 189 OFFCURVE",
"796 189 CURVE SMOOTH",
"546 189 OFFCURVE",
"340 247 OFFCURVE",
"340 439 CURVE SMOOTH",
"340 457 OFFCURVE",
"339 471 OFFCURVE",
"355 604 CURVE",
"202 618 LINE",
"181 459 OFFCURVE",
"180 418 OFFCURVE",
"180 376 CURVE SMOOTH"
);
}
);
width = 1832;
},
{
anchors = (
{
name = bottom;
position = "{954, -244}";
},
{
name = ring;
position = "{470, -198}";
},
{
name = top;
position = "{882, 876}";
}
);
layerId = "EAE1A523-EADE-4FB1-A034-E66E80F3AE4F";
paths = (
{
closed = 1;
nodes = (
"180 106 OFFCURVE",
"364 -34 OFFCURVE",
"747 -34 CURVE SMOOTH",
"858 -34 OFFCURVE",
"1002 -21 OFFCURVE",
"1174 5 CURVE SMOOTH",
"1562 64 OFFCURVE",
"1742 206 OFFCURVE",
"1742 464 CURVE SMOOTH",
"1742 563 OFFCURVE",
"1667 874 OFFCURVE",
"1625 1038 CURVE",
"1395 894 LINE",
"1518 361 LINE",
"1381 303 OFFCURVE",
"1093 239 OFFCURVE",
"821 239 CURVE SMOOTH",
"533 239 OFFCURVE",
"390 315 OFFCURVE",
"390 464 CURVE SMOOTH",
"390 484 OFFCURVE",
"389 497 OFFCURVE",
"408 652 CURVE",
"205 670 LINE",
"181 490 OFFCURVE",
"180 445 OFFCURVE",
"180 401 CURVE SMOOTH"
);
}
);
width = 1882;
}
);
leftKerningGroup = all;
unicode = 066E;
userData = {
com.typemytype.robofont.guides = (
{
angle = 0;
isGlobal = 0;
x = 383;
y = 1092;
}
);
};
},
{
glyphname = "behDotless-ar.fina";
lastChange = "2016-09-06 18:55:10 +0000";
layers = (
{
anchors = (
{
name = bottom;
position = "{889, -227}";
},
{
name = top;
position = "{836, 861}";
}
);
layerId = "93A312F7-B931-4485-B08E-C367313EB5E7";
paths = (
{
closed = 1;
nodes = (
"969 -60 OFFCURVE",
"1502 16 OFFCURVE",
"1624 161 CURVE SMOOTH",
"1633 171 OFFCURVE",
"1641 170 OFFCURVE",
"1647 159 CURVE SMOOTH",
"1705 52 OFFCURVE",
"1828 0 OFFCURVE",
"1948 0 CURVE SMOOTH",
"2014 0 LINE",
"2062 60 OFFCURVE",
"2062 119 OFFCURVE",
"2014 179 CURVE",
"1948 179 LINE SMOOTH",
"1792 179 OFFCURVE",
"1689 239 OFFCURVE",
"1666 414 CURVE SMOOTH",
"1625 721 LINE SMOOTH",
"1624 734 OFFCURVE",
"1611 739 OFFCURVE",
"1602 729 CURVE SMOOTH",
"1510 634 LINE SMOOTH",
"1504 627 OFFCURVE",
"1502 620 OFFCURVE",
"1503 611 CURVE SMOOTH",
"1558 267 LINE SMOOTH",
"1559 256 OFFCURVE",
"1557 250 OFFCURVE",
"1547 246 CURVE SMOOTH",
"1387 189 OFFCURVE",
"1029 128 OFFCURVE",
"750 133 CURVE SMOOTH",
"480 139 OFFCURVE",
"256 213 OFFCURVE",
"279 444 CURVE SMOOTH",
"293 588 LINE SMOOTH",
"294 598 OFFCURVE",
"289 605 OFFCURVE",
"278 606 CURVE SMOOTH",
"215 612 LINE SMOOTH",
"205 613 OFFCURVE",
"197 606 OFFCURVE",
"195 596 CURVE SMOOTH",
"178 444 LINE SMOOTH",
"138 95 OFFCURVE",
"301 -45 OFFCURVE",
"666 -53 CURVE SMOOTH"
);
}
);
width = 1994;
},
{
anchors = (
{
name = bottom;
position = "{871, -237}";
},
{
name = ring;
position = "{301, -142}";
},
{
name = top;
position = "{820, 836}";
}
);
layerId = "00FED3EE-B3F5-49E6-B91A-35FC52169726";
paths = (
{
closed = 1;
nodes = (
"173 59 OFFCURVE",
"366 -38 OFFCURVE",
"689 -38 CURVE SMOOTH",
"986 -38 OFFCURVE",
"1469 21 OFFCURVE",
"1584 158 CURVE SMOOTH",
"1588 162 OFFCURVE",
"1588 162 OFFCURVE",
"1590 157 CURVE SMOOTH",
"1643 60 OFFCURVE",
"1757 0 OFFCURVE",
"1887 0 CURVE SMOOTH",
"1952 0 LINE",
"1979 32 OFFCURVE",
"1991 63 OFFCURVE",
"1991 96 CURVE SMOOTH",
"1991 128 OFFCURVE",
"1979 159 OFFCURVE",
"1952 191 CURVE",
"1887 191 LINE SMOOTH",
"1727 191 OFFCURVE",
"1646 259 OFFCURVE",
"1626 408 CURVE SMOOTH",
"1587 703 LINE SMOOTH",
"1584 724 OFFCURVE",
"1561 731 OFFCURVE",
"1548 716 CURVE SMOOTH",
"1460 625 LINE SMOOTH",
"1455 619 OFFCURVE",
"1451 612 OFFCURVE",
"1451 601 CURVE",
"1503 264 LINE",
"1504 257 OFFCURVE",
"1502 256 OFFCURVE",
"1499 254 CURVE SMOOTH",
"1353 204 OFFCURVE",
"1035 153 OFFCURVE",
"774 153 CURVE SMOOTH",
"524 153 OFFCURVE",
"293 212 OFFCURVE",
"293 419 CURVE SMOOTH",
"293 445 OFFCURVE",
"294 471 OFFCURVE",
"308 586 CURVE SMOOTH",
"310 601 OFFCURVE",
"300 612 OFFCURVE",
"285 613 CURVE SMOOTH",
"225 619 LINE SMOOTH",
"210 620 OFFCURVE",
"197 612 OFFCURVE",
"195 596 CURVE SMOOTH",
"175 436 OFFCURVE",
"173 397 OFFCURVE",
"173 355 CURVE SMOOTH"
);
}
);
width = 1933;
},
{
anchors = (
{
name = bottom;
position = "{871, -237}";
},
{
name = ring;
position = "{301, -142}";
},
{
name = top;
position = "{820, 836}";
}
);
layerId = "E3174D42-D779-465D-8194-70AED922C337";
paths = (
{
closed = 1;
nodes = (
"1887 191 LINE SMOOTH",
"1727 191 OFFCURVE",
"1646 259 OFFCURVE",
"1626 408 CURVE SMOOTH",
"1587 703 LINE SMOOTH",
"1584 724 OFFCURVE",
"1561 731 OFFCURVE",
"1548 716 CURVE",
"1460 625 LINE",
"1455 619 OFFCURVE",
"1451 612 OFFCURVE",
"1451 601 CURVE",
"1503 264 LINE SMOOTH",
"1504 257 OFFCURVE",
"1502 256 OFFCURVE",
"1499 254 CURVE",
"1353 204 OFFCURVE",
"1035 153 OFFCURVE",
"774 153 CURVE SMOOTH",
"524 153 OFFCURVE",
"293 212 OFFCURVE",
"293 419 CURVE SMOOTH",
"293 445 OFFCURVE",
"294 471 OFFCURVE",
"308 586 CURVE SMOOTH",
"310 601 OFFCURVE",
"300 612 OFFCURVE",
"285 613 CURVE SMOOTH",
"225 619 LINE SMOOTH",
"210 620 OFFCURVE",
"197 612 OFFCURVE",
"195 596 CURVE SMOOTH",
"175 436 OFFCURVE",
"173 397 OFFCURVE",
"173 355 CURVE SMOOTH",
"173 59 OFFCURVE",
"366 -38 OFFCURVE",
"689 -38 CURVE SMOOTH",
"986 -38 OFFCURVE",
"1469 21 OFFCURVE",
"1584 158 CURVE",
"1588 162 OFFCURVE",
"1588 162 OFFCURVE",
"1590 157 CURVE",
"1643 60 OFFCURVE",
"1757 0 OFFCURVE",
"1887 0 CURVE SMOOTH",
"1943 0 LINE",
"1970 32 OFFCURVE",
"1982 64 OFFCURVE",
"1982 96 CURVE SMOOTH",
"1982 128 OFFCURVE",
"1970 159 OFFCURVE",
"1943 191 CURVE"
);
}
);
width = 1933;
},
{
anchors = (
{
name = bottom;
position = "{908, -247}";
},
{
name = ring;
position = "{326, -161}";
},
{
name = top;
position = "{907, 796}";
}
);
layerId = "AB6A8399-B57F-40CA-845C-76C4C0121470";
paths = (
{
closed = 1;
nodes = (
"1914 223 LINE SMOOTH",
"1765 223 OFFCURVE",
"1692 284 OFFCURVE",
"1673 426 CURVE SMOOTH",
"1634 721 LINE",
"1438 616 LINE",
"1509 282 LINE",
"1360 234 OFFCURVE",
"1054 185 OFFCURVE",
"801 185 CURVE SMOOTH",
"497 185 OFFCURVE",
"340 270 OFFCURVE",
"340 435 CURVE SMOOTH",
"340 461 OFFCURVE",
"341 486 OFFCURVE",
"355 600 CURVE",
"202 614 LINE",
"182 453 OFFCURVE",
"180 413 OFFCURVE",
"180 371 CURVE SMOOTH",
"180 90 OFFCURVE",
"349 -38 OFFCURVE",
"716 -38 CURVE SMOOTH",
"1013 -38 OFFCURVE",
"1502 21 OFFCURVE",
"1624 161 CURVE",
"1692 33 OFFCURVE",
"1767 0 OFFCURVE",
"1914 0 CURVE SMOOTH",
"1999 0 LINE",
"2034 35 OFFCURVE",
"2049 72 OFFCURVE",
"2049 112 CURVE SMOOTH",
"2049 152 OFFCURVE",
"2034 188 OFFCURVE",
"1999 223 CURVE"
);
}
);
width = 1984;
},
{
anchors = (
{
name = bottom;
position = "{933, -237}";
},
{
name = ring;
position = "{381, -171}";
},
{
name = top;
position = "{932, 796}";
}
);
layerId = "EAE1A523-EADE-4FB1-A034-E66E80F3AE4F";
paths = (
{
closed = 1;
nodes = (
"1939 273 LINE SMOOTH",
"1802 273 OFFCURVE",
"1740 325 OFFCURVE",
"1723 454 CURVE SMOOTH",
"1679 785 LINE",
"1435 654 LINE",
"1505 324 LINE",
"1351 279 OFFCURVE",
"1065 235 OFFCURVE",
"826 235 CURVE SMOOTH",
"535 235 OFFCURVE",
"390 312 OFFCURVE",
"390 460 CURVE SMOOTH",
"390 487 OFFCURVE",
"391 512 OFFCURVE",
"408 648 CURVE",
"205 666 LINE",
"182 484 OFFCURVE",
"180 441 OFFCURVE",
"180 396 CURVE SMOOTH",
"180 100 OFFCURVE",
"360 -38 OFFCURVE",
"741 -38 CURVE SMOOTH",
"1023 -38 OFFCURVE",
"1484 16 OFFCURVE",
"1643 146 CURVE",
"1709 37 OFFCURVE",
"1788 0 OFFCURVE",
"1939 0 CURVE SMOOTH",
"2039 0 LINE",
"2082 39 OFFCURVE",
"2104 86 OFFCURVE",
"2104 137 CURVE SMOOTH",
"2104 188 OFFCURVE",
"2082 233 OFFCURVE",
"2039 273 CURVE"
);
}
);
width = 2009;
}
);
},
{
glyphname = "behDotless-ar.medi";
lastChange = "2016-09-06 19:02:18 +0000";
layers = (
{
anchors = (
{
name = bottom;
position = "{370, -178}";
},
{
name = top;
position = "{529, 790}";
}
);
layerId = "93A312F7-B931-4485-B08E-C367313EB5E7";
paths = (
{
closed = 1;
nodes = (
"44 0 LINE SMOOTH",
"168 0 OFFCURVE",
"324 15 OFFCURVE",
"440 120 CURVE SMOOTH",
"448 126 OFFCURVE",
"457 126 OFFCURVE",
"465 118 CURVE SMOOTH",
"550 29 OFFCURVE",
"710 0 OFFCURVE",
"883 0 CURVE SMOOTH",
"933 0 LINE",
"981 60 OFFCURVE",
"981 119 OFFCURVE",
"933 179 CURVE",
"867 179 LINE SMOOTH",
"788 179 OFFCURVE",
"646 197 OFFCURVE",
"567 224 CURVE SMOOTH",
"558 228 OFFCURVE",
"554 235 OFFCURVE",
"555 245 CURVE SMOOTH",
"580 591 LINE SMOOTH",
"581 601 OFFCURVE",
"576 610 OFFCURVE",
"566 611 CURVE SMOOTH",
"504 614 LINE SMOOTH",
"493 615 OFFCURVE",
"484 610 OFFCURVE",
"483 599 CURVE SMOOTH",
"454 357 LINE SMOOTH",
"434 189 OFFCURVE",
"182 179 OFFCURVE",
"51 179 CURVE SMOOTH",
"-20 179 LINE SMOOTH",
"-138 179 OFFCURVE",
"-138 0 OFFCURVE",
"-20 0 CURVE SMOOTH"
);
}
);
width = 913;
},
{
anchors = (
{
name = bottom;
position = "{355, -200}";
},
{
name = ring;
position = "{345, -115}";
},
{
name = top;
position = "{508, 816}";
}
);
layerId = "00FED3EE-B3F5-49E6-B91A-35FC52169726";
paths = (
{
closed = 1;
nodes = (
"42 0 LINE SMOOTH",
"161 0 OFFCURVE",
"315 14 OFFCURVE",
"429 118 CURVE SMOOTH",
"432 120 OFFCURVE",
"436 120 OFFCURVE",
"440 116 CURVE SMOOTH",
"523 29 OFFCURVE",
"681 0 OFFCURVE",
"848 0 CURVE SMOOTH",
"897 0 LINE",
"924 32 OFFCURVE",
"936 63 OFFCURVE",
"936 96 CURVE SMOOTH",
"936 128 OFFCURVE",
"924 159 OFFCURVE",
"897 191 CURVE",
"832 191 LINE SMOOTH",
"757 191 OFFCURVE",
"622 208 OFFCURVE",
"547 233 CURVE SMOOTH",
"543 235 OFFCURVE",
"542 236 OFFCURVE",
"542 240 CURVE SMOOTH",
"542 241 OFFCURVE",
"542 242 OFFCURVE",
"542 244 CURVE SMOOTH",
"566 576 LINE SMOOTH",
"567 591 OFFCURVE",
"559 605 OFFCURVE",
"544 606 CURVE SMOOTH",
"484 609 LINE SMOOTH",
"468 610 OFFCURVE",
"456 601 OFFCURVE",
"454 586 CURVE SMOOTH",
"426 353 LINE SMOOTH",
"408 201 OFFCURVE",
"175 191 OFFCURVE",
"49 191 CURVE SMOOTH",
"-19 191 LINE SMOOTH",
"-83 191 OFFCURVE",
"-113 143 OFFCURVE",
"-113 96 CURVE SMOOTH",
"-113 48 OFFCURVE",
"-83 0 OFFCURVE",
"-19 0 CURVE SMOOTH"
);
}
);
width = 878;
},
{
anchors = (
{
name = bottom;
position = "{355, -200}";
},
{
name = ring;
position = "{345, -115}";
},
{
name = top;
position = "{508, 816}";
}
);
layerId = "E3174D42-D779-465D-8194-70AED922C337";
paths = (
{
closed = 1;
nodes = (
"832 191 LINE SMOOTH",
"757 191 OFFCURVE",
"622 208 OFFCURVE",
"547 233 CURVE",
"543 235 OFFCURVE",
"542 236 OFFCURVE",
"542 240 CURVE SMOOTH",
"542 244 LINE",
"566 576 LINE SMOOTH",
"567 591 OFFCURVE",
"559 605 OFFCURVE",
"544 606 CURVE SMOOTH",
"484 609 LINE SMOOTH",
"468 610 OFFCURVE",
"456 601 OFFCURVE",
"454 586 CURVE SMOOTH",
"426 353 LINE SMOOTH",
"408 201 OFFCURVE",
"175 191 OFFCURVE",
"49 191 CURVE SMOOTH",
"-10 191 LINE SMOOTH",
"-74 191 OFFCURVE",
"-104 143 OFFCURVE",
"-104 96 CURVE SMOOTH",
"-104 49 OFFCURVE",
"-74 0 OFFCURVE",
"-10 0 CURVE SMOOTH",
"42 0 LINE SMOOTH",
"161 0 OFFCURVE",
"315 14 OFFCURVE",
"429 118 CURVE",
"432 120 OFFCURVE",
"436 120 OFFCURVE",
"440 116 CURVE SMOOTH",
"523 29 OFFCURVE",
"681 0 OFFCURVE",
"848 0 CURVE SMOOTH",
"898 0 LINE",
"925 32 OFFCURVE",
"937 64 OFFCURVE",
"937 96 CURVE SMOOTH",
"937 128 OFFCURVE",
"925 159 OFFCURVE",
"898 191 CURVE"
);
}
);
width = 888;
},
{
anchors = (
{
name = bottom;
position = "{295, -210}";
},
{
name = ring;
position = "{346, -136}";
},
{
name = top;
position = "{518, 824}";
}
);
layerId = "AB6A8399-B57F-40CA-845C-76C4C0121470";
paths = (
{
closed = 1;
nodes = (
"832 223 LINE SMOOTH",
"762 223 OFFCURVE",
"638 238 OFFCURVE",
"562 261 CURVE",
"586 591 LINE",
"434 604 LINE",
"406 371 LINE SMOOTH",
"394 268 OFFCURVE",
"277 223 OFFCURVE",
"49 223 CURVE SMOOTH",
"-15 223 LINE SMOOTH",
"-75 223 OFFCURVE",
"-120 172 OFFCURVE",
"-120 112 CURVE SMOOTH",
"-120 52 OFFCURVE",
"-75 0 OFFCURVE",
"-15 0 CURVE SMOOTH",
"42 0 LINE SMOOTH",
"159 0 OFFCURVE",
"316 14 OFFCURVE",
"433 114 CURVE",
"510 40 OFFCURVE",
"654 0 OFFCURVE",
"848 0 CURVE SMOOTH",
"908 0 LINE",
"943 35 OFFCURVE",
"958 72 OFFCURVE",
"958 112 CURVE SMOOTH",
"958 152 OFFCURVE",
"943 188 OFFCURVE",
"908 223 CURVE"
);
}
);
width = 893;
},
{
anchors = (
{
name = bottom;
position = "{295, -200}";
},
{
name = ring;
position = "{236, -166}";
},
{
name = top;
position = "{518, 864}";
}
);
layerId = "EAE1A523-EADE-4FB1-A034-E66E80F3AE4F";
paths = (
{
closed = 1;
nodes = (
"832 273 LINE SMOOTH",
"763 273 OFFCURVE",
"657 287 OFFCURVE",
"588 305 CURVE",
"613 639 LINE",
"412 656 LINE",
"381 399 LINE SMOOTH",
"371 314 OFFCURVE",
"268 273 OFFCURVE",
"49 273 CURVE SMOOTH",
"-30 273 LINE SMOOTH",
"-102 273 OFFCURVE",
"-160 212 OFFCURVE",
"-160 137 CURVE SMOOTH",
"-160 61 OFFCURVE",
"-102 0 OFFCURVE",
"-30 0 CURVE SMOOTH",
"42 0 LINE SMOOTH",
"212 0 OFFCURVE",
"338 34 OFFCURVE",
"432 106 CURVE",
"517 37 OFFCURVE",
"662 0 OFFCURVE",
"848 0 CURVE SMOOTH",
"923 0 LINE",
"966 39 OFFCURVE",
"988 86 OFFCURVE",
"988 137 CURVE SMOOTH",
"988 188 OFFCURVE",
"966 233 OFFCURVE",
"923 273 CURVE"
);
}
);
width = 893;
}
);
},
{
glyphname = "behDotless-ar.init";
lastChange = "2016-09-06 19:00:52 +0000";
layers = (
{
anchors = (
{
name = bottom;
position = "{292, -179}";
},
{
name = top;
position = "{415, 1128}";
}
);
layerId = "93A312F7-B931-4485-B08E-C367313EB5E7";
paths = (
{
closed = 1;
nodes = (
"393 0 OFFCURVE",
"608 105 OFFCURVE",
"608 389 CURVE SMOOTH",
"608 481 OFFCURVE",
"538 765 OFFCURVE",
"497 941 CURVE SMOOTH",
"493 953 OFFCURVE",
"483 954 OFFCURVE",
"474 945 CURVE SMOOTH",
"370 841 LINE SMOOTH",
"365 834 OFFCURVE",
"362 828 OFFCURVE",
"365 818 CURVE SMOOTH",
"492 281 LINE SMOOTH",
"494 270 OFFCURVE",
"492 263 OFFCURVE",
"482 259 CURVE SMOOTH",
"363 206 OFFCURVE",
"240 179 OFFCURVE",
"0 179 CURVE SMOOTH",
"-20 179 LINE SMOOTH",
"-138 179 OFFCURVE",
"-138 0 OFFCURVE",
"-20 0 CURVE SMOOTH",
"0 0 LINE SMOOTH"
);
}
);
width = 746;
},
{
anchors = (
{
name = bottom;
position = "{280, -201}";
},
{
name = ring;
position = "{541, -20}";
},
{
name = top;
position = "{408, 1112}";
}
);
layerId = "00FED3EE-B3F5-49E6-B91A-35FC52169726";
paths = (
{
closed = 1;
nodes = (
"407 0 OFFCURVE",
"593 120 OFFCURVE",
"593 383 CURVE SMOOTH",
"593 472 OFFCURVE",
"526 746 OFFCURVE",
"487 915 CURVE SMOOTH",
"482 935 OFFCURVE",
"462 937 OFFCURVE",
"448 924 CURVE SMOOTH",
"348 824 LINE SMOOTH",
"342 817 OFFCURVE",
"340 810 OFFCURVE",
"340 804 CURVE",
"463 277 LINE",
"465 270 OFFCURVE",
"464 269 OFFCURVE",
"459 267 CURVE SMOOTH",
"346 217 OFFCURVE",
"229 191 OFFCURVE",
"0 191 CURVE SMOOTH",
"-19 191 LINE SMOOTH",
"-83 191 OFFCURVE",
"-113 143 OFFCURVE",
"-113 96 CURVE SMOOTH",
"-113 48 OFFCURVE",
"-83 0 OFFCURVE",
"-19 0 CURVE SMOOTH",
"0 0 LINE SMOOTH"
);
}
);
width = 728;
},
{
anchors = (
{
name = bottom;
position = "{280, -201}";
},
{
name = ring;
position = "{541, -20}";
},
{
name = top;
position = "{408, 1112}";
}
);
layerId = "E3174D42-D779-465D-8194-70AED922C337";
paths = (
{
closed = 1;
nodes = (
"482 935 OFFCURVE",
"462 937 OFFCURVE",
"448 924 CURVE",
"348 824 LINE",
"342 817 OFFCURVE",
"340 810 OFFCURVE",
"340 804 CURVE",
"463 277 LINE",
"465 270 OFFCURVE",
"464 269 OFFCURVE",
"459 267 CURVE",
"346 217 OFFCURVE",
"229 191 OFFCURVE",
"10 191 CURVE SMOOTH",
"-10 191 LINE SMOOTH",
"-74 191 OFFCURVE",
"-104 143 OFFCURVE",
"-104 96 CURVE SMOOTH",
"-104 49 OFFCURVE",
"-74 0 OFFCURVE",
"-10 0 CURVE SMOOTH",
"10 0 LINE SMOOTH",
"407 0 OFFCURVE",
"593 120 OFFCURVE",
"593 383 CURVE SMOOTH",
"593 472 OFFCURVE",
"526 746 OFFCURVE",
"487 915 CURVE SMOOTH"
);
}
);
width = 728;
},
{
anchors = (
{
name = bottom;
position = "{280, -221}";
},
{
name = ring;
position = "{531, -60}";
},
{
name = top;
position = "{428, 1132}";
}
);
layerId = "AB6A8399-B57F-40CA-845C-76C4C0121470";
paths = (
{
closed = 1;
nodes = (
"310 818 LINE",
"443 294 LINE",
"333 247 OFFCURVE",
"235 223 OFFCURVE",
"15 223 CURVE SMOOTH",
"-15 223 LINE SMOOTH",
"-75 223 OFFCURVE",
"-120 172 OFFCURVE",
"-120 112 CURVE SMOOTH",
"-120 52 OFFCURVE",
"-75 0 OFFCURVE",
"-15 0 CURVE SMOOTH",
"15 0 LINE SMOOTH",
"432 0 OFFCURVE",
"613 127 OFFCURVE",
"613 399 CURVE SMOOTH",
"613 489 OFFCURVE",
"546 765 OFFCURVE",
"506 935 CURVE"
);
}
);
width = 753;
},
{
anchors = (
{
name = bottom;
position = "{295, -201}";
},
{
name = ring;
position = "{396, -140}";
},
{
name = top;
position = "{453, 1182}";
}
);
layerId = "EAE1A523-EADE-4FB1-A034-E66E80F3AE4F";
paths = (
{
closed = 1;
nodes = (
"296 855 LINE",
"428 334 LINE",
"328 293 OFFCURVE",
"234 273 OFFCURVE",
"30 273 CURVE SMOOTH",
"-30 273 LINE SMOOTH",
"-102 273 OFFCURVE",
"-160 212 OFFCURVE",
"-160 137 CURVE SMOOTH",
"-160 61 OFFCURVE",
"-102 0 OFFCURVE",
"-30 0 CURVE SMOOTH",
"30 0 LINE SMOOTH",
"455 0 OFFCURVE",
"653 133 OFFCURVE",
"653 424 CURVE SMOOTH",
"653 523 OFFCURVE",
"576 835 OFFCURVE",
"538 999 CURVE"
);
}
);
width = 793;
}
);
leftKerningGroup = all;
},
{
glyphname = "peh-ar.init";
lastChange = "2016-09-06 18:50:02 +0000";
layers = (
{
anchors = (
{
name = top;
position = "{544, 1159}";
}
);
components = (
{
name = "threedotsdownbelow-ar";
transform = "{1, 0, 0, 1, 25, -24}";
}
);
layerId = "93A312F7-B931-4485-B08E-C367313EB5E7";
paths = (
{
closed = 1;
nodes = (
"92 0 LINE SMOOTH",
"299 0 OFFCURVE",
"599 91 OFFCURVE",
"628 209 CURVE",
"651 278 OFFCURVE",
"665 361 OFFCURVE",
"665 423 CURVE SMOOTH",
"665 515 OFFCURVE",
"595 799 OFFCURVE",
"553 975 CURVE SMOOTH",
"550 988 OFFCURVE",
"539 989 OFFCURVE",
"530 980 CURVE SMOOTH",
"427 875 LINE SMOOTH",
"421 868 OFFCURVE",
"419 861 OFFCURVE",
"421 852 CURVE SMOOTH",
"568 319 LINE SMOOTH",
"576 290 OFFCURVE",
"563 279 OFFCURVE",
"544 271 CURVE SMOOTH",
"461 236 OFFCURVE",
"311 179 OFFCURVE",
"92 179 CURVE SMOOTH",
"-20 179 LINE SMOOTH",
"-138 179 OFFCURVE",
"-138 0 OFFCURVE",
"-20 0 CURVE SMOOTH"
);
}
);
width = 803;
},
{
anchors = (
{
name = top;
position = "{509, 1110}";
}
);
components = (
{
alignment = 1;
name = "dotlessbeh2-ar.init";
},
{
name = "threedotsdownbelow-ar";
transform = "{1, 0, 0, 1, -3, -62}";
}
);
layerId = "00FED3EE-B3F5-49E6-B91A-35FC52169726";
width = 817;
},
{
anchors = (
{
name = top;
position = "{509, 1110}";
}
);
components = (
{
alignment = 1;
name = "dotlessbeh2-ar.init";
},
{
name = "threedotsdownbelow-ar";
transform = "{1, 0, 0, 1, -3, -62}";
}
);
layerId = "E3174D42-D779-465D-8194-70AED922C337";
width = 817;
},
{
anchors = (
{
name = top;
position = "{539, 1120}";
}
);
components = (
{
alignment = 1;
name = "dotlessbeh2-ar.init";
},
{
name = "threedotsdownbelow-ar";
transform = "{1, 0, 0, 1, -9, -57}";
}
);
layerId = "AB6A8399-B57F-40CA-845C-76C4C0121470";
width = 842;
},
{
anchors = (
{
name = top;
position = "{519, 1190}";
}
);
components = (
{
alignment = 1;
name = "dotlessbeh2-ar.init";
},
{
name = "threedotsdownbelow-ar";
transform = "{1, 0, 0, 1, 28, -85}";
}
);
layerId = "EAE1A523-EADE-4FB1-A034-E66E80F3AE4F";
width = 867;
}
);
unicode = FB58;
},
{
glyphname = "hah-ar";
lastChange = "2016-09-06 19:18:33 +0000";
layers = (
{
anchors = (
{
name = bottom;
position = "{805, -968}";
},
{
name = center;
position = "{870, 0}";
},
{
name = top;
position = "{447, 1042}";
}
);
layerId = "93A312F7-B931-4485-B08E-C367313EB5E7";
paths = (
{
closed = 1;
nodes = (
"1235 -672 OFFCURVE",
"1281 -636 OFFCURVE",
"1336 -497 CURVE SMOOTH",
"1342 -482 OFFCURVE",
"1327 -470 OFFCURVE",
"1309 -474 CURVE SMOOTH",
"977 -542 OFFCURVE",
"478 -597 OFFCURVE",
"320 -312 CURVE SMOOTH",
"288 -251 OFFCURVE",
"277 -168 OFFCURVE",
"302 -66 CURVE SMOOTH",
"400 328 OFFCURVE",
"812 497 OFFCURVE",
"1228 503 CURVE SMOOTH",
"1235 503 OFFCURVE",
"1241 507 OFFCURVE",
"1243 513 CURVE SMOOTH",
"1298 681 LINE SMOOTH",
"1303 695 OFFCURVE",
"1293 708 OFFCURVE",
"1277 707 CURVE SMOOTH",
"946 690 OFFCURVE",
"784 780 OFFCURVE",
"614 833 CURVE SMOOTH",
"420 892 OFFCURVE",
"344 873 OFFCURVE",
"193 710 CURVE SMOOTH",
"189 705 OFFCURVE",
"187 700 OFFCURVE",
"189 695 CURVE SMOOTH",
"224 600 LINE SMOOTH",
"230 584 OFFCURVE",
"247 581 OFFCURVE",
"260 593 CURVE SMOOTH",
"376 708 OFFCURVE",
"422 703 OFFCURVE",
"541 666 CURVE SMOOTH",
"795 587 LINE",
"448 486 OFFCURVE",
"177 180 OFFCURVE",
"173 -183 CURVE SMOOTH",
"167 -743 OFFCURVE",
"615 -764 OFFCURVE",
"1037 -702 CURVE SMOOTH"
);
}
);
width = 1438;
},
{
anchors = (
{
name = bottom;
position = "{739, -901}";
},
{
name = center;
position = "{852, 10}";
},
{
name = top;
position = "{455, 1048}";
}
);
layerId = "00FED3EE-B3F5-49E6-B91A-35FC52169726";
paths = (
{
closed = 1;
nodes = (
"1192 -646 OFFCURVE",
"1243 -620 OFFCURVE",
"1298 -481 CURVE SMOOTH",
"1304 -458 OFFCURVE",
"1289 -444 OFFCURVE",
"1269 -444 CURVE SMOOTH",
"1235 -444 OFFCURVE",
"1052 -497 OFFCURVE",
"818 -497 CURVE SMOOTH",
"540 -497 OFFCURVE",
"302 -403 OFFCURVE",
"302 -162 CURVE SMOOTH",
"302 220 OFFCURVE",
"685 476 OFFCURVE",
"1195 483 CURVE SMOOTH",
"1206 483 OFFCURVE",
"1215 490 OFFCURVE",
"1218 499 CURVE SMOOTH",
"1262 633 OFFCURVE",
"1273 664 OFFCURVE",
"1273 674 CURVE SMOOTH",
"1273 698 OFFCURVE",
"1228 696 OFFCURVE",
"1159 696 CURVE SMOOTH",
"791 696 OFFCURVE",
"641 849 OFFCURVE",
"451 849 CURVE SMOOTH",
"359 849 OFFCURVE",
"293 804 OFFCURVE",
"194 697 CURVE SMOOTH",
"186 689 OFFCURVE",
"186 684 OFFCURVE",
"189 673 CURVE SMOOTH",
"223 583 LINE SMOOTH",
"228 569 OFFCURVE",
"238 562 OFFCURVE",
"250 562 CURVE SMOOTH",
"257 562 OFFCURVE",
"266 565 OFFCURVE",
"273 572 CURVE SMOOTH",
"339 638 OFFCURVE",
"379 660 OFFCURVE",
"426 660 CURVE SMOOTH",
"464 660 OFFCURVE",
"472 657 OFFCURVE",
"766 573 CURVE",
"396 491 OFFCURVE",
"173 155 OFFCURVE",
"173 -178 CURVE SMOOTH",
"173 -590 OFFCURVE",
"426 -697 OFFCURVE",
"728 -697 CURVE SMOOTH",
"817 -697 OFFCURVE",
"911 -687 OFFCURVE",
"1003 -674 CURVE SMOOTH"
);
}
);
width = 1408;
},
{
anchors = (
{
name = bottom;
position = "{739, -901}";
},
{
name = center;
position = "{852, 10}";
},
{
name = top;
position = "{455, 1048}";
}
);
layerId = "E3174D42-D779-465D-8194-70AED922C337";
paths = (
{
closed = 1;
nodes = (
"1192 -646 OFFCURVE",
"1243 -620 OFFCURVE",
"1298 -481 CURVE SMOOTH",
"1304 -458 OFFCURVE",
"1289 -444 OFFCURVE",
"1269 -444 CURVE SMOOTH",
"1235 -444 OFFCURVE",
"1052 -497 OFFCURVE",
"818 -497 CURVE SMOOTH",
"540 -497 OFFCURVE",
"302 -403 OFFCURVE",
"302 -162 CURVE SMOOTH",
"302 220 OFFCURVE",
"685 476 OFFCURVE",
"1195 483 CURVE SMOOTH",
"1206 483 OFFCURVE",
"1215 490 OFFCURVE",
"1218 499 CURVE SMOOTH",
"1262 633 OFFCURVE",
"1273 664 OFFCURVE",
"1273 674 CURVE SMOOTH",
"1273 698 OFFCURVE",
"1228 696 OFFCURVE",
"1159 696 CURVE SMOOTH",
"791 696 OFFCURVE",
"641 849 OFFCURVE",
"451 849 CURVE SMOOTH",
"359 849 OFFCURVE",
"293 804 OFFCURVE",
"194 697 CURVE SMOOTH",
"186 689 OFFCURVE",
"186 684 OFFCURVE",
"189 673 CURVE SMOOTH",
"223 583 LINE SMOOTH",
"228 569 OFFCURVE",
"238 562 OFFCURVE",
"250 562 CURVE SMOOTH",
"257 562 OFFCURVE",
"266 565 OFFCURVE",
"273 572 CURVE SMOOTH",
"339 638 OFFCURVE",
"379 660 OFFCURVE",
"426 660 CURVE SMOOTH",
"464 660 OFFCURVE",
"472 657 OFFCURVE",
"766 573 CURVE",
"396 491 OFFCURVE",
"173 155 OFFCURVE",
"173 -178 CURVE SMOOTH",
"173 -590 OFFCURVE",
"426 -697 OFFCURVE",
"728 -697 CURVE SMOOTH",
"817 -697 OFFCURVE",
"911 -687 OFFCURVE",
"1003 -674 CURVE SMOOTH"
);
}
);
width = 1408;
},
{
anchors = (
{
name = bottom;
position = "{756, -913}";
},
{
name = center;
position = "{839, -60}";
},
{
name = top;
position = "{479, 1068}";
}
);
layerId = "AB6A8399-B57F-40CA-845C-76C4C0121470";
paths = (
{
closed = 1;
nodes = (
"1238 -437 LINE",
"1159 -452 OFFCURVE",
"1016 -481 OFFCURVE",
"845 -481 CURVE SMOOTH",
"529 -481 OFFCURVE",
"349 -365 OFFCURVE",
"349 -162 CURVE SMOOTH",
"349 198 OFFCURVE",
"702 455 OFFCURVE",
"1208 467 CURVE",
"1268 710 LINE",
"1149 713 LINE",
"817 723 OFFCURVE",
"669 865 OFFCURVE",
"478 865 CURVE SMOOTH",
"410 865 OFFCURVE",
"308 801 OFFCURVE",
"222 710 CURVE",
"314 551 LINE",
"377 604 OFFCURVE",
"431 644 OFFCURVE",
"473 644 CURVE SMOOTH",
"504 644 OFFCURVE",
"509 642 OFFCURVE",
"742 574 CURVE",
"417 475 OFFCURVE",
"180 169 OFFCURVE",
"180 -178 CURVE SMOOTH",
"180 -537 OFFCURVE",
"369 -713 OFFCURVE",
"755 -713 CURVE SMOOTH",
"870 -713 OFFCURVE",
"1082 -690 OFFCURVE",
"1181 -659 CURVE"
);
}
);
width = 1408;
},
{
anchors = (
{
name = bottom;
position = "{781, -933}";
},
{
name = center;
position = "{864, -40}";
},
{
name = top;
position = "{504, 1128}";
}
);
layerId = "EAE1A523-EADE-4FB1-A034-E66E80F3AE4F";
paths = (
{
closed = 1;
nodes = (
"1297 -381 LINE",
"1232 -390 OFFCURVE",
"1071 -431 OFFCURVE",
"870 -431 CURVE SMOOTH",
"568 -431 OFFCURVE",
"399 -324 OFFCURVE",
"399 -137 CURVE SMOOTH",
"399 212 OFFCURVE",
"749 462 OFFCURVE",
"1253 467 CURVE",
"1325 759 LINE",
"1175 763 LINE SMOOTH",
"854 772 OFFCURVE",
"701 915 OFFCURVE",
"503 915 CURVE SMOOTH",
"426 915 OFFCURVE",
"312 845 OFFCURVE",
"216 738 CURVE",
"332 538 LINE",
"422 615 OFFCURVE",
"451 644 OFFCURVE",
"498 644 CURVE SMOOTH",
"543 644 OFFCURVE",
"550 642 OFFCURVE",
"684 596 CURVE",
"384 471 OFFCURVE",
"180 173 OFFCURVE",
"180 -153 CURVE SMOOTH",
"180 -526 OFFCURVE",
"380 -713 OFFCURVE",
"780 -713 CURVE SMOOTH",
"902 -713 OFFCURVE",
"1132 -687 OFFCURVE",
"1227 -653 CURVE"
);
}
);
width = 1465;
}
);
unicode = 062D;
},
{
glyphname = "hah-ar.fina";
lastChange = "2016-09-06 19:18:54 +0000";
layers = (
{
anchors = (
{
name = bottom;
position = "{793, -945}";
},
{
name = center;
position = "{679, -120}";
},
{
name = top;
position = "{484, 1063}";
}
);
layerId = "93A312F7-B931-4485-B08E-C367313EB5E7";
paths = (
{
closed = 1;
nodes = (
"1255 -669 OFFCURVE",
"1311 -633 OFFCURVE",
"1366 -494 CURVE SMOOTH",
"1372 -479 OFFCURVE",
"1357 -468 OFFCURVE",
"1339 -471 CURVE SMOOTH",
"1007 -535 OFFCURVE",
"478 -594 OFFCURVE",
"320 -309 CURVE SMOOTH",
"288 -248 OFFCURVE",
"277 -165 OFFCURVE",
"302 -63 CURVE SMOOTH",
"359 165 OFFCURVE",
"520 291 OFFCURVE",
"727 399 CURVE",
"811 145 OFFCURVE",
"977 0 OFFCURVE",
"1219 0 CURVE SMOOTH",
"1301 0 LINE",
"1349 60 OFFCURVE",
"1349 119 OFFCURVE",
"1301 179 CURVE",
"1235 179 LINE SMOOTH",
"1104 179 OFFCURVE",
"907 232 OFFCURVE",
"834 448 CURVE",
"958 497 OFFCURVE",
"1093 523 OFFCURVE",
"1228 526 CURVE SMOOTH",
"1235 526 OFFCURVE",
"1241 530 OFFCURVE",
"1243 536 CURVE SMOOTH",
"1298 704 LINE SMOOTH",
"1303 718 OFFCURVE",
"1293 731 OFFCURVE",
"1277 730 CURVE SMOOTH",
"946 713 OFFCURVE",
"784 803 OFFCURVE",
"614 856 CURVE SMOOTH",
"420 915 OFFCURVE",
"344 896 OFFCURVE",
"193 733 CURVE SMOOTH",
"189 728 OFFCURVE",
"187 723 OFFCURVE",
"189 718 CURVE SMOOTH",
"224 623 LINE SMOOTH",
"230 607 OFFCURVE",
"247 604 OFFCURVE",
"260 616 CURVE SMOOTH",
"376 731 OFFCURVE",
"422 726 OFFCURVE",
"541 689 CURVE SMOOTH",
"795 610 LINE",
"468 499 OFFCURVE",
"177 193 OFFCURVE",
"173 -180 CURVE SMOOTH",
"166 -740 OFFCURVE",
"635 -761 OFFCURVE",
"1057 -699 CURVE SMOOTH"
);
}
);
width = 1281;
},
{
anchors = (
{
name = bottom;
position = "{748, -898}";
},
{
name = center;
position = "{668, -106}";
},
{
name = top;
position = "{461, 1049}";
}
);
layerId = "00FED3EE-B3F5-49E6-B91A-35FC52169726";
paths = (
{
closed = 1;
nodes = (
"1198 -645 OFFCURVE",
"1244 -616 OFFCURVE",
"1298 -481 CURVE SMOOTH",
"1304 -457 OFFCURVE",
"1290 -444 OFFCURVE",
"1269 -444 CURVE SMOOTH",
"1237 -444 OFFCURVE",
"1042 -496 OFFCURVE",
"811 -496 CURVE SMOOTH",
"533 -496 OFFCURVE",
"302 -401 OFFCURVE",
"302 -162 CURVE SMOOTH",
"302 77 OFFCURVE",
"470 284 OFFCURVE",
"708 390 CURVE",
"793 142 OFFCURVE",
"959 0 OFFCURVE",
"1187 0 CURVE SMOOTH",
"1266 0 LINE",
"1293 32 OFFCURVE",
"1306 63 OFFCURVE",
"1306 96 CURVE SMOOTH",
"1306 128 OFFCURVE",
"1293 159 OFFCURVE",
"1266 191 CURVE",
"1202 191 LINE SMOOTH",
"1079 191 OFFCURVE",
"900 239 OFFCURVE",
"829 434 CURVE",
"944 478 OFFCURVE",
"1068 480 OFFCURVE",
"1195 483 CURVE SMOOTH",
"1206 483 OFFCURVE",
"1215 490 OFFCURVE",
"1218 499 CURVE SMOOTH",
"1266 638 OFFCURVE",
"1274 658 OFFCURVE",
"1274 670 CURVE SMOOTH",
"1274 698 OFFCURVE",
"1228 696 OFFCURVE",
"1159 696 CURVE SMOOTH",
"791 696 OFFCURVE",
"641 849 OFFCURVE",
"452 849 CURVE SMOOTH",
"360 849 OFFCURVE",
"292 803 OFFCURVE",
"194 697 CURVE SMOOTH",
"186 689 OFFCURVE",
"186 683 OFFCURVE",
"189 673 CURVE SMOOTH",
"223 583 LINE SMOOTH",
"228 569 OFFCURVE",
"239 562 OFFCURVE",
"251 562 CURVE SMOOTH",
"258 562 OFFCURVE",
"266 565 OFFCURVE",
"273 572 CURVE SMOOTH",
"339 638 OFFCURVE",
"379 660 OFFCURVE",
"427 660 CURVE SMOOTH",
"465 660 OFFCURVE",
"478 655 OFFCURVE",
"766 573 CURVE",
"396 491 OFFCURVE",
"173 157 OFFCURVE",
"173 -175 CURVE SMOOTH",
"173 -589 OFFCURVE",
"429 -697 OFFCURVE",
"731 -697 CURVE SMOOTH",
"820 -697 OFFCURVE",
"912 -687 OFFCURVE",
"1003 -674 CURVE SMOOTH"
);
}
);
width = 1248;
},
{
anchors = (
{
name = bottom;
position = "{748, -898}";
},
{
name = center;
position = "{668, -106}";
},
{
name = top;
position = "{461, 1049}";
}
);
layerId = "E3174D42-D779-465D-8194-70AED922C337";
paths = (
{
closed = 1;
nodes = (
"1237 -444 OFFCURVE",
"1042 -496 OFFCURVE",
"811 -496 CURVE SMOOTH",
"533 -496 OFFCURVE",
"302 -401 OFFCURVE",
"302 -162 CURVE SMOOTH",
"302 77 OFFCURVE",
"470 284 OFFCURVE",
"708 390 CURVE",
"793 142 OFFCURVE",
"959 0 OFFCURVE",
"1187 0 CURVE SMOOTH",
"1258 0 LINE",
"1285 32 OFFCURVE",
"1297 64 OFFCURVE",
"1297 96 CURVE SMOOTH",
"1297 128 OFFCURVE",
"1285 159 OFFCURVE",
"1258 191 CURVE",
"1202 191 LINE SMOOTH",
"1079 191 OFFCURVE",
"900 239 OFFCURVE",
"829 434 CURVE",
"944 478 OFFCURVE",
"1068 480 OFFCURVE",
"1195 483 CURVE SMOOTH",
"1206 483 OFFCURVE",
"1215 490 OFFCURVE",
"1218 499 CURVE SMOOTH",
"1266 638 OFFCURVE",
"1274 658 OFFCURVE",
"1274 670 CURVE SMOOTH",
"1274 698 OFFCURVE",
"1228 696 OFFCURVE",
"1159 696 CURVE SMOOTH",
"791 696 OFFCURVE",
"641 849 OFFCURVE",
"452 849 CURVE SMOOTH",
"360 849 OFFCURVE",
"292 803 OFFCURVE",
"194 697 CURVE",
"186 689 OFFCURVE",
"186 683 OFFCURVE",
"189 673 CURVE",
"223 583 LINE SMOOTH",
"228 569 OFFCURVE",
"239 562 OFFCURVE",
"251 562 CURVE SMOOTH",
"258 562 OFFCURVE",
"266 565 OFFCURVE",
"273 572 CURVE SMOOTH",
"339 638 OFFCURVE",
"379 660 OFFCURVE",
"427 660 CURVE SMOOTH",
"465 660 OFFCURVE",
"478 655 OFFCURVE",
"766 573 CURVE",
"396 491 OFFCURVE",
"173 157 OFFCURVE",
"173 -175 CURVE SMOOTH",
"173 -589 OFFCURVE",
"429 -697 OFFCURVE",
"731 -697 CURVE SMOOTH",
"820 -697 OFFCURVE",
"912 -687 OFFCURVE",
"1003 -674 CURVE SMOOTH",
"1198 -645 OFFCURVE",
"1244 -616 OFFCURVE",
"1298 -481 CURVE",
"1304 -457 OFFCURVE",
"1290 -444 OFFCURVE",
"1269 -444 CURVE SMOOTH"
);
}
);
width = 1248;
},
{
anchors = (
{
name = bottom;
position = "{755, -892}";
},
{
name = center;
position = "{735, -90}";
},
{
name = top;
position = "{476, 1083}";
}
);
layerId = "AB6A8399-B57F-40CA-845C-76C4C0121470";
paths = (
{
closed = 1;
nodes = (
"1229 223 LINE SMOOTH",
"1066 223 OFFCURVE",
"940 300 OFFCURVE",
"882 437 CURVE",
"981 464 OFFCURVE",
"1090 480 OFFCURVE",
"1208 483 CURVE",
"1268 726 LINE",
"1149 729 LINE SMOOTH",
"817 737 OFFCURVE",
"669 881 OFFCURVE",
"478 881 CURVE SMOOTH",
"410 881 OFFCURVE",
"308 817 OFFCURVE",
"222 726 CURVE",
"314 567 LINE",
"377 620 OFFCURVE",
"431 660 OFFCURVE",
"473 660 CURVE SMOOTH",
"504 660 OFFCURVE",
"500 659 OFFCURVE",
"742 590 CURVE",
"417 491 OFFCURVE",
"180 185 OFFCURVE",
"180 -162 CURVE SMOOTH",
"180 -521 OFFCURVE",
"369 -697 OFFCURVE",
"755 -697 CURVE SMOOTH",
"870 -697 OFFCURVE",
"1082 -674 OFFCURVE",
"1181 -643 CURVE",
"1238 -421 LINE",
"1159 -436 OFFCURVE",
"1016 -465 OFFCURVE",
"845 -465 CURVE SMOOTH",
"529 -465 OFFCURVE",
"349 -349 OFFCURVE",
"349 -146 CURVE SMOOTH",
"349 82 OFFCURVE",
"491 269 OFFCURVE",
"724 379 CURVE",
"815 135 OFFCURVE",
"988 0 OFFCURVE",
"1214 0 CURVE SMOOTH",
"1305 0 LINE",
"1340 35 OFFCURVE",
"1355 72 OFFCURVE",
"1355 112 CURVE SMOOTH",
"1355 152 OFFCURVE",
"1340 188 OFFCURVE",
"1305 223 CURVE"
);
}
);
width = 1290;
},
{
anchors = (
{
name = bottom;
position = "{780, -912}";
},
{
name = center;
position = "{760, -90}";
},
{
name = top;
position = "{501, 1143}";
}
);
layerId = "EAE1A523-EADE-4FB1-A034-E66E80F3AE4F";
paths = (
{
closed = 1;
nodes = (
"1254 273 LINE SMOOTH",
"1111 273 OFFCURVE",
"1001 335 OFFCURVE",
"942 445 CURVE",
"1039 469 OFFCURVE",
"1143 482 OFFCURVE",
"1253 483 CURVE",
"1325 775 LINE",
"1175 779 LINE SMOOTH",
"854 788 OFFCURVE",
"701 931 OFFCURVE",
"503 931 CURVE SMOOTH",
"426 931 OFFCURVE",
"312 861 OFFCURVE",
"216 754 CURVE",
"332 554 LINE",
"422 631 OFFCURVE",
"451 660 OFFCURVE",
"498 660 CURVE SMOOTH",
"543 660 OFFCURVE",
"551 659 OFFCURVE",
"684 612 CURVE",
"384 487 OFFCURVE",
"180 189 OFFCURVE",
"180 -137 CURVE SMOOTH",
"180 -510 OFFCURVE",
"380 -697 OFFCURVE",
"780 -697 CURVE SMOOTH",
"902 -697 OFFCURVE",
"1132 -671 OFFCURVE",
"1227 -637 CURVE",
"1297 -365 LINE",
"1232 -374 OFFCURVE",
"1071 -415 OFFCURVE",
"870 -415 CURVE SMOOTH",
"568 -415 OFFCURVE",
"399 -308 OFFCURVE",
"399 -121 CURVE SMOOTH",
"399 84 OFFCURVE",
"520 259 OFFCURVE",
"736 370 CURVE",
"833 132 OFFCURVE",
"1011 0 OFFCURVE",
"1239 0 CURVE SMOOTH",
"1345 0 LINE",
"1388 39 OFFCURVE",
"1410 86 OFFCURVE",
"1410 137 CURVE SMOOTH",
"1410 188 OFFCURVE",
"1388 233 OFFCURVE",
"1345 273 CURVE"
);
}
);
width = 1315;
}
);
unicode = FEA2;
},
{
glyphname = "hah-ar.medi";
lastChange = "2016-09-06 19:34:30 +0000";
layers = (
{
anchors = (
{
name = bottom;
position = "{770, -132}";
},
{
name = top;
position = "{516, 968}";
}
);
layerId = "93A312F7-B931-4485-B08E-C367313EB5E7";
paths = (
{
closed = 1;
nodes = (
"352 0 OFFCURVE",
"679 146 OFFCURVE",
"964 253 CURVE SMOOTH",
"1012 271 OFFCURVE",
"1056 286 OFFCURVE",
"1095 298 CURVE",
"1193 141 OFFCURVE",
"1303 0 OFFCURVE",
"1561 0 CURVE SMOOTH",
"1627 0 LINE",
"1675 60 OFFCURVE",
"1675 119 OFFCURVE",
"1627 179 CURVE",
"1561 179 LINE SMOOTH",
"1402 179 OFFCURVE",
"1306 236 OFFCURVE",
"1245 328 CURVE",
"1312 335 OFFCURVE",
"1373 331 OFFCURVE",
"1446 323 CURVE SMOOTH",
"1456 322 OFFCURVE",
"1462 328 OFFCURVE",
"1465 337 CURVE SMOOTH",
"1521 508 LINE SMOOTH",
"1525 521 OFFCURVE",
"1520 529 OFFCURVE",
"1506 528 CURVE SMOOTH",
"1264 516 OFFCURVE",
"1068 603 OFFCURVE",
"852 690 CURVE SMOOTH",
"561 807 OFFCURVE",
"454 844 OFFCURVE",
"268 643 CURVE SMOOTH",
"261 635 OFFCURVE",
"261 629 OFFCURVE",
"263 620 CURVE SMOOTH",
"298 508 LINE SMOOTH",
"302 496 OFFCURVE",
"311 494 OFFCURVE",
"321 504 CURVE SMOOTH",
"399 587 OFFCURVE",
"442 618 OFFCURVE",
"503 618 CURVE SMOOTH",
"623 618 OFFCURVE",
"887 476 OFFCURVE",
"1074 435 CURVE",
"833 368 OFFCURVE",
"439 179 OFFCURVE",
"0 179 CURVE SMOOTH",
"-20 179 LINE SMOOTH",
"-138 179 OFFCURVE",
"-138 0 OFFCURVE",
"-20 0 CURVE SMOOTH",
"0 0 LINE SMOOTH"
);
}
);
width = 1607;
},
{
anchors = (
{
name = bottom;
position = "{739, -186}";
},
{
name = top;
position = "{515, 977}";
}
);
layerId = "00FED3EE-B3F5-49E6-B91A-35FC52169726";
paths = (
{
closed = 1;
nodes = (
"397 0 OFFCURVE",
"841 219 OFFCURVE",
"1047 284 CURVE",
"1140 135 OFFCURVE",
"1250 0 OFFCURVE",
"1499 0 CURVE SMOOTH",
"1563 0 LINE",
"1590 32 OFFCURVE",
"1602 63 OFFCURVE",
"1602 96 CURVE SMOOTH",
"1602 128 OFFCURVE",
"1590 159 OFFCURVE",
"1563 191 CURVE",
"1499 191 LINE SMOOTH",
"1367 191 OFFCURVE",
"1275 237 OFFCURVE",
"1212 323 CURVE",
"1240 325 OFFCURVE",
"1267 326 OFFCURVE",
"1294 326 CURVE SMOOTH",
"1324 326 OFFCURVE",
"1354 325 OFFCURVE",
"1387 322 CURVE",
"1401 321 OFFCURVE",
"1410 328 OFFCURVE",
"1415 342 CURVE",
"1470 494 LINE SMOOTH",
"1471 498 OFFCURVE",
"1472 502 OFFCURVE",
"1472 505 CURVE SMOOTH",
"1472 527 OFFCURVE",
"1437 525 OFFCURVE",
"1393 525 CURVE SMOOTH",
"1021 525 OFFCURVE",
"738 780 OFFCURVE",
"503 780 CURVE SMOOTH",
"417 780 OFFCURVE",
"343 733 OFFCURVE",
"251 634 CURVE SMOOTH",
"241 622 OFFCURVE",
"240 616 OFFCURVE",
"243 603 CURVE SMOOTH",
"276 494 LINE SMOOTH",
"280 483 OFFCURVE",
"288 477 OFFCURVE",
"297 477 CURVE SMOOTH",
"302 477 OFFCURVE",
"309 480 OFFCURVE",
"315 487 CURVE SMOOTH",
"393 569 OFFCURVE",
"431 593 OFFCURVE",
"483 593 CURVE SMOOTH",
"588 593 OFFCURVE",
"845 474 OFFCURVE",
"1021 426 CURVE",
"788 355 OFFCURVE",
"399 191 OFFCURVE",
"0 191 CURVE SMOOTH",
"-19 191 LINE SMOOTH",
"-83 191 OFFCURVE",
"-113 143 OFFCURVE",
"-113 96 CURVE SMOOTH",
"-113 48 OFFCURVE",
"-83 0 OFFCURVE",
"-19 0 CURVE SMOOTH",
"0 0 LINE SMOOTH"
);
}
);
width = 1544;
},
{
anchors = (
{
name = bottom;
position = "{739, -186}";
},
{
name = top;
position = "{515, 977}";
}
);
layerId = "E3174D42-D779-465D-8194-70AED922C337";
paths = (
{
closed = 1;
nodes = (
"1499 191 LINE SMOOTH",
"1367 191 OFFCURVE",
"1275 237 OFFCURVE",
"1212 323 CURVE",
"1240 325 OFFCURVE",
"1267 326 OFFCURVE",
"1294 326 CURVE SMOOTH",
"1324 326 OFFCURVE",
"1354 325 OFFCURVE",
"1387 322 CURVE SMOOTH",
"1401 321 OFFCURVE",
"1410 328 OFFCURVE",
"1415 342 CURVE SMOOTH",
"1470 494 LINE",
"1471 498 OFFCURVE",
"1472 502 OFFCURVE",
"1472 505 CURVE SMOOTH",
"1472 527 OFFCURVE",
"1437 525 OFFCURVE",
"1393 525 CURVE SMOOTH",
"1021 525 OFFCURVE",
"738 780 OFFCURVE",
"503 780 CURVE SMOOTH",
"417 780 OFFCURVE",
"343 733 OFFCURVE",
"251 634 CURVE",
"241 622 OFFCURVE",
"240 616 OFFCURVE",
"243 603 CURVE",
"276 494 LINE",
"280 483 OFFCURVE",
"288 477 OFFCURVE",
"297 477 CURVE SMOOTH",
"302 477 OFFCURVE",
"309 480 OFFCURVE",
"315 487 CURVE",
"393 569 OFFCURVE",
"431 593 OFFCURVE",
"483 593 CURVE SMOOTH",
"588 593 OFFCURVE",
"845 474 OFFCURVE",
"1021 426 CURVE",
"788 355 OFFCURVE",
"399 191 OFFCURVE",
"10 191 CURVE SMOOTH",
"-10 191 LINE SMOOTH",
"-74 191 OFFCURVE",
"-104 143 OFFCURVE",
"-104 96 CURVE SMOOTH",
"-104 49 OFFCURVE",
"-74 0 OFFCURVE",
"-10 0 CURVE SMOOTH",
"10 0 LINE SMOOTH",
"397 0 OFFCURVE",
"841 219 OFFCURVE",
"1047 284 CURVE",
"1140 135 OFFCURVE",
"1250 0 OFFCURVE",
"1499 0 CURVE SMOOTH",
"1554 0 LINE",
"1581 32 OFFCURVE",
"1593 64 OFFCURVE",
"1593 96 CURVE SMOOTH",
"1593 128 OFFCURVE",
"1581 159 OFFCURVE",
"1554 191 CURVE"
);
}
);
width = 1544;
},
{
anchors = (
{
name = bottom;
position = "{649, -160}";
},
{
name = top;
position = "{502, 1013}";
}
);
layerId = "AB6A8399-B57F-40CA-845C-76C4C0121470";
paths = (
{
closed = 1;
nodes = (
"1499 223 LINE SMOOTH",
"1388 223 OFFCURVE",
"1308 255 OFFCURVE",
"1247 325 CURVE",
"1278 327 OFFCURVE",
"1350 325 OFFCURVE",
"1383 322 CURVE",
"1458 567 LINE",
"1403 567 LINE SMOOTH",
"1038 567 OFFCURVE",
"747 812 OFFCURVE",
"503 812 CURVE SMOOTH",
"428 812 OFFCURVE",
"324 757 OFFCURVE",
"239 683 CURVE",
"303 476 LINE",
"373 543 OFFCURVE",
"441 593 OFFCURVE",
"483 593 CURVE SMOOTH",
"573 593 OFFCURVE",
"792 496 OFFCURVE",
"965 441 CURVE",
"727 364 OFFCURVE",
"382 223 OFFCURVE",
"15 223 CURVE SMOOTH",
"-15 223 LINE SMOOTH",
"-75 223 OFFCURVE",
"-120 172 OFFCURVE",
"-120 112 CURVE SMOOTH",
"-120 52 OFFCURVE",
"-75 0 OFFCURVE",
"-15 0 CURVE SMOOTH",
"15 0 LINE SMOOTH",
"408 0 OFFCURVE",
"827 210 OFFCURVE",
"1037 280 CURVE",
"1129 136 OFFCURVE",
"1246 0 OFFCURVE",
"1499 0 CURVE SMOOTH",
"1574 0 LINE",
"1609 35 OFFCURVE",
"1624 72 OFFCURVE",
"1624 112 CURVE SMOOTH",
"1624 152 OFFCURVE",
"1609 188 OFFCURVE",
"1574 223 CURVE"
);
}
);
width = 1559;
},
{
anchors = (
{
name = bottom;
position = "{664, -200}";
},
{
name = top;
position = "{520, 1064}";
}
);
layerId = "EAE1A523-EADE-4FB1-A034-E66E80F3AE4F";
paths = (
{
closed = 1;
nodes = (
"1514 273 LINE SMOOTH",
"1435 273 OFFCURVE",
"1374 290 OFFCURVE",
"1325 325 CURVE",
"1351 325 OFFCURVE",
"1388 323 OFFCURVE",
"1414 320 CURVE",
"1507 617 LINE",
"1418 617 LINE SMOOTH",
"1061 617 OFFCURVE",
"771 862 OFFCURVE",
"518 862 CURVE SMOOTH",
"438 862 OFFCURVE",
"323 805 OFFCURVE",
"225 716 CURVE",
"306 454 LINE",
"394 543 OFFCURVE",
"464 593 OFFCURVE",
"498 593 CURVE SMOOTH",
"571 593 OFFCURVE",
"743 521 OFFCURVE",
"901 466 CURVE",
"668 387 OFFCURVE",
"357 273 OFFCURVE",
"30 273 CURVE SMOOTH",
"-30 273 LINE SMOOTH",
"-102 273 OFFCURVE",
"-160 212 OFFCURVE",
"-160 137 CURVE SMOOTH",
"-160 61 OFFCURVE",
"-102 0 OFFCURVE",
"-30 0 CURVE SMOOTH",
"30 0 LINE SMOOTH",
"417 0 OFFCURVE",
"827 200 OFFCURVE",
"1042 275 CURVE",
"1134 135 OFFCURVE",
"1260 0 OFFCURVE",
"1514 0 CURVE SMOOTH",
"1604 0 LINE",
"1647 39 OFFCURVE",
"1669 86 OFFCURVE",
"1669 137 CURVE SMOOTH",
"1669 188 OFFCURVE",
"1647 233 OFFCURVE",
"1604 273 CURVE"
);
}
);
width = 1574;
}
);
unicode = FEA4;
},
{
glyphname = "hah-ar.init";
lastChange = "2016-09-06 19:36:32 +0000";
layers = (
{
anchors = (
{
name = bottom;
position = "{719, -151}";
},
{
name = top;
position = "{508, 973}";
}
);
layerId = "93A312F7-B931-4485-B08E-C367313EB5E7";
paths = (
{
closed = 1;
nodes = (
"340 0 OFFCURVE",
"679 146 OFFCURVE",
"964 253 CURVE SMOOTH",
"1188 338 OFFCURVE",
"1291 340 OFFCURVE",
"1446 323 CURVE SMOOTH",
"1456 323 OFFCURVE",
"1462 328 OFFCURVE",
"1465 337 CURVE SMOOTH",
"1521 508 LINE SMOOTH",
"1525 521 OFFCURVE",
"1520 528 OFFCURVE",
"1506 528 CURVE SMOOTH",
"1264 516 OFFCURVE",
"1068 603 OFFCURVE",
"852 690 CURVE SMOOTH",
"561 807 OFFCURVE",
"454 856 OFFCURVE",
"268 643 CURVE SMOOTH",
"261 635 OFFCURVE",
"261 629 OFFCURVE",
"263 620 CURVE SMOOTH",
"298 508 LINE SMOOTH",
"301 496 OFFCURVE",
"312 493 OFFCURVE",
"321 504 CURVE SMOOTH",
"399 587 OFFCURVE",
"442 618 OFFCURVE",
"503 618 CURVE SMOOTH",
"623 618 OFFCURVE",
"887 476 OFFCURVE",
"1074 435 CURVE",
"833 368 OFFCURVE",
"439 179 OFFCURVE",
"0 179 CURVE SMOOTH",
"-20 179 LINE SMOOTH",
"-138 179 OFFCURVE",
"-138 0 OFFCURVE",
"-20 0 CURVE SMOOTH",
"0 0 LINE SMOOTH"
);
}
);
width = 1661;
},
{
anchors = (
{
name = bottom;
position = "{690, -184}";
},
{
name = top;
position = "{516, 972}";
}
);
layerId = "00FED3EE-B3F5-49E6-B91A-35FC52169726";
paths = (
{
closed = 1;
nodes = (
"328 0 OFFCURVE",
"656 141 OFFCURVE",
"929 244 CURVE SMOOTH",
"1092 304 OFFCURVE",
"1187 326 OFFCURVE",
"1287 326 CURVE SMOOTH",
"1318 326 OFFCURVE",
"1351 324 OFFCURVE",
"1386 321 CURVE SMOOTH",
"1400 320 OFFCURVE",
"1409 327 OFFCURVE",
"1414 341 CURVE SMOOTH",
"1470 494 LINE SMOOTH",
"1471 498 OFFCURVE",
"1472 502 OFFCURVE",
"1472 505 CURVE SMOOTH",
"1472 527 OFFCURVE",
"1437 525 OFFCURVE",
"1393 525 CURVE SMOOTH",
"1018 525 OFFCURVE",
"747 780 OFFCURVE",
"512 780 CURVE SMOOTH",
"425 780 OFFCURVE",
"343 733 OFFCURVE",
"251 634 CURVE SMOOTH",
"241 622 OFFCURVE",
"240 616 OFFCURVE",
"243 603 CURVE SMOOTH",
"276 494 LINE SMOOTH",
"279 484 OFFCURVE",
"288 478 OFFCURVE",
"297 478 CURVE SMOOTH",
"302 478 OFFCURVE",
"310 481 OFFCURVE",
"316 488 CURVE SMOOTH",
"393 569 OFFCURVE",
"431 593 OFFCURVE",
"483 593 CURVE SMOOTH",
"588 593 OFFCURVE",
"845 474 OFFCURVE",
"1021 426 CURVE",
"788 355 OFFCURVE",
"399 191 OFFCURVE",
"0 191 CURVE SMOOTH",
"-19 191 LINE SMOOTH",
"-83 191 OFFCURVE",
"-113 143 OFFCURVE",
"-113 96 CURVE SMOOTH",
"-113 48 OFFCURVE",
"-83 0 OFFCURVE",
"-19 0 CURVE SMOOTH",
"0 0 LINE SMOOTH"
);
}
);
width = 1607;
},
{
anchors = (
{
name = bottom;
position = "{690, -184}";
},
{
name = top;
position = "{516, 972}";
}
);
layerId = "E3174D42-D779-465D-8194-70AED922C337";
paths = (
{
closed = 1;
nodes = (
"1018 525 OFFCURVE",
"747 780 OFFCURVE",
"512 780 CURVE SMOOTH",
"425 780 OFFCURVE",
"343 733 OFFCURVE",
"251 634 CURVE",
"241 622 OFFCURVE",
"240 616 OFFCURVE",
"243 603 CURVE",
"276 494 LINE SMOOTH",
"279 484 OFFCURVE",
"288 478 OFFCURVE",
"297 478 CURVE SMOOTH",
"302 478 OFFCURVE",
"310 481 OFFCURVE",
"316 488 CURVE",
"393 569 OFFCURVE",
"431 593 OFFCURVE",
"483 593 CURVE SMOOTH",
"588 593 OFFCURVE",
"845 474 OFFCURVE",
"1021 426 CURVE",
"788 355 OFFCURVE",
"399 191 OFFCURVE",
"10 191 CURVE SMOOTH",
"-10 191 LINE SMOOTH",
"-74 191 OFFCURVE",
"-104 143 OFFCURVE",
"-104 96 CURVE SMOOTH",
"-104 49 OFFCURVE",
"-74 0 OFFCURVE",
"-10 0 CURVE SMOOTH",
"10 0 LINE SMOOTH",
"328 0 OFFCURVE",
"656 141 OFFCURVE",
"929 244 CURVE SMOOTH",
"1092 304 OFFCURVE",
"1187 326 OFFCURVE",
"1287 326 CURVE SMOOTH",
"1318 326 OFFCURVE",
"1351 324 OFFCURVE",
"1386 321 CURVE SMOOTH",
"1400 320 OFFCURVE",
"1409 327 OFFCURVE",
"1414 341 CURVE SMOOTH",
"1470 494 LINE",
"1471 498 OFFCURVE",
"1472 502 OFFCURVE",
"1472 505 CURVE SMOOTH",
"1472 527 OFFCURVE",
"1437 525 OFFCURVE",
"1393 525 CURVE SMOOTH"
);
}
);
width = 1607;
},
{
anchors = (
{
name = bottom;
position = "{670, -178}";
},
{
name = top;
position = "{506, 1013}";
}
);
layerId = "AB6A8399-B57F-40CA-845C-76C4C0121470";
paths = (
{
closed = 1;
nodes = (
"1038 567 OFFCURVE",
"747 812 OFFCURVE",
"503 812 CURVE SMOOTH",
"428 812 OFFCURVE",
"324 757 OFFCURVE",
"239 683 CURVE",
"303 476 LINE",
"373 543 OFFCURVE",
"441 593 OFFCURVE",
"483 593 CURVE SMOOTH",
"573 593 OFFCURVE",
"792 496 OFFCURVE",
"965 441 CURVE",
"727 364 OFFCURVE",
"382 223 OFFCURVE",
"15 223 CURVE SMOOTH",
"-15 223 LINE SMOOTH",
"-75 223 OFFCURVE",
"-120 172 OFFCURVE",
"-120 112 CURVE SMOOTH",
"-120 52 OFFCURVE",
"-75 0 OFFCURVE",
"-15 0 CURVE SMOOTH",
"15 0 LINE SMOOTH",
"408 0 OFFCURVE",
"827 211 OFFCURVE",
"1037 280 CURVE SMOOTH",
"1149 317 OFFCURVE",
"1350 325 OFFCURVE",
"1383 322 CURVE",
"1458 567 LINE",
"1403 567 LINE SMOOTH"
);
}
);
width = 1598;
},
{
anchors = (
{
name = bottom;
position = "{665, -198}";
},
{
name = top;
position = "{518, 1064}";
}
);
layerId = "EAE1A523-EADE-4FB1-A034-E66E80F3AE4F";
paths = (
{
closed = 1;
nodes = (
"30 0 LINE SMOOTH",
"428 0 OFFCURVE",
"851 212 OFFCURVE",
"1060 281 CURVE SMOOTH",
"1169 317 OFFCURVE",
"1384 325 OFFCURVE",
"1416 322 CURVE",
"1507 617 LINE",
"1418 617 LINE SMOOTH",
"1061 617 OFFCURVE",
"771 862 OFFCURVE",
"518 862 CURVE SMOOTH",
"438 862 OFFCURVE",
"323 805 OFFCURVE",
"225 716 CURVE",
"306 454 LINE",
"394 543 OFFCURVE",
"464 593 OFFCURVE",
"498 593 CURVE SMOOTH",
"571 593 OFFCURVE",
"743 521 OFFCURVE",
"901 466 CURVE",
"668 387 OFFCURVE",
"357 273 OFFCURVE",
"30 273 CURVE SMOOTH",
"-30 273 LINE SMOOTH",
"-102 273 OFFCURVE",
"-160 212 OFFCURVE",
"-160 137 CURVE SMOOTH",
"-160 61 OFFCURVE",
"-102 0 OFFCURVE",
"-30 0 CURVE SMOOTH"
);
}
);
width = 1647;
}
);
leftKerningGroup = all;
unicode = FEA3;
},
{
glyphname = "dal-ar";
lastChange = "2016-09-06 19:38:29 +0000";
layers = (
{
anchors = (
{
name = bottom;
position = "{491, -230}";
},
{
name = top;
position = "{599, 1158}";
}
);
layerId = "93A312F7-B931-4485-B08E-C367313EB5E7";
paths = (
{
closed = 1;
nodes = (
"562 -56 OFFCURVE",
"831 -9 OFFCURVE",
"918 53 CURVE SMOOTH",
"971 91 OFFCURVE",
"992 154 OFFCURVE",
"992 229 CURVE SMOOTH",
"995 430 OFFCURVE",
"919 553 OFFCURVE",
"645 975 CURVE SMOOTH",
"639 984 OFFCURVE",
"627 983 OFFCURVE",
"624 978 CURVE SMOOTH",
"541 836 LINE SMOOTH",
"536 828 OFFCURVE",
"536 819 OFFCURVE",
"542 811 CURVE SMOOTH",
"836 396 OFFCURVE",
"871 273 OFFCURVE",
"885 197 CURVE",
"737 142 OFFCURVE",
"518 106 OFFCURVE",
"343 127 CURVE SMOOTH",
"266 136 OFFCURVE",
"258 183 OFFCURVE",
"252 308 CURVE SMOOTH",
"251 320 OFFCURVE",
"244 325 OFFCURVE",
"234 325 CURVE SMOOTH",
"172 325 LINE SMOOTH",
"162 325 OFFCURVE",
"156 320 OFFCURVE",
"155 309 CURVE SMOOTH",
"139 120 OFFCURVE",
"144 -56 OFFCURVE",
"424 -56 CURVE SMOOTH"
);
}
);
width = 1129;
},
{
anchors = (
{
name = bottom;
position = "{529, -248}";
},
{
name = ring;
position = "{858, -145}";
},
{
name = top;
position = "{623, 1170}";
}
);
layerId = "00FED3EE-B3F5-49E6-B91A-35FC52169726";
paths = (
{
closed = 1;
nodes = (
"579 -38 OFFCURVE",
"840 8 OFFCURVE",
"925 68 CURVE SMOOTH",
"977 105 OFFCURVE",
"1000 168 OFFCURVE",
"1000 255 CURVE SMOOTH",
"1000 445 OFFCURVE",
"912 554 OFFCURVE",
"660 956 CURVE SMOOTH",
"656 964 OFFCURVE",
"648 968 OFFCURVE",
"640 968 CURVE SMOOTH",
"634 968 OFFCURVE",
"628 965 OFFCURVE",
"624 959 CURVE SMOOTH",
"549 832 LINE SMOOTH",
"546 828 OFFCURVE",
"544 822 OFFCURVE",
"544 816 CURVE SMOOTH",
"544 810 OFFCURVE",
"547 804 OFFCURVE",
"551 798 CURVE SMOOTH",
"811 407 OFFCURVE",
"862 294 OFFCURVE",
"877 220 CURVE",
"765 180 OFFCURVE",
"613 151 OFFCURVE",
"473 151 CURVE SMOOTH",
"306 151 OFFCURVE",
"300 159 OFFCURVE",
"290 321 CURVE SMOOTH",
"289 337 OFFCURVE",
"278 347 OFFCURVE",
"263 347 CURVE SMOOTH",
"204 347 LINE SMOOTH",
"188 347 OFFCURVE",
"179 338 OFFCURVE",
"178 323 CURVE SMOOTH",
"176 290 OFFCURVE",
"173 257 OFFCURVE",
"173 226 CURVE SMOOTH",
"173 82 OFFCURVE",
"217 -38 OFFCURVE",
"445 -38 CURVE SMOOTH"
);
}
);
width = 1135;
},
{
anchors = (
{
name = bottom;
position = "{529, -248}";
},
{
name = ring;
position = "{858, -145}";
},
{
name = top;
position = "{623, 1170}";
}
);
layerId = "E3174D42-D779-465D-8194-70AED922C337";
paths = (
{
closed = 1;
nodes = (
"579 -38 OFFCURVE",
"840 8 OFFCURVE",
"925 68 CURVE SMOOTH",
"977 105 OFFCURVE",
"1000 168 OFFCURVE",
"1000 255 CURVE SMOOTH",
"1000 445 OFFCURVE",
"912 554 OFFCURVE",
"660 956 CURVE SMOOTH",
"656 964 OFFCURVE",
"648 968 OFFCURVE",
"640 968 CURVE SMOOTH",
"634 968 OFFCURVE",
"628 965 OFFCURVE",
"624 959 CURVE SMOOTH",
"549 832 LINE SMOOTH",
"546 828 OFFCURVE",
"544 822 OFFCURVE",
"544 816 CURVE SMOOTH",
"544 810 OFFCURVE",
"547 804 OFFCURVE",
"551 798 CURVE SMOOTH",
"811 407 OFFCURVE",
"862 294 OFFCURVE",
"877 220 CURVE",
"765 180 OFFCURVE",
"613 151 OFFCURVE",
"473 151 CURVE SMOOTH",
"306 151 OFFCURVE",
"300 159 OFFCURVE",
"290 321 CURVE SMOOTH",
"289 337 OFFCURVE",
"278 347 OFFCURVE",
"263 347 CURVE SMOOTH",
"204 347 LINE SMOOTH",
"188 347 OFFCURVE",
"179 338 OFFCURVE",
"178 323 CURVE SMOOTH",
"176 290 OFFCURVE",
"173 257 OFFCURVE",
"173 226 CURVE SMOOTH",
"173 82 OFFCURVE",
"217 -38 OFFCURVE",
"445 -38 CURVE SMOOTH"
);
}
);
width = 1135;
},
{
anchors = (
{
name = bottom;
position = "{516, -235}";
},
{
name = ring;
position = "{985, -109}";
},
{
name = top;
position = "{690, 1176}";
}
);
layerId = "AB6A8399-B57F-40CA-845C-76C4C0121470";
paths = (
{
closed = 1;
nodes = (
"608 -38 OFFCURVE",
"876 8 OFFCURVE",
"964 71 CURVE SMOOTH",
"1020 111 OFFCURVE",
"1047 176 OFFCURVE",
"1047 271 CURVE SMOOTH",
"1047 465 OFFCURVE",
"957 577 OFFCURVE",
"705 978 CURVE",
"561 795 LINE",
"805 429 OFFCURVE",
"863 319 OFFCURVE",
"882 246 CURVE",
"766 206 OFFCURVE",
"624 183 OFFCURVE",
"500 183 CURVE SMOOTH",
"347 183 OFFCURVE",
"347 183 OFFCURVE",
"337 338 CURVE",
"185 340 LINE",
"183 307 OFFCURVE",
"180 274 OFFCURVE",
"180 242 CURVE SMOOTH",
"180 49 OFFCURVE",
"270 -38 OFFCURVE",
"472 -38 CURVE SMOOTH"
);
}
);
width = 1187;
},
{
anchors = (
{
name = bottom;
position = "{524, -237}";
},
{
name = ring;
position = "{777, -194}";
},
{
name = top;
position = "{730, 1254}";
}
);
layerId = "EAE1A523-EADE-4FB1-A034-E66E80F3AE4F";
paths = (
{
closed = 1;
nodes = (
"635 -38 OFFCURVE",
"911 10 OFFCURVE",
"1004 76 CURVE SMOOTH",
"1066 120 OFFCURVE",
"1097 194 OFFCURVE",
"1097 296 CURVE SMOOTH",
"1097 504 OFFCURVE",
"998 622 OFFCURVE",
"732 1046 CURVE",
"555 821 LINE",
"782 481 OFFCURVE",
"851 354 OFFCURVE",
"876 281 CURVE",
"803 252 OFFCURVE",
"692 232 OFFCURVE",
"520 231 CURVE SMOOTH",
"399 230 OFFCURVE",
"397 238 OFFCURVE",
"389 392 CURVE",
"186 390 LINE",
"185 351 OFFCURVE",
"180 308 OFFCURVE",
"180 267 CURVE SMOOTH",
"180 59 OFFCURVE",
"281 -38 OFFCURVE",
"497 -38 CURVE SMOOTH"
);
}
);
width = 1237;
}
);
leftKerningGroup = all;
unicode = 062F;
},
{
glyphname = "dal-ar.fina";
lastChange = "2016-09-06 19:40:26 +0000";
layers = (
{
anchors = (
{
name = bottom;
position = "{491, -230}";
},
{
name = top;
position = "{857, 1198}";
}
);
layerId = "93A312F7-B931-4485-B08E-C367313EB5E7";
paths = (
{
closed = 1;
nodes = (
"562 -56 OFFCURVE",
"806 -9 OFFCURVE",
"892 53 CURVE SMOOTH",
"928 78 OFFCURVE",
"948 115 OFFCURVE",
"957 159 CURVE SMOOTH",
"959 171 OFFCURVE",
"964 171 OFFCURVE",
"969 160 CURVE SMOOTH",
"1020 47 OFFCURVE",
"1119 0 OFFCURVE",
"1243 0 CURVE SMOOTH",
"1309 0 LINE",
"1357 60 OFFCURVE",
"1357 119 OFFCURVE",
"1309 179 CURVE",
"1257 179 LINE SMOOTH",
"1055 179 OFFCURVE",
"1005 248 OFFCURVE",
"960 526 CURVE SMOOTH",
"881 1012 LINE SMOOTH",
"879 1025 OFFCURVE",
"869 1029 OFFCURVE",
"859 1021 CURVE SMOOTH",
"739 930 LINE SMOOTH",
"733 925 OFFCURVE",
"728 919 OFFCURVE",
"730 908 CURVE SMOOTH",
"864 205 LINE",
"866 193 OFFCURVE",
"861 187 OFFCURVE",
"852 184 CURVE",
"705 139 OFFCURVE",
"492 107 OFFCURVE",
"346 128 CURVE",
"270 139 OFFCURVE",
"262 166 OFFCURVE",
"255 291 CURVE SMOOTH",
"253 322 OFFCURVE",
"252 325 OFFCURVE",
"234 325 CURVE SMOOTH",
"172 325 LINE SMOOTH",
"162 325 OFFCURVE",
"156 320 OFFCURVE",
"155 309 CURVE SMOOTH",
"139 120 OFFCURVE",
"145 -56 OFFCURVE",
"424 -56 CURVE SMOOTH"
);
}
);
width = 1289;
},
{
anchors = (
{
name = bottom;
position = "{510, -240}";
},
{
name = ring;
position = "{835, -160}";
},
{
name = top;
position = "{861, 1178}";
}
);
layerId = "00FED3EE-B3F5-49E6-B91A-35FC52169726";
paths = (
{
closed = 1;
nodes = (
"1009 57 OFFCURVE",
"1099 0 OFFCURVE",
"1232 0 CURVE SMOOTH",
"1296 0 LINE",
"1323 32 OFFCURVE",
"1335 63 OFFCURVE",
"1335 96 CURVE SMOOTH",
"1335 128 OFFCURVE",
"1323 159 OFFCURVE",
"1296 191 CURVE",
"1245 191 LINE SMOOTH",
"1061 191 OFFCURVE",
"1014 248 OFFCURVE",
"970 516 CURVE SMOOTH",
"899 948 LINE SMOOTH",
"897 961 OFFCURVE",
"888 969 OFFCURVE",
"877 969 CURVE SMOOTH",
"873 969 OFFCURVE",
"867 967 OFFCURVE",
"862 963 CURVE SMOOTH",
"747 876 LINE SMOOTH",
"737 869 OFFCURVE",
"734 860 OFFCURVE",
"734 851 CURVE",
"858 204 LINE",
"859 199 OFFCURVE",
"858 197 OFFCURVE",
"853 195 CURVE SMOOTH",
"744 162 OFFCURVE",
"595 151 OFFCURVE",
"469 151 CURVE SMOOTH",
"314 151 OFFCURVE",
"300 158 OFFCURVE",
"293 305 CURVE SMOOTH",
"291 340 OFFCURVE",
"286 347 OFFCURVE",
"263 347 CURVE SMOOTH",
"204 347 LINE SMOOTH",
"188 347 OFFCURVE",
"179 338 OFFCURVE",
"178 323 CURVE SMOOTH",
"176 290 OFFCURVE",
"173 258 OFFCURVE",
"173 227 CURVE SMOOTH",
"173 83 OFFCURVE",
"217 -38 OFFCURVE",
"445 -38 CURVE SMOOTH",
"579 -38 OFFCURVE",
"816 -8 OFFCURVE",
"900 53 CURVE SMOOTH",
"934 77 OFFCURVE",
"953 112 OFFCURVE",
"963 159 CURVE"
);
}
);
width = 1277;
},
{
anchors = (
{
name = bottom;
position = "{510, -240}";
},
{
name = ring;
position = "{835, -160}";
},
{
name = top;
position = "{861, 1178}";
}
);
layerId = "E3174D42-D779-465D-8194-70AED922C337";
paths = (
{
closed = 1;
nodes = (
"1245 191 LINE SMOOTH",
"1061 191 OFFCURVE",
"1014 248 OFFCURVE",
"970 516 CURVE SMOOTH",
"899 948 LINE SMOOTH",
"897 961 OFFCURVE",
"888 969 OFFCURVE",
"877 969 CURVE SMOOTH",
"873 969 OFFCURVE",
"867 967 OFFCURVE",
"862 963 CURVE SMOOTH",
"747 876 LINE",
"737 869 OFFCURVE",
"734 860 OFFCURVE",
"734 851 CURVE",
"858 204 LINE SMOOTH",
"859 199 OFFCURVE",
"858 197 OFFCURVE",
"853 195 CURVE",
"744 162 OFFCURVE",
"595 151 OFFCURVE",
"469 151 CURVE SMOOTH",
"314 151 OFFCURVE",
"300 158 OFFCURVE",
"293 305 CURVE SMOOTH",
"291 340 OFFCURVE",
"286 347 OFFCURVE",
"263 347 CURVE SMOOTH",
"204 347 LINE SMOOTH",
"188 347 OFFCURVE",
"179 338 OFFCURVE",
"178 323 CURVE SMOOTH",
"176 290 OFFCURVE",
"173 258 OFFCURVE",
"173 227 CURVE SMOOTH",
"173 83 OFFCURVE",
"217 -38 OFFCURVE",
"445 -38 CURVE SMOOTH",
"579 -38 OFFCURVE",
"816 -8 OFFCURVE",
"900 53 CURVE SMOOTH",
"934 77 OFFCURVE",
"953 112 OFFCURVE",
"963 159 CURVE",
"1009 57 OFFCURVE",
"1099 0 OFFCURVE",
"1232 0 CURVE SMOOTH",
"1287 0 LINE",
"1314 32 OFFCURVE",
"1326 64 OFFCURVE",
"1326 96 CURVE SMOOTH",
"1326 128 OFFCURVE",
"1314 159 OFFCURVE",
"1287 191 CURVE"
);
}
);
width = 1277;
},
{
anchors = (
{
name = bottom;
position = "{499, -237}";
},
{
name = ring;
position = "{892, -154}";
},
{
name = top;
position = "{878, 1154}";
}
);
layerId = "AB6A8399-B57F-40CA-845C-76C4C0121470";
paths = (
{
closed = 1;
nodes = (
"1272 223 LINE SMOOTH",
"1101 223 OFFCURVE",
"1060 272 OFFCURVE",
"1017 535 CURVE SMOOTH",
"946 967 LINE",
"741 866 LINE",
"864 224 LINE",
"758 193 OFFCURVE",
"617 183 OFFCURVE",
"496 183 CURVE SMOOTH",
"351 183 OFFCURVE",
"346 206 OFFCURVE",
"340 342 CURVE",
"183 340 LINE",
"181 306 OFFCURVE",
"180 275 OFFCURVE",
"180 243 CURVE SMOOTH",
"180 50 OFFCURVE",
"270 -38 OFFCURVE",
"472 -38 CURVE SMOOTH",
"608 -38 OFFCURVE",
"852 -7 OFFCURVE",
"939 56 CURVE SMOOTH",
"964 74 OFFCURVE",
"982 97 OFFCURVE",
"995 126 CURVE",
"1050 44 OFFCURVE",
"1141 0 OFFCURVE",
"1259 0 CURVE SMOOTH",
"1363 0 LINE",
"1398 35 OFFCURVE",
"1413 72 OFFCURVE",
"1413 112 CURVE SMOOTH",
"1413 152 OFFCURVE",
"1398 188 OFFCURVE",
"1363 223 CURVE"
);
}
);
width = 1348;
},
{
anchors = (
{
name = bottom;
position = "{524, -237}";
},
{
name = ring;
position = "{767, -204}";
},
{
name = top;
position = "{893, 1224}";
}
);
layerId = "EAE1A523-EADE-4FB1-A034-E66E80F3AE4F";
paths = (
{
closed = 1;
nodes = (
"1297 273 LINE SMOOTH",
"1141 273 OFFCURVE",
"1109 312 OFFCURVE",
"1067 564 CURVE SMOOTH",
"990 1029 LINE",
"738 905 LINE",
"860 267 LINE",
"773 245 OFFCURVE",
"655 233 OFFCURVE",
"521 233 CURVE SMOOTH",
"398 233 OFFCURVE",
"396 238 OFFCURVE",
"389 392 CURVE",
"185 390 LINE",
"182 346 OFFCURVE",
"180 308 OFFCURVE",
"180 268 CURVE SMOOTH",
"180 60 OFFCURVE",
"282 -38 OFFCURVE",
"497 -38 CURVE SMOOTH",
"635 -38 OFFCURVE",
"885 -5 OFFCURVE",
"979 61 CURVE SMOOTH",
"996 73 OFFCURVE",
"1011 88 OFFCURVE",
"1023 106 CURVE",
"1084 37 OFFCURVE",
"1174 0 OFFCURVE",
"1284 0 CURVE SMOOTH",
"1403 0 LINE",
"1446 39 OFFCURVE",
"1468 86 OFFCURVE",
"1468 137 CURVE SMOOTH",
"1468 188 OFFCURVE",
"1446 233 OFFCURVE",
"1403 273 CURVE"
);
}
);
width = 1373;
}
);
unicode = FEAA;
userData = {
com.typemytype.robofont.guides = (
{
angle = 0;
isGlobal = 0;
x = 2480;
y = "-225";
}
);
};
},
{
glyphname = "reh-ar";
lastChange = "2016-09-06 19:25:16 +0000";
layers = (
{
anchors = (
{
name = bottom;
position = "{304, -650}";
},
{
name = top;
position = "{563, 976}";
}
);
layerId = "93A312F7-B931-4485-B08E-C367313EB5E7";
paths = (
{
closed = 1;
nodes = (
"618 -319 OFFCURVE",
"756 -88 OFFCURVE",
"778 126 CURVE SMOOTH",
"792 265 OFFCURVE",
"724 472 OFFCURVE",
"669 692 CURVE SMOOTH",
"666 704 OFFCURVE",
"655 705 OFFCURVE",
"646 696 CURVE SMOOTH",
"542 592 LINE SMOOTH",
"536 585 OFFCURVE",
"533 578 OFFCURVE",
"536 569 CURVE SMOOTH",
"679 127 LINE SMOOTH",
"682 118 OFFCURVE",
"681 112 OFFCURVE",
"678 104 CURVE SMOOTH",
"539 -211 OFFCURVE",
"352 -357 OFFCURVE",
"-35 -272 CURVE SMOOTH",
"-46 -270 OFFCURVE",
"-53 -277 OFFCURVE",
"-56 -287 CURVE SMOOTH",
"-79 -354 LINE SMOOTH",
"-82 -363 OFFCURVE",
"-77 -369 OFFCURVE",
"-66 -373 CURVE SMOOTH",
"171 -452 OFFCURVE",
"336 -477 OFFCURVE",
"476 -398 CURVE SMOOTH"
);
}
);
width = 918;
},
{
anchors = (
{
name = bottom;
position = "{287, -614}";
},
{
name = ring;
position = "{569, -479}";
},
{
name = top;
position = "{593, 899}";
}
);
layerId = "00FED3EE-B3F5-49E6-B91A-35FC52169726";
paths = (
{
closed = 1;
nodes = (
"624 -283 OFFCURVE",
"754 -12 OFFCURVE",
"754 180 CURVE SMOOTH",
"754 313 OFFCURVE",
"695 495 OFFCURVE",
"647 685 CURVE SMOOTH",
"643 702 OFFCURVE",
"625 710 OFFCURVE",
"609 694 CURVE SMOOTH",
"509 594 LINE SMOOTH",
"503 588 OFFCURVE",
"499 582 OFFCURVE",
"499 573 CURVE",
"637 138 LINE",
"639 132 OFFCURVE",
"639 130 OFFCURVE",
"637 123 CURVE SMOOTH",
"529 -139 OFFCURVE",
"386 -255 OFFCURVE",
"164 -255 CURVE SMOOTH",
"106 -255 OFFCURVE",
"42 -248 OFFCURVE",
"-27 -232 CURVE SMOOTH",
"-41 -229 OFFCURVE",
"-54 -238 OFFCURVE",
"-59 -253 CURVE",
"-82 -326 LINE",
"-83 -336 OFFCURVE",
"-74 -344 OFFCURVE",
"-61 -348 CURVE SMOOTH",
"70 -392 OFFCURVE",
"180 -419 OFFCURVE",
"276 -419 CURVE SMOOTH",
"346 -419 OFFCURVE",
"408 -404 OFFCURVE",
"467 -372 CURVE SMOOTH"
);
}
);
width = 889;
},
{
anchors = (
{
name = bottom;
position = "{287, -614}";
},
{
name = ring;
position = "{569, -479}";
},
{
name = top;
position = "{593, 899}";
}
);
layerId = "E3174D42-D779-465D-8194-70AED922C337";
paths = (
{
closed = 1;
nodes = (
"624 -283 OFFCURVE",
"754 -12 OFFCURVE",
"754 180 CURVE SMOOTH",
"754 313 OFFCURVE",
"695 495 OFFCURVE",
"647 685 CURVE SMOOTH",
"643 702 OFFCURVE",
"625 710 OFFCURVE",
"609 694 CURVE SMOOTH",
"509 594 LINE SMOOTH",
"503 588 OFFCURVE",
"499 582 OFFCURVE",
"499 573 CURVE",
"637 138 LINE",
"639 132 OFFCURVE",
"639 130 OFFCURVE",
"637 123 CURVE SMOOTH",
"529 -139 OFFCURVE",
"386 -255 OFFCURVE",
"164 -255 CURVE SMOOTH",
"106 -255 OFFCURVE",
"42 -248 OFFCURVE",
"-27 -232 CURVE SMOOTH",
"-41 -229 OFFCURVE",
"-54 -238 OFFCURVE",
"-59 -253 CURVE",
"-82 -326 LINE",
"-83 -336 OFFCURVE",
"-74 -344 OFFCURVE",
"-61 -348 CURVE SMOOTH",
"70 -392 OFFCURVE",
"180 -419 OFFCURVE",
"276 -419 CURVE SMOOTH",
"346 -419 OFFCURVE",
"408 -404 OFFCURVE",
"467 -372 CURVE SMOOTH"
);
}
);
width = 889;
},
{
anchors = (
{
name = bottom;
position = "{287, -634}";
},
{
name = ring;
position = "{639, -459}";
},
{
name = top;
position = "{593, 869}";
}
);
layerId = "AB6A8399-B57F-40CA-845C-76C4C0121470";
paths = (
{
closed = 1;
nodes = (
"-43 -371 LINE",
"92 -415 OFFCURVE",
"191 -435 OFFCURVE",
"276 -435 CURVE SMOOTH",
"350 -435 OFFCURVE",
"416 -419 OFFCURVE",
"477 -386 CURVE SMOOTH",
"634 -297 OFFCURVE",
"774 -28 OFFCURVE",
"774 180 CURVE SMOOTH",
"774 315 OFFCURVE",
"715 498 OFFCURVE",
"666 689 CURVE",
"479 571 LINE",
"618 127 LINE",
"511 -130 OFFCURVE",
"375 -239 OFFCURVE",
"164 -239 CURVE SMOOTH",
"109 -239 OFFCURVE",
"53 -232 OFFCURVE",
"-6 -220 CURVE"
);
}
);
width = 914;
},
{
anchors = (
{
name = bottom;
position = "{317, -654}";
},
{
name = ring;
position = "{669, -459}";
},
{
name = top;
position = "{633, 949}";
}
);
layerId = "EAE1A523-EADE-4FB1-A034-E66E80F3AE4F";
paths = (
{
closed = 1;
nodes = (
"-43 -362 LINE",
"107 -413 OFFCURVE",
"214 -435 OFFCURVE",
"306 -435 CURVE SMOOTH",
"384 -435 OFFCURVE",
"455 -418 OFFCURVE",
"519 -383 CURVE SMOOTH",
"684 -293 OFFCURVE",
"829 -13 OFFCURVE",
"829 205 CURVE SMOOTH",
"829 352 OFFCURVE",
"762 552 OFFCURVE",
"712 754 CURVE",
"479 607 LINE",
"621 153 LINE",
"519 -89 OFFCURVE",
"393 -189 OFFCURVE",
"194 -189 CURVE SMOOTH",
"138 -189 OFFCURVE",
"77 -182 OFFCURVE",
"5 -165 CURVE"
);
}
);
width = 969;
}
);
leftKerningGroup = r;
rightKerningGroup = r;
unicode = 0631;
userData = {
com.typemytype.robofont.guides = (
{
angle = 0;
isGlobal = 0;
x = "-844";
y = "-463";
}
);
};
},
{
glyphname = "reh-ar.fina";
lastChange = "2016-09-06 19:25:33 +0000";
layers = (
{
anchors = (
{
name = bottom;
position = "{293, -650}";
},
{
name = top;
position = "{603, 857}";
}
);
layerId = "93A312F7-B931-4485-B08E-C367313EB5E7";
paths = (
{
closed = 1;
nodes = (
"579 -371 OFFCURVE",
"749 -115 OFFCURVE",
"775 103 CURVE",
"836 29 OFFCURVE",
"911 0 OFFCURVE",
"1012 0 CURVE SMOOTH",
"1139 0 LINE",
"1187 60 OFFCURVE",
"1187 119 OFFCURVE",
"1139 179 CURVE",
"1012 179 LINE SMOOTH",
"825 179 OFFCURVE",
"787 259 OFFCURVE",
"725 522 CURVE SMOOTH",
"689 675 LINE SMOOTH",
"685 692 OFFCURVE",
"670 698 OFFCURVE",
"657 687 CURVE SMOOTH",
"557 596 LINE SMOOTH",
"551 591 OFFCURVE",
"549 587 OFFCURVE",
"551 580 CURVE SMOOTH",
"667 99 LINE SMOOTH",
"669 91 OFFCURVE",
"668 84 OFFCURVE",
"665 77 CURVE SMOOTH",
"530 -253 OFFCURVE",
"339 -394 OFFCURVE",
"-35 -320 CURVE SMOOTH",
"-46 -318 OFFCURVE",
"-52 -325 OFFCURVE",
"-56 -335 CURVE SMOOTH",
"-79 -402 LINE SMOOTH",
"-82 -411 OFFCURVE",
"-77 -418 OFFCURVE",
"-66 -421 CURVE SMOOTH",
"171 -500 OFFCURVE",
"288 -523 OFFCURVE",
"430 -448 CURVE SMOOTH"
);
}
);
width = 1119;
},
{
anchors = (
{
name = bottom;
position = "{321, -672}";
},
{
name = ring;
position = "{603, -501}";
},
{
name = top;
position = "{648, 878}";
}
);
layerId = "00FED3EE-B3F5-49E6-B91A-35FC52169726";
paths = (
{
closed = 1;
nodes = (
"613 -342 OFFCURVE",
"757 -113 OFFCURVE",
"790 86 CURVE",
"846 27 OFFCURVE",
"916 0 OFFCURVE",
"1011 0 CURVE SMOOTH",
"1134 0 LINE",
"1161 32 OFFCURVE",
"1173 63 OFFCURVE",
"1173 96 CURVE SMOOTH",
"1173 128 OFFCURVE",
"1161 159 OFFCURVE",
"1134 191 CURVE",
"1011 191 LINE SMOOTH",
"837 191 OFFCURVE",
"804 261 OFFCURVE",
"745 513 CURVE SMOOTH",
"710 660 LINE SMOOTH",
"706 680 OFFCURVE",
"684 694 OFFCURVE",
"664 677 CURVE SMOOTH",
"567 588 LINE SMOOTH",
"562 584 OFFCURVE",
"558 578 OFFCURVE",
"558 570 CURVE",
"670 112 LINE",
"672 107 OFFCURVE",
"671 102 OFFCURVE",
"669 97 CURVE SMOOTH",
"565 -175 OFFCURVE",
"420 -297 OFFCURVE",
"188 -297 CURVE SMOOTH",
"135 -297 OFFCURVE",
"79 -291 OFFCURVE",
"17 -278 CURVE SMOOTH",
"3 -276 OFFCURVE",
"-9 -283 OFFCURVE",
"-13 -299 CURVE",
"-36 -372 LINE",
"-36 -382 OFFCURVE",
"-30 -390 OFFCURVE",
"-17 -395 CURVE SMOOTH",
"123 -441 OFFCURVE",
"217 -465 OFFCURVE",
"296 -465 CURVE SMOOTH",
"358 -465 OFFCURVE",
"410 -449 OFFCURVE",
"467 -420 CURVE SMOOTH"
);
}
);
width = 1115;
},
{
anchors = (
{
name = bottom;
position = "{321, -672}";
},
{
name = ring;
position = "{603, -501}";
},
{
name = top;
position = "{648, 878}";
}
);
layerId = "E3174D42-D779-465D-8194-70AED922C337";
paths = (
{
closed = 1;
nodes = (
"1011 191 LINE SMOOTH",
"837 191 OFFCURVE",
"804 261 OFFCURVE",
"745 513 CURVE SMOOTH",
"710 660 LINE",
"706 680 OFFCURVE",
"684 694 OFFCURVE",
"664 677 CURVE",
"567 588 LINE",
"562 584 OFFCURVE",
"558 578 OFFCURVE",
"558 570 CURVE",
"670 112 LINE",
"672 107 OFFCURVE",
"671 102 OFFCURVE",
"669 97 CURVE SMOOTH",
"565 -175 OFFCURVE",
"420 -297 OFFCURVE",
"188 -297 CURVE SMOOTH",
"135 -297 OFFCURVE",
"79 -291 OFFCURVE",
"17 -278 CURVE",
"3 -276 OFFCURVE",
"-9 -283 OFFCURVE",
"-13 -299 CURVE",
"-36 -372 LINE",
"-36 -382 OFFCURVE",
"-30 -390 OFFCURVE",
"-17 -395 CURVE",
"123 -441 OFFCURVE",
"217 -465 OFFCURVE",
"296 -465 CURVE SMOOTH",
"358 -465 OFFCURVE",
"410 -449 OFFCURVE",
"467 -420 CURVE SMOOTH",
"613 -342 OFFCURVE",
"757 -113 OFFCURVE",
"790 86 CURVE",
"846 27 OFFCURVE",
"916 0 OFFCURVE",
"1011 0 CURVE SMOOTH",
"1125 0 LINE",
"1152 32 OFFCURVE",
"1164 64 OFFCURVE",
"1164 96 CURVE SMOOTH",
"1164 128 OFFCURVE",
"1152 159 OFFCURVE",
"1125 191 CURVE"
);
}
);
width = 1115;
},
{
anchors = (
{
name = bottom;
position = "{320, -665}";
},
{
name = ring;
position = "{643, -495}";
},
{
name = top;
position = "{668, 894}";
}
);
layerId = "AB6A8399-B57F-40CA-845C-76C4C0121470";
paths = (
{
closed = 1;
nodes = (
"1011 223 LINE SMOOTH",
"861 223 OFFCURVE",
"819 264 OFFCURVE",
"764 533 CURVE SMOOTH",
"730 699 LINE",
"538 584 LINE",
"651 122 LINE",
"548 -147 OFFCURVE",
"413 -265 OFFCURVE",
"188 -265 CURVE SMOOTH",
"135 -265 OFFCURVE",
"81 -259 OFFCURVE",
"22 -246 CURVE",
"-23 -394 LINE",
"132 -445 OFFCURVE",
"221 -465 OFFCURVE",
"296 -465 CURVE SMOOTH",
"357 -465 OFFCURVE",
"413 -451 OFFCURVE",
"476 -418 CURVE SMOOTH",
"619 -343 OFFCURVE",
"759 -132 OFFCURVE",
"803 65 CURVE",
"857 21 OFFCURVE",
"926 0 OFFCURVE",
"1011 0 CURVE SMOOTH",
"1174 0 LINE",
"1209 35 OFFCURVE",
"1224 72 OFFCURVE",
"1224 112 CURVE SMOOTH",
"1224 152 OFFCURVE",
"1209 188 OFFCURVE",
"1174 223 CURVE"
);
}
);
width = 1159;
},
{
anchors = (
{
name = bottom;
position = "{320, -675}";
},
{
name = ring;
position = "{643, -495}";
},
{
name = top;
position = "{678, 974}";
}
);
layerId = "EAE1A523-EADE-4FB1-A034-E66E80F3AE4F";
paths = (
{
closed = 1;
nodes = (
"1011 273 LINE SMOOTH",
"872 273 OFFCURVE",
"839 311 OFFCURVE",
"788 563 CURVE SMOOTH",
"747 764 LINE",
"509 621 LINE",
"625 149 LINE",
"524 -110 OFFCURVE",
"397 -215 OFFCURVE",
"188 -215 CURVE SMOOTH",
"130 -215 OFFCURVE",
"71 -207 OFFCURVE",
"5 -191 CURVE",
"-54 -385 LINE",
"119 -443 OFFCURVE",
"215 -465 OFFCURVE",
"296 -465 CURVE SMOOTH",
"362 -465 OFFCURVE",
"423 -449 OFFCURVE",
"488 -415 CURVE SMOOTH",
"626 -343 OFFCURVE",
"764 -147 OFFCURVE",
"818 49 CURVE",
"871 16 OFFCURVE",
"936 0 OFFCURVE",
"1011 0 CURVE SMOOTH",
"1189 0 LINE",
"1232 39 OFFCURVE",
"1254 86 OFFCURVE",
"1254 137 CURVE SMOOTH",
"1254 188 OFFCURVE",
"1232 233 OFFCURVE",
"1189 273 CURVE"
);
}
);
width = 1159;
}
);
leftKerningGroup = r;
rightKerningGroup = r;
unicode = FEAE;
userData = {
com.typemytype.robofont.guides = (
{
angle = 0;
isGlobal = 0;
x = 618;
y = 606;
}
);
};
},
{
glyphname = "seen-ar";
lastChange = "2016-09-06 19:55:37 +0000";
layers = (
{
anchors = (
{
name = bottom;
position = "{706, -704}";
},
{
name = top;
position = "{742, 713}";
}
);
layerId = "93A312F7-B931-4485-B08E-C367313EB5E7";
paths = (
{
closed = 1;
nodes = (
"815 -531 OFFCURVE",
"1174 -437 OFFCURVE",
"1294 -271 CURVE SMOOTH",
"1346 -200 OFFCURVE",
"1339 -109 OFFCURVE",
"1327 22 CURVE",
"1436 -26 OFFCURVE",
"1773 -17 OFFCURVE",
"1862 95 CURVE",
"1947 43 OFFCURVE",
"2065 -3 OFFCURVE",
"2170 -6 CURVE SMOOTH",
"2414 -14 OFFCURVE",
"2517 46 OFFCURVE",
"2510 308 CURVE SMOOTH",
"2507 409 OFFCURVE",
"2474 670 OFFCURVE",
"2433 839 CURVE SMOOTH",
"2430 852 OFFCURVE",
"2419 854 OFFCURVE",
"2410 844 CURVE SMOOTH",
"2307 739 LINE SMOOTH",
"2301 733 OFFCURVE",
"2299 726 OFFCURVE",
"2301 716 CURVE SMOOTH",
"2413 213 LINE SMOOTH",
"2416 199 OFFCURVE",
"2406 188 OFFCURVE",
"2393 185 CURVE SMOOTH",
"2234 153 OFFCURVE",
"2098 164 OFFCURVE",
"1958 225 CURVE SMOOTH",
"1953 227 OFFCURVE",
"1948 233 OFFCURVE",
"1949 241 CURVE SMOOTH",
"1988 582 LINE SMOOTH",
"1989 593 OFFCURVE",
"1983 600 OFFCURVE",
"1972 601 CURVE SMOOTH",
"1898 607 LINE SMOOTH",
"1889 608 OFFCURVE",
"1882 603 OFFCURVE",
"1880 592 CURVE SMOOTH",
"1846 347 LINE SMOOTH",
"1826 201 OFFCURVE",
"1704 172 OFFCURVE",
"1546 174 CURVE SMOOTH",
"1403 176 OFFCURVE",
"1310 192 OFFCURVE",
"1294 302 CURVE SMOOTH",
"1256 569 LINE SMOOTH",
"1253 588 OFFCURVE",
"1236 593 OFFCURVE",
"1222 583 CURVE SMOOTH",
"1112 501 LINE SMOOTH",
"1108 498 OFFCURVE",
"1105 492 OFFCURVE",
"1106 486 CURVE SMOOTH",
"1213 -177 LINE SMOOTH",
"1214 -184 OFFCURVE",
"1211 -191 OFFCURVE",
"1204 -194 CURVE SMOOTH",
"1144 -222 OFFCURVE",
"881 -330 OFFCURVE",
"616 -330 CURVE SMOOTH",
"391 -330 OFFCURVE",
"251 -217 OFFCURVE",
"302 61 CURVE SMOOTH",
"337 251 LINE SMOOTH",
"339 262 OFFCURVE",
"331 270 OFFCURVE",
"321 271 CURVE SMOOTH",
"247 282 LINE SMOOTH",
"238 283 OFFCURVE",
"230 278 OFFCURVE",
"228 268 CURVE SMOOTH",
"186 38 LINE SMOOTH",
"133 -255 OFFCURVE",
"221 -531 OFFCURVE",
"589 -531 CURVE SMOOTH"
);
}
);
width = 2648;
},
{
anchors = (
{
name = bottom;
position = "{596, -705}";
},
{
name = top;
position = "{700, 678}";
}
);
layerId = "00FED3EE-B3F5-49E6-B91A-35FC52169726";
paths = (
{
closed = 1;
nodes = (
"801 -510 OFFCURVE",
"1150 -419 OFFCURVE",
"1267 -256 CURVE SMOOTH",
"1299 -213 OFFCURVE",
"1308 -162 OFFCURVE",
"1308 -100 CURVE SMOOTH",
"1308 -65 OFFCURVE",
"1306 -26 OFFCURVE",
"1302 16 CURVE",
"1342 3 OFFCURVE",
"1404 -5 OFFCURVE",
"1471 -5 CURVE SMOOTH",
"1598 -5 OFFCURVE",
"1747 23 OFFCURVE",
"1807 88 CURVE",
"1906 29 OFFCURVE",
"2017 -7 OFFCURVE",
"2137 -7 CURVE SMOOTH",
"2364 -7 OFFCURVE",
"2443 76 OFFCURVE",
"2436 305 CURVE SMOOTH",
"2434 403 OFFCURVE",
"2402 655 OFFCURVE",
"2363 817 CURVE SMOOTH",
"2360 829 OFFCURVE",
"2352 835 OFFCURVE",
"2342 835 CURVE SMOOTH",
"2337 835 OFFCURVE",
"2330 832 OFFCURVE",
"2324 827 CURVE SMOOTH",
"2225 726 LINE SMOOTH",
"2220 719 OFFCURVE",
"2216 711 OFFCURVE",
"2216 703 CURVE",
"2324 212 LINE",
"2326 205 OFFCURVE",
"2321 199 OFFCURVE",
"2313 197 CURVE SMOOTH",
"2258 186 OFFCURVE",
"2206 180 OFFCURVE",
"2156 180 CURVE SMOOTH",
"2067 180 OFFCURVE",
"1984 198 OFFCURVE",
"1901 234 CURVE SMOOTH",
"1899 235 OFFCURVE",
"1898 237 OFFCURVE",
"1898 240 CURVE SMOOTH",
"1937 574 LINE SMOOTH",
"1939 589 OFFCURVE",
"1929 602 OFFCURVE",
"1913 603 CURVE SMOOTH",
"1842 609 LINE SMOOTH",
"1828 610 OFFCURVE",
"1816 602 OFFCURVE",
"1814 587 CURVE SMOOTH",
"1780 344 LINE SMOOTH",
"1764 231 OFFCURVE",
"1686 186 OFFCURVE",
"1512 186 CURVE SMOOTH",
"1370 186 OFFCURVE",
"1283 200 OFFCURVE",
"1269 300 CURVE SMOOTH",
"1233 557 LINE SMOOTH",
"1230 574 OFFCURVE",
"1217 584 OFFCURVE",
"1204 584 CURVE SMOOTH",
"1197 584 OFFCURVE",
"1190 582 OFFCURVE",
"1185 577 CURVE SMOOTH",
"1079 498 LINE SMOOTH",
"1073 494 OFFCURVE",
"1069 485 OFFCURVE",
"1069 477 CURVE",
"1172 -162 LINE",
"1173 -165 OFFCURVE",
"1171 -167 OFFCURVE",
"1169 -168 CURVE SMOOTH",
"1112 -195 OFFCURVE",
"861 -298 OFFCURVE",
"609 -298 CURVE SMOOTH",
"410 -298 OFFCURVE",
"307 -206 OFFCURVE",
"307 -35 CURVE SMOOTH",
"307 22 OFFCURVE",
"314 49 OFFCURVE",
"350 249 CURVE SMOOTH",
"353 264 OFFCURVE",
"342 277 OFFCURVE",
"326 279 CURVE SMOOTH",
"255 290 LINE SMOOTH",
"241 292 OFFCURVE",
"229 283 OFFCURVE",
"227 269 CURVE SMOOTH",
"180 14 OFFCURVE",
"173 -13 OFFCURVE",
"173 -96 CURVE SMOOTH",
"173 -322 OFFCURVE",
"284 -510 OFFCURVE",
"583 -510 CURVE SMOOTH"
);
}
);
width = 2571;
},
{
anchors = (
{
name = bottom;
position = "{596, -705}";
},
{
name = top;
position = "{700, 678}";
}
);
layerId = "E3174D42-D779-465D-8194-70AED922C337";
paths = (
{
closed = 1;
nodes = (
"801 -510 OFFCURVE",
"1150 -419 OFFCURVE",
"1267 -256 CURVE SMOOTH",
"1299 -213 OFFCURVE",
"1308 -162 OFFCURVE",
"1308 -100 CURVE SMOOTH",
"1308 -65 OFFCURVE",
"1306 -26 OFFCURVE",
"1302 16 CURVE",
"1342 3 OFFCURVE",
"1404 -5 OFFCURVE",
"1471 -5 CURVE SMOOTH",
"1598 -5 OFFCURVE",
"1747 23 OFFCURVE",
"1807 88 CURVE",
"1906 29 OFFCURVE",
"2017 -7 OFFCURVE",
"2137 -7 CURVE SMOOTH",
"2364 -7 OFFCURVE",
"2443 76 OFFCURVE",
"2436 305 CURVE SMOOTH",
"2434 403 OFFCURVE",
"2402 655 OFFCURVE",
"2363 817 CURVE SMOOTH",
"2360 829 OFFCURVE",
"2352 835 OFFCURVE",
"2342 835 CURVE SMOOTH",
"2337 835 OFFCURVE",
"2330 832 OFFCURVE",
"2324 827 CURVE SMOOTH",
"2225 726 LINE SMOOTH",
"2220 719 OFFCURVE",
"2216 711 OFFCURVE",
"2216 703 CURVE",
"2324 212 LINE",
"2326 205 OFFCURVE",
"2321 199 OFFCURVE",
"2313 197 CURVE SMOOTH",
"2258 186 OFFCURVE",
"2206 180 OFFCURVE",
"2156 180 CURVE SMOOTH",
"2067 180 OFFCURVE",
"1984 198 OFFCURVE",
"1901 234 CURVE SMOOTH",
"1899 235 OFFCURVE",
"1898 237 OFFCURVE",
"1898 240 CURVE SMOOTH",
"1937 574 LINE SMOOTH",
"1939 589 OFFCURVE",
"1929 602 OFFCURVE",
"1913 603 CURVE SMOOTH",
"1842 609 LINE SMOOTH",
"1828 610 OFFCURVE",
"1816 602 OFFCURVE",
"1814 587 CURVE SMOOTH",
"1780 344 LINE SMOOTH",
"1764 231 OFFCURVE",
"1686 186 OFFCURVE",
"1512 186 CURVE SMOOTH",
"1370 186 OFFCURVE",
"1283 200 OFFCURVE",
"1269 300 CURVE SMOOTH",
"1233 557 LINE SMOOTH",
"1230 574 OFFCURVE",
"1217 584 OFFCURVE",
"1204 584 CURVE SMOOTH",
"1197 584 OFFCURVE",
"1190 582 OFFCURVE",
"1185 577 CURVE SMOOTH",
"1079 498 LINE SMOOTH",
"1073 494 OFFCURVE",
"1069 485 OFFCURVE",
"1069 477 CURVE",
"1172 -162 LINE",
"1173 -165 OFFCURVE",
"1171 -167 OFFCURVE",
"1169 -168 CURVE SMOOTH",
"1112 -195 OFFCURVE",
"861 -298 OFFCURVE",
"609 -298 CURVE SMOOTH",
"410 -298 OFFCURVE",
"307 -206 OFFCURVE",
"307 -35 CURVE SMOOTH",
"307 22 OFFCURVE",
"314 49 OFFCURVE",
"350 249 CURVE SMOOTH",
"353 264 OFFCURVE",
"342 277 OFFCURVE",
"326 279 CURVE SMOOTH",
"255 290 LINE SMOOTH",
"241 292 OFFCURVE",
"229 283 OFFCURVE",
"227 269 CURVE SMOOTH",
"180 14 OFFCURVE",
"173 -13 OFFCURVE",
"173 -96 CURVE SMOOTH",
"173 -322 OFFCURVE",
"284 -510 OFFCURVE",
"583 -510 CURVE SMOOTH"
);
}
);
width = 2571;
},
{
anchors = (
{
name = bottom;
position = "{613, -705}";
},
{
name = top;
position = "{697, 668}";
}
);
layerId = "AB6A8399-B57F-40CA-845C-76C4C0121470";
paths = (
{
closed = 1;
nodes = (
"180 -350 OFFCURVE",
"336 -506 OFFCURVE",
"610 -506 CURVE SMOOTH",
"831 -506 OFFCURVE",
"1190 -412 OFFCURVE",
"1310 -245 CURVE SMOOTH",
"1341 -202 OFFCURVE",
"1355 -153 OFFCURVE",
"1355 -80 CURVE SMOOTH",
"1355 -51 OFFCURVE",
"1354 -20 OFFCURVE",
"1351 13 CURVE",
"1391 4 OFFCURVE",
"1444 -1 OFFCURVE",
"1498 -1 CURVE SMOOTH",
"1644 -1 OFFCURVE",
"1776 33 OFFCURVE",
"1837 86 CURVE",
"1941 27 OFFCURVE",
"2052 -3 OFFCURVE",
"2164 -3 CURVE SMOOTH",
"2403 -3 OFFCURVE",
"2490 87 OFFCURVE",
"2483 325 CURVE SMOOTH",
"2480 424 OFFCURVE",
"2449 677 OFFCURVE",
"2409 841 CURVE",
"2223 722 LINE",
"2331 231 LINE",
"2276 221 OFFCURVE",
"2229 216 OFFCURVE",
"2183 216 CURVE SMOOTH",
"2101 216 OFFCURVE",
"2024 232 OFFCURVE",
"1946 265 CURVE",
"1984 592 LINE",
"1821 609 LINE",
"1787 366 LINE SMOOTH",
"1772 262 OFFCURVE",
"1705 222 OFFCURVE",
"1539 222 CURVE SMOOTH",
"1377 222 OFFCURVE",
"1326 245 OFFCURVE",
"1316 322 CURVE SMOOTH",
"1280 599 LINE",
"1280 600 LINE",
"1076 496 LINE",
"1178 -138 LINE",
"1107 -170 OFFCURVE",
"872 -262 OFFCURVE",
"636 -262 CURVE SMOOTH",
"449 -262 OFFCURVE",
"354 -178 OFFCURVE",
"354 -15 CURVE SMOOTH",
"354 40 OFFCURVE",
"361 66 OFFCURVE",
"397 266 CURVE",
"234 291 LINE",
"234 292 LINE",
"187 37 OFFCURVE",
"180 9 OFFCURVE",
"180 -76 CURVE SMOOTH"
);
},
{
closed = 1;
nodes = (
"1187 -134 LINE",
"1186 -135 LINE"
);
}
);
width = 2623;
},
{
anchors = (
{
name = bottom;
position = "{638, -725}";
},
{
name = top;
position = "{722, 698}";
}
);
layerId = "EAE1A523-EADE-4FB1-A034-E66E80F3AE4F";
paths = (
{
closed = 1;
nodes = (
"180 -338 OFFCURVE",
"347 -506 OFFCURVE",
"635 -506 CURVE SMOOTH",
"859 -506 OFFCURVE",
"1229 -408 OFFCURVE",
"1355 -235 CURVE SMOOTH",
"1390 -187 OFFCURVE",
"1405 -131 OFFCURVE",
"1405 -55 CURVE SMOOTH",
"1405 -33 OFFCURVE",
"1404 -12 OFFCURVE",
"1403 7 CURVE",
"1439 2 OFFCURVE",
"1481 -1 OFFCURVE",
"1523 -1 CURVE SMOOTH",
"1664 -1 OFFCURVE",
"1794 30 OFFCURVE",
"1864 81 CURVE",
"1967 26 OFFCURVE",
"2078 -3 OFFCURVE",
"2189 -3 CURVE SMOOTH",
"2442 -3 OFFCURVE",
"2540 98 OFFCURVE",
"2533 351 CURVE SMOOTH",
"2530 458 OFFCURVE",
"2494 744 OFFCURVE",
"2450 906 CURVE",
"2220 759 LINE",
"2326 276 LINE",
"2282 269 OFFCURVE",
"2244 266 OFFCURVE",
"2208 266 CURVE SMOOTH",
"2135 266 OFFCURVE",
"2067 279 OFFCURVE",
"1998 306 CURVE",
"2037 639 LINE",
"1825 661 LINE",
"1787 394 LINE SMOOTH",
"1774 305 OFFCURVE",
"1718 272 OFFCURVE",
"1564 272 CURVE SMOOTH",
"1413 272 OFFCURVE",
"1373 290 OFFCURVE",
"1366 350 CURVE SMOOTH",
"1330 666 LINE",
"1073 535 LINE",
"1175 -98 LINE",
"1089 -134 OFFCURVE",
"876 -212 OFFCURVE",
"661 -212 CURVE SMOOTH",
"488 -212 OFFCURVE",
"404 -139 OFFCURVE",
"404 10 CURVE SMOOTH",
"404 64 OFFCURVE",
"411 83 OFFCURVE",
"451 307 CURVE",
"236 329 LINE",
"189 74 OFFCURVE",
"180 36 OFFCURVE",
"180 -51 CURVE SMOOTH"
);
}
);
width = 2673;
}
);
leftKerningGroup = all;
unicode = 0633;
},
{
glyphname = "seen-ar.fina";
lastChange = "2016-09-06 19:55:23 +0000";
layers = (
{
anchors = (
{
name = bottom;
position = "{706, -704}";
},
{
name = top;
position = "{742, 713}";
}
);
layerId = "93A312F7-B931-4485-B08E-C367313EB5E7";
paths = (
{
closed = 1;
nodes = (
"816 -531 OFFCURVE",
"1175 -437 OFFCURVE",
"1295 -271 CURVE SMOOTH",
"1347 -200 OFFCURVE",
"1340 -110 OFFCURVE",
"1328 21 CURVE",
"1404 0 OFFCURVE",
"1490 -9 OFFCURVE",
"1561 -9 CURVE SMOOTH",
"1689 -8 OFFCURVE",
"1817 28 OFFCURVE",
"1864 87 CURVE",
"1949 35 OFFCURVE",
"2068 -1 OFFCURVE",
"2172 -3 CURVE SMOOTH",
"2337 -9 OFFCURVE",
"2456 16 OFFCURVE",
"2506 115 CURVE SMOOTH",
"2514 130 OFFCURVE",
"2528 132 OFFCURVE",
"2539 118 CURVE SMOOTH",
"2600 41 OFFCURVE",
"2688 0 OFFCURVE",
"2790 0 CURVE SMOOTH",
"2890 0 LINE",
"2938 60 OFFCURVE",
"2938 119 OFFCURVE",
"2890 179 CURVE",
"2790 179 LINE SMOOTH",
"2613 179 OFFCURVE",
"2578 260 OFFCURVE",
"2537 522 CURVE SMOOTH",
"2513 675 LINE SMOOTH",
"2511 691 OFFCURVE",
"2493 697 OFFCURVE",
"2481 687 CURVE SMOOTH",
"2381 607 LINE SMOOTH",
"2375 602 OFFCURVE",
"2374 598 OFFCURVE",
"2375 591 CURVE SMOOTH",
"2438 208 LINE SMOOTH",
"2440 198 OFFCURVE",
"2435 188 OFFCURVE",
"2424 186 CURVE SMOOTH",
"2260 154 OFFCURVE",
"2101 162 OFFCURVE",
"1961 228 CURVE SMOOTH",
"1954 231 OFFCURVE",
"1951 237 OFFCURVE",
"1952 244 CURVE SMOOTH",
"1991 582 LINE SMOOTH",
"1992 593 OFFCURVE",
"1985 600 OFFCURVE",
"1975 601 CURVE SMOOTH",
"1901 607 LINE SMOOTH",
"1892 608 OFFCURVE",
"1883 603 OFFCURVE",
"1882 592 CURVE SMOOTH",
"1849 343 LINE SMOOTH",
"1830 199 OFFCURVE",
"1718 173 OFFCURVE",
"1570 173 CURVE SMOOTH",
"1503 173 OFFCURVE",
"1433 175 OFFCURVE",
"1381 193 CURVE SMOOTH",
"1336 209 OFFCURVE",
"1304 239 OFFCURVE",
"1295 301 CURVE SMOOTH",
"1257 569 LINE SMOOTH",
"1254 588 OFFCURVE",
"1237 593 OFFCURVE",
"1224 583 CURVE SMOOTH",
"1113 501 LINE SMOOTH",
"1109 498 OFFCURVE",
"1106 492 OFFCURVE",
"1107 486 CURVE SMOOTH",
"1214 -177 LINE SMOOTH",
"1215 -184 OFFCURVE",
"1212 -191 OFFCURVE",
"1205 -194 CURVE SMOOTH",
"1145 -222 OFFCURVE",
"882 -330 OFFCURVE",
"618 -330 CURVE SMOOTH",
"392 -330 OFFCURVE",
"251 -216 OFFCURVE",
"304 61 CURVE SMOOTH",
"338 239 LINE SMOOTH",
"340 251 OFFCURVE",
"332 259 OFFCURVE",
"322 260 CURVE SMOOTH",
"248 270 LINE SMOOTH",
"239 271 OFFCURVE",
"231 267 OFFCURVE",
"229 256 CURVE SMOOTH",
"187 38 LINE SMOOTH",
"131 -255 OFFCURVE",
"222 -531 OFFCURVE",
"590 -531 CURVE SMOOTH"
);
}
);
width = 2870;
},
{
anchors = (
{
name = bottom;
position = "{616, -721}";
},
{
name = top;
position = "{690, 658}";
}
);
layerId = "00FED3EE-B3F5-49E6-B91A-35FC52169726";
paths = (
{
closed = 1;
nodes = (
"802 -510 OFFCURVE",
"1151 -419 OFFCURVE",
"1268 -256 CURVE SMOOTH",
"1300 -213 OFFCURVE",
"1309 -162 OFFCURVE",
"1309 -100 CURVE SMOOTH",
"1309 -64 OFFCURVE",
"1307 -26 OFFCURVE",
"1303 17 CURVE",
"1368 1 OFFCURVE",
"1444 -9 OFFCURVE",
"1516 -9 CURVE SMOOTH",
"1644 -8 OFFCURVE",
"1761 28 OFFCURVE",
"1809 81 CURVE",
"1905 24 OFFCURVE",
"2028 -4 OFFCURVE",
"2145 -4 CURVE SMOOTH",
"2301 -4 OFFCURVE",
"2390 33 OFFCURVE",
"2432 115 CURVE SMOOTH",
"2434 120 OFFCURVE",
"2436 122 OFFCURVE",
"2439 122 CURVE SMOOTH",
"2442 122 OFFCURVE",
"2444 121 OFFCURVE",
"2447 117 CURVE SMOOTH",
"2508 41 OFFCURVE",
"2595 0 OFFCURVE",
"2696 0 CURVE SMOOTH",
"2793 0 LINE",
"2820 32 OFFCURVE",
"2832 63 OFFCURVE",
"2832 96 CURVE SMOOTH",
"2832 128 OFFCURVE",
"2820 159 OFFCURVE",
"2793 191 CURVE",
"2696 191 LINE SMOOTH",
"2532 191 OFFCURVE",
"2502 262 OFFCURVE",
"2462 513 CURVE SMOOTH",
"2439 660 LINE SMOOTH",
"2436 675 OFFCURVE",
"2425 684 OFFCURVE",
"2412 684 CURVE SMOOTH",
"2406 684 OFFCURVE",
"2399 682 OFFCURVE",
"2393 677 CURVE SMOOTH",
"2297 600 LINE SMOOTH",
"2291 594 OFFCURVE",
"2287 588 OFFCURVE",
"2287 582 CURVE",
"2348 207 LINE",
"2349 203 OFFCURVE",
"2347 199 OFFCURVE",
"2342 198 CURVE SMOOTH",
"2283 186 OFFCURVE",
"2226 180 OFFCURVE",
"2172 180 CURVE SMOOTH",
"2074 180 OFFCURVE",
"1984 200 OFFCURVE",
"1904 237 CURVE SMOOTH",
"1901 238 OFFCURVE",
"1901 240 OFFCURVE",
"1901 243 CURVE SMOOTH",
"1940 573 LINE SMOOTH",
"1942 588 OFFCURVE",
"1932 601 OFFCURVE",
"1916 602 CURVE SMOOTH",
"1845 608 LINE SMOOTH",
"1830 609 OFFCURVE",
"1818 599 OFFCURVE",
"1816 585 CURVE SMOOTH",
"1783 340 LINE SMOOTH",
"1767 228 OFFCURVE",
"1696 185 OFFCURVE",
"1524 185 CURVE SMOOTH",
"1385 185 OFFCURVE",
"1284 192 OFFCURVE",
"1270 300 CURVE SMOOTH",
"1234 557 LINE SMOOTH",
"1231 574 OFFCURVE",
"1219 584 OFFCURVE",
"1206 584 CURVE SMOOTH",
"1200 584 OFFCURVE",
"1193 582 OFFCURVE",
"1187 577 CURVE SMOOTH",
"1080 498 LINE SMOOTH",
"1074 494 OFFCURVE",
"1070 485 OFFCURVE",
"1070 477 CURVE",
"1173 -162 LINE",
"1174 -165 OFFCURVE",
"1172 -167 OFFCURVE",
"1170 -168 CURVE SMOOTH",
"1113 -195 OFFCURVE",
"862 -298 OFFCURVE",
"611 -298 CURVE SMOOTH",
"412 -298 OFFCURVE",
"308 -206 OFFCURVE",
"308 -36 CURVE SMOOTH",
"308 17 OFFCURVE",
"314 39 OFFCURVE",
"351 237 CURVE SMOOTH",
"354 253 OFFCURVE",
"344 267 OFFCURVE",
"327 269 CURVE SMOOTH",
"256 278 LINE SMOOTH",
"242 280 OFFCURVE",
"230 272 OFFCURVE",
"228 257 CURVE SMOOTH",
"181 18 OFFCURVE",
"173 -16 OFFCURVE",
"173 -98 CURVE SMOOTH",
"173 -323 OFFCURVE",
"286 -510 OFFCURVE",
"584 -510 CURVE SMOOTH"
);
}
);
width = 2774;
},
{
anchors = (
{
name = bottom;
position = "{616, -721}";
},
{
name = top;
position = "{690, 658}";
}
);
layerId = "E3174D42-D779-465D-8194-70AED922C337";
paths = (
{
closed = 1;
nodes = (
"2696 191 LINE SMOOTH",
"2532 191 OFFCURVE",
"2502 262 OFFCURVE",
"2462 513 CURVE SMOOTH",
"2439 660 LINE",
"2436 675 OFFCURVE",
"2425 684 OFFCURVE",
"2412 684 CURVE SMOOTH",
"2406 684 OFFCURVE",
"2399 682 OFFCURVE",
"2393 677 CURVE SMOOTH",
"2297 600 LINE",
"2291 594 OFFCURVE",
"2287 588 OFFCURVE",
"2287 582 CURVE",
"2348 207 LINE",
"2349 203 OFFCURVE",
"2347 199 OFFCURVE",
"2342 198 CURVE SMOOTH",
"2283 186 OFFCURVE",
"2226 180 OFFCURVE",
"2172 180 CURVE SMOOTH",
"2074 180 OFFCURVE",
"1984 200 OFFCURVE",
"1904 237 CURVE",
"1901 238 OFFCURVE",
"1901 240 OFFCURVE",
"1901 243 CURVE",
"1940 573 LINE SMOOTH",
"1942 588 OFFCURVE",
"1932 601 OFFCURVE",
"1916 602 CURVE SMOOTH",
"1845 608 LINE SMOOTH",
"1830 609 OFFCURVE",
"1818 599 OFFCURVE",
"1816 585 CURVE SMOOTH",
"1783 340 LINE SMOOTH",
"1767 228 OFFCURVE",
"1696 185 OFFCURVE",
"1524 185 CURVE SMOOTH",
"1385 185 OFFCURVE",
"1284 192 OFFCURVE",
"1270 300 CURVE SMOOTH",
"1234 557 LINE",
"1231 574 OFFCURVE",
"1219 584 OFFCURVE",
"1206 584 CURVE SMOOTH",
"1200 584 OFFCURVE",
"1193 582 OFFCURVE",
"1187 577 CURVE",
"1080 498 LINE",
"1074 494 OFFCURVE",
"1070 485 OFFCURVE",
"1070 477 CURVE",
"1173 -162 LINE",
"1174 -165 OFFCURVE",
"1172 -167 OFFCURVE",
"1170 -168 CURVE SMOOTH",
"1113 -195 OFFCURVE",
"862 -298 OFFCURVE",
"611 -298 CURVE SMOOTH",
"412 -298 OFFCURVE",
"308 -206 OFFCURVE",
"308 -36 CURVE SMOOTH",
"308 17 OFFCURVE",
"314 39 OFFCURVE",
"351 237 CURVE SMOOTH",
"354 253 OFFCURVE",
"344 267 OFFCURVE",
"327 269 CURVE SMOOTH",
"256 278 LINE SMOOTH",
"242 280 OFFCURVE",
"230 272 OFFCURVE",
"228 257 CURVE",
"181 18 OFFCURVE",
"173 -16 OFFCURVE",
"173 -98 CURVE SMOOTH",
"173 -323 OFFCURVE",
"286 -510 OFFCURVE",
"584 -510 CURVE SMOOTH",
"802 -510 OFFCURVE",
"1151 -419 OFFCURVE",
"1268 -256 CURVE SMOOTH",
"1300 -213 OFFCURVE",
"1309 -162 OFFCURVE",
"1309 -100 CURVE SMOOTH",
"1309 -64 OFFCURVE",
"1307 -26 OFFCURVE",
"1303 17 CURVE",
"1368 1 OFFCURVE",
"1444 -9 OFFCURVE",
"1516 -9 CURVE SMOOTH",
"1644 -8 OFFCURVE",
"1761 28 OFFCURVE",
"1809 81 CURVE",
"1905 24 OFFCURVE",
"2028 -4 OFFCURVE",
"2145 -4 CURVE SMOOTH",
"2301 -4 OFFCURVE",
"2390 33 OFFCURVE",
"2432 115 CURVE",
"2434 120 OFFCURVE",
"2436 122 OFFCURVE",
"2439 122 CURVE SMOOTH",
"2442 122 OFFCURVE",
"2444 121 OFFCURVE",
"2447 117 CURVE SMOOTH",
"2508 41 OFFCURVE",
"2595 0 OFFCURVE",
"2696 0 CURVE SMOOTH",
"2784 0 LINE",
"2811 32 OFFCURVE",
"2823 64 OFFCURVE",
"2823 96 CURVE SMOOTH",
"2823 128 OFFCURVE",
"2811 159 OFFCURVE",
"2784 191 CURVE"
);
}
);
width = 2774;
},
{
anchors = (
{
name = bottom;
position = "{613, -709}";
},
{
name = top;
position = "{687, 654}";
}
);
layerId = "AB6A8399-B57F-40CA-845C-76C4C0121470";
paths = (
{
closed = 1;
nodes = (
"2723 223 LINE SMOOTH",
"2583 223 OFFCURVE",
"2550 269 OFFCURVE",
"2509 532 CURVE SMOOTH",
"2486 678 LINE",
"2486 679 LINE",
"2294 597 LINE",
"2354 228 LINE",
"2300 217 OFFCURVE",
"2249 212 OFFCURVE",
"2199 212 CURVE SMOOTH",
"2109 212 OFFCURVE",
"2025 230 OFFCURVE",
"1948 264 CURVE",
"1948 268 OFFCURVE",
"1949 275 OFFCURVE",
"1951 286 CURVE",
"1987 587 LINE",
"1823 603 LINE",
"1790 358 LINE SMOOTH",
"1776 254 OFFCURVE",
"1714 217 OFFCURVE",
"1551 217 CURVE SMOOTH",
"1413 217 OFFCURVE",
"1329 223 OFFCURVE",
"1317 318 CURVE SMOOTH",
"1281 595 LINE",
"1281 596 LINE",
"1077 492 LINE",
"1179 -142 LINE",
"1108 -174 OFFCURVE",
"873 -266 OFFCURVE",
"638 -266 CURVE SMOOTH",
"451 -266 OFFCURVE",
"355 -182 OFFCURVE",
"355 -20 CURVE SMOOTH",
"355 31 OFFCURVE",
"361 52 OFFCURVE",
"398 250 CURVE",
"235 275 LINE",
"235 276 LINE",
"188 37 OFFCURVE",
"180 1 OFFCURVE",
"180 -82 CURVE SMOOTH",
"180 -353 OFFCURVE",
"337 -510 OFFCURVE",
"611 -510 CURVE SMOOTH",
"832 -510 OFFCURVE",
"1191 -416 OFFCURVE",
"1311 -249 CURVE SMOOTH",
"1342 -206 OFFCURVE",
"1356 -157 OFFCURVE",
"1356 -84 CURVE SMOOTH",
"1356 -54 OFFCURVE",
"1355 -23 OFFCURVE",
"1352 11 CURVE",
"1414 -2 OFFCURVE",
"1481 -9 OFFCURVE",
"1543 -9 CURVE SMOOTH",
"1667 -9 OFFCURVE",
"1784 25 OFFCURVE",
"1840 75 CURVE",
"1932 25 OFFCURVE",
"2052 -4 OFFCURVE",
"2172 -4 CURVE SMOOTH",
"2326 -4 OFFCURVE",
"2422 32 OFFCURVE",
"2469 110 CURVE",
"2533 39 OFFCURVE",
"2623 0 OFFCURVE",
"2723 0 CURVE SMOOTH",
"2831 0 LINE",
"2866 35 OFFCURVE",
"2881 72 OFFCURVE",
"2881 112 CURVE SMOOTH",
"2881 152 OFFCURVE",
"2866 188 OFFCURVE",
"2831 223 CURVE"
);
}
);
width = 2816;
},
{
anchors = (
{
name = bottom;
position = "{638, -729}";
},
{
name = top;
position = "{712, 674}";
}
);
layerId = "EAE1A523-EADE-4FB1-A034-E66E80F3AE4F";
paths = (
{
closed = 1;
nodes = (
"2748 273 LINE SMOOTH",
"2624 273 OFFCURVE",
"2591 308 OFFCURVE",
"2559 561 CURVE SMOOTH",
"2536 742 LINE",
"2291 637 LINE",
"2350 273 LINE",
"2307 266 OFFCURVE",
"2266 262 OFFCURVE",
"2224 262 CURVE SMOOTH",
"2145 262 OFFCURVE",
"2071 276 OFFCURVE",
"2000 305 CURVE",
"2000 305 OFFCURVE",
"2001 306 OFFCURVE",
"2001 307 CURVE",
"2040 634 LINE",
"1826 655 LINE",
"1790 386 LINE SMOOTH",
"1778 297 OFFCURVE",
"1728 267 OFFCURVE",
"1576 267 CURVE SMOOTH",
"1415 267 OFFCURVE",
"1374 282 OFFCURVE",
"1367 346 CURVE SMOOTH",
"1331 662 LINE",
"1074 531 LINE",
"1176 -102 LINE",
"1090 -138 OFFCURVE",
"877 -216 OFFCURVE",
"663 -216 CURVE SMOOTH",
"490 -216 OFFCURVE",
"405 -143 OFFCURVE",
"405 5 CURVE SMOOTH",
"405 55 OFFCURVE",
"411 68 OFFCURVE",
"452 291 CURVE",
"238 316 LINE",
"192 77 OFFCURVE",
"180 29 OFFCURVE",
"180 -57 CURVE SMOOTH",
"180 -342 OFFCURVE",
"349 -510 OFFCURVE",
"636 -510 CURVE SMOOTH",
"860 -510 OFFCURVE",
"1230 -412 OFFCURVE",
"1356 -239 CURVE SMOOTH",
"1391 -191 OFFCURVE",
"1406 -135 OFFCURVE",
"1406 -59 CURVE SMOOTH",
"1406 -36 OFFCURVE",
"1405 -15 OFFCURVE",
"1404 5 CURVE",
"1458 -4 OFFCURVE",
"1515 -9 OFFCURVE",
"1568 -9 CURVE SMOOTH",
"1687 -9 OFFCURVE",
"1803 22 OFFCURVE",
"1868 70 CURVE",
"1962 23 OFFCURVE",
"2080 -4 OFFCURVE",
"2197 -4 CURVE SMOOTH",
"2343 -4 OFFCURVE",
"2441 28 OFFCURVE",
"2497 96 CURVE",
"2564 34 OFFCURVE",
"2652 0 OFFCURVE",
"2748 0 CURVE SMOOTH",
"2871 0 LINE",
"2914 39 OFFCURVE",
"2936 86 OFFCURVE",
"2936 137 CURVE SMOOTH",
"2936 188 OFFCURVE",
"2914 233 OFFCURVE",
"2871 273 CURVE"
);
}
);
width = 2841;
}
);
unicode = FEB2;
},
{
glyphname = "seen-ar.medi";
lastChange = "2016-09-06 19:55:17 +0000";
layers = (
{
anchors = (
{
name = bottom;
position = "{1139, -195}";
},
{
name = top;
position = "{1003, 874}";
}
);
layerId = "93A312F7-B931-4485-B08E-C367313EB5E7";
paths = (
{
closed = 1;
nodes = (
"866 0 OFFCURVE",
"994 37 OFFCURVE",
"1041 97 CURVE",
"1126 41 OFFCURVE",
"1244 4 OFFCURVE",
"1349 0 CURVE SMOOTH",
"1513 -6 OFFCURVE",
"1633 28 OFFCURVE",
"1682 127 CURVE SMOOTH",
"1689 142 OFFCURVE",
"1706 147 OFFCURVE",
"1716 130 CURVE SMOOTH",
"1767 43 OFFCURVE",
"1864 0 OFFCURVE",
"1966 0 CURVE SMOOTH",
"2055 0 LINE",
"2103 60 OFFCURVE",
"2103 119 OFFCURVE",
"2055 179 CURVE",
"1966 179 LINE SMOOTH",
"1776 179 OFFCURVE",
"1733 265 OFFCURVE",
"1713 522 CURVE SMOOTH",
"1701 675 LINE SMOOTH",
"1700 691 OFFCURVE",
"1681 697 OFFCURVE",
"1669 687 CURVE SMOOTH",
"1569 607 LINE SMOOTH",
"1563 602 OFFCURVE",
"1562 598 OFFCURVE",
"1563 591 CURVE SMOOTH",
"1615 220 LINE SMOOTH",
"1616 210 OFFCURVE",
"1611 200 OFFCURVE",
"1601 198 CURVE SMOOTH",
"1438 163 OFFCURVE",
"1278 173 OFFCURVE",
"1137 228 CURVE SMOOTH",
"1130 231 OFFCURVE",
"1127 237 OFFCURVE",
"1128 244 CURVE SMOOTH",
"1167 582 LINE SMOOTH",
"1168 593 OFFCURVE",
"1162 600 OFFCURVE",
"1151 601 CURVE SMOOTH",
"1075 607 LINE SMOOTH",
"1066 608 OFFCURVE",
"1058 603 OFFCURVE",
"1057 592 CURVE SMOOTH",
"1023 331 LINE SMOOTH",
"1006 199 OFFCURVE",
"895 179 OFFCURVE",
"746 179 CURVE SMOOTH",
"665 179 OFFCURVE",
"562 191 OFFCURVE",
"484 214 CURVE SMOOTH",
"477 216 OFFCURVE",
"475 224 OFFCURVE",
"475 230 CURVE SMOOTH",
"504 582 LINE SMOOTH",
"505 593 OFFCURVE",
"498 600 OFFCURVE",
"486 601 CURVE SMOOTH",
"410 605 LINE SMOOTH",
"401 605 OFFCURVE",
"393 600 OFFCURVE",
"392 590 CURVE SMOOTH",
"371 422 LINE SMOOTH",
"347 229 OFFCURVE",
"324 179 OFFCURVE",
"129 179 CURVE SMOOTH",
"-20 179 LINE SMOOTH",
"-138 179 OFFCURVE",
"-138 0 OFFCURVE",
"-20 0 CURVE SMOOTH",
"113 0 LINE SMOOTH",
"216 0 OFFCURVE",
"315 51 OFFCURVE",
"353 99 CURVE",
"430 13 OFFCURVE",
"610 0 OFFCURVE",
"737 0 CURVE SMOOTH"
);
}
);
width = 2036;
},
{
anchors = (
{
name = bottom;
position = "{1093, -197}";
},
{
name = top;
position = "{992, 867}";
}
);
layerId = "00FED3EE-B3F5-49E6-B91A-35FC52169726";
paths = (
{
closed = 1;
nodes = (
"835 0 OFFCURVE",
"952 36 OFFCURVE",
"1001 90 CURVE",
"1095 32 OFFCURVE",
"1216 -1 OFFCURVE",
"1330 -1 CURVE SMOOTH",
"1484 -1 OFFCURVE",
"1581 42 OFFCURVE",
"1623 128 CURVE SMOOTH",
"1625 132 OFFCURVE",
"1628 134 OFFCURVE",
"1631 134 CURVE SMOOTH",
"1634 134 OFFCURVE",
"1637 133 OFFCURVE",
"1639 130 CURVE SMOOTH",
"1687 48 OFFCURVE",
"1780 0 OFFCURVE",
"1887 0 CURVE SMOOTH",
"1974 0 LINE",
"2001 32 OFFCURVE",
"2013 63 OFFCURVE",
"2013 96 CURVE SMOOTH",
"2013 128 OFFCURVE",
"2001 159 OFFCURVE",
"1974 191 CURVE",
"1887 191 LINE SMOOTH",
"1720 191 OFFCURVE",
"1674 255 OFFCURVE",
"1654 512 CURVE SMOOTH",
"1643 659 LINE SMOOTH",
"1642 674 OFFCURVE",
"1628 684 OFFCURVE",
"1615 684 CURVE SMOOTH",
"1609 684 OFFCURVE",
"1602 682 OFFCURVE",
"1596 677 CURVE SMOOTH",
"1500 600 LINE SMOOTH",
"1493 594 OFFCURVE",
"1491 588 OFFCURVE",
"1491 580 CURVE",
"1541 220 LINE",
"1542 214 OFFCURVE",
"1539 210 OFFCURVE",
"1535 209 CURVE SMOOTH",
"1475 196 OFFCURVE",
"1414 190 OFFCURVE",
"1356 190 CURVE SMOOTH",
"1264 190 OFFCURVE",
"1176 205 OFFCURVE",
"1095 237 CURVE SMOOTH",
"1092 238 OFFCURVE",
"1092 240 OFFCURVE",
"1092 243 CURVE SMOOTH",
"1133 573 LINE SMOOTH",
"1135 588 OFFCURVE",
"1124 601 OFFCURVE",
"1109 602 CURVE SMOOTH",
"1036 608 LINE SMOOTH",
"1021 609 OFFCURVE",
"1010 599 OFFCURVE",
"1008 585 CURVE SMOOTH",
"972 328 LINE SMOOTH",
"956 209 OFFCURVE",
"858 191 OFFCURVE",
"716 191 CURVE SMOOTH",
"639 191 OFFCURVE",
"541 203 OFFCURVE",
"468 225 CURVE SMOOTH",
"467 225 OFFCURVE",
"466 226 OFFCURVE",
"466 230 CURVE SMOOTH",
"496 573 LINE SMOOTH",
"497 588 OFFCURVE",
"487 601 OFFCURVE",
"470 602 CURVE SMOOTH",
"397 606 LINE SMOOTH",
"383 607 OFFCURVE",
"372 597 OFFCURVE",
"370 583 CURVE SMOOTH",
"347 416 LINE SMOOTH",
"322 232 OFFCURVE",
"305 191 OFFCURVE",
"124 191 CURVE SMOOTH",
"-19 191 LINE SMOOTH",
"-83 191 OFFCURVE",
"-113 143 OFFCURVE",
"-113 96 CURVE SMOOTH",
"-113 48 OFFCURVE",
"-83 0 OFFCURVE",
"-19 0 CURVE SMOOTH",
"108 0 LINE SMOOTH",
"194 0 OFFCURVE",
"292 38 OFFCURVE",
"339 90 CURVE",
"420 12 OFFCURVE",
"589 0 OFFCURVE",
"708 0 CURVE SMOOTH"
);
}
);
width = 1955;
},
{
anchors = (
{
name = bottom;
position = "{1093, -197}";
},
{
name = top;
position = "{992, 867}";
}
);
layerId = "E3174D42-D779-465D-8194-70AED922C337";
paths = (
{
closed = 1;
nodes = (
"1887 191 LINE SMOOTH",
"1720 191 OFFCURVE",
"1674 255 OFFCURVE",
"1654 512 CURVE SMOOTH",
"1643 659 LINE SMOOTH",
"1642 674 OFFCURVE",
"1628 684 OFFCURVE",
"1615 684 CURVE SMOOTH",
"1609 684 OFFCURVE",
"1602 682 OFFCURVE",
"1596 677 CURVE SMOOTH",
"1500 600 LINE SMOOTH",
"1493 594 OFFCURVE",
"1491 588 OFFCURVE",
"1491 580 CURVE",
"1541 220 LINE SMOOTH",
"1542 214 OFFCURVE",
"1539 210 OFFCURVE",
"1535 209 CURVE SMOOTH",
"1475 196 OFFCURVE",
"1414 190 OFFCURVE",
"1356 190 CURVE SMOOTH",
"1264 190 OFFCURVE",
"1176 205 OFFCURVE",
"1095 237 CURVE",
"1092 238 OFFCURVE",
"1092 240 OFFCURVE",
"1092 243 CURVE",
"1133 573 LINE SMOOTH",
"1135 588 OFFCURVE",
"1124 601 OFFCURVE",
"1109 602 CURVE SMOOTH",
"1036 608 LINE SMOOTH",
"1021 609 OFFCURVE",
"1010 599 OFFCURVE",
"1008 585 CURVE SMOOTH",
"972 328 LINE SMOOTH",
"956 209 OFFCURVE",
"858 191 OFFCURVE",
"716 191 CURVE SMOOTH",
"639 191 OFFCURVE",
"541 203 OFFCURVE",
"468 225 CURVE",
"467 225 OFFCURVE",
"466 226 OFFCURVE",
"466 230 CURVE",
"496 573 LINE SMOOTH",
"497 588 OFFCURVE",
"487 601 OFFCURVE",
"470 602 CURVE SMOOTH",
"397 606 LINE SMOOTH",
"383 607 OFFCURVE",
"372 597 OFFCURVE",
"370 583 CURVE SMOOTH",
"347 416 LINE SMOOTH",
"322 232 OFFCURVE",
"305 191 OFFCURVE",
"124 191 CURVE SMOOTH",
"-10 191 LINE SMOOTH",
"-74 191 OFFCURVE",
"-104 143 OFFCURVE",
"-104 96 CURVE SMOOTH",
"-104 49 OFFCURVE",
"-74 0 OFFCURVE",
"-10 0 CURVE SMOOTH",
"108 0 LINE SMOOTH",
"194 0 OFFCURVE",
"292 38 OFFCURVE",
"339 90 CURVE",
"420 12 OFFCURVE",
"589 0 OFFCURVE",
"708 0 CURVE SMOOTH",
"835 0 OFFCURVE",
"952 36 OFFCURVE",
"1001 90 CURVE",
"1095 32 OFFCURVE",
"1216 -1 OFFCURVE",
"1330 -1 CURVE SMOOTH",
"1484 -1 OFFCURVE",
"1581 42 OFFCURVE",
"1623 128 CURVE SMOOTH",
"1625 132 OFFCURVE",
"1628 134 OFFCURVE",
"1631 134 CURVE SMOOTH",
"1634 134 OFFCURVE",
"1637 133 OFFCURVE",
"1639 130 CURVE",
"1687 48 OFFCURVE",
"1780 0 OFFCURVE",
"1887 0 CURVE SMOOTH",
"1965 0 LINE",
"1992 32 OFFCURVE",
"2004 64 OFFCURVE",
"2004 96 CURVE SMOOTH",
"2004 128 OFFCURVE",
"1992 159 OFFCURVE",
"1965 191 CURVE"
);
}
);
width = 1955;
},
{
anchors = (
{
name = bottom;
position = "{1093, -191}";
},
{
name = top;
position = "{1013, 803}";
}
);
layerId = "AB6A8399-B57F-40CA-845C-76C4C0121470";
paths = (
{
closed = 1;
nodes = (
"1994 223 CURVE",
"1887 223 LINE SMOOTH",
"1734 223 OFFCURVE",
"1693 279 OFFCURVE",
"1674 529 CURVE SMOOTH",
"1663 676 LINE",
"1471 595 LINE",
"1520 238 LINE",
"1466 227 OFFCURVE",
"1411 222 OFFCURVE",
"1356 222 CURVE SMOOTH",
"1268 222 OFFCURVE",
"1187 236 OFFCURVE",
"1112 264 CURVE",
"1153 587 LINE",
"988 603 LINE",
"952 346 LINE SMOOTH",
"939 253 OFFCURVE",
"882 223 OFFCURVE",
"716 223 CURVE SMOOTH",
"645 223 OFFCURVE",
"557 234 OFFCURVE",
"487 252 CURVE",
"516 588 LINE",
"350 601 LINE",
"327 434 LINE SMOOTH",
"301 244 OFFCURVE",
"282 223 OFFCURVE",
"124 223 CURVE SMOOTH",
"-15 223 LINE SMOOTH",
"-75 223 OFFCURVE",
"-120 172 OFFCURVE",
"-120 112 CURVE SMOOTH",
"-120 52 OFFCURVE",
"-75 0 OFFCURVE",
"-15 0 CURVE SMOOTH",
"108 0 LINE SMOOTH",
"191 0 OFFCURVE",
"287 34 OFFCURVE",
"340 82 CURVE",
"430 11 OFFCURVE",
"595 0 OFFCURVE",
"708 0 CURVE SMOOTH",
"831 0 OFFCURVE",
"947 33 OFFCURVE",
"1004 84 CURVE",
"1098 30 OFFCURVE",
"1217 -1 OFFCURVE",
"1330 -1 CURVE SMOOTH",
"1481 -1 OFFCURVE",
"1583 41 OFFCURVE",
"1632 121 CURVE",
"1685 46 OFFCURVE",
"1780 0 OFFCURVE",
"1887 0 CURVE SMOOTH",
"1994 0 LINE",
"2028 36 OFFCURVE",
"2043 72 OFFCURVE",
"2043 112 CURVE SMOOTH",
"2043 152 OFFCURVE",
"2028 187 OFFCURVE"
);
}
);
width = 1978;
},
{
anchors = (
{
name = bottom;
position = "{1093, -211}";
},
{
name = top;
position = "{1013, 883}";
}
);
layerId = "EAE1A523-EADE-4FB1-A034-E66E80F3AE4F";
paths = (
{
closed = 1;
nodes = (
"1887 273 LINE SMOOTH",
"1750 273 OFFCURVE",
"1717 318 OFFCURVE",
"1699 556 CURVE SMOOTH",
"1685 738 LINE",
"1444 636 LINE",
"1492 283 LINE",
"1449 276 OFFCURVE",
"1403 272 OFFCURVE",
"1356 272 CURVE SMOOTH",
"1278 272 OFFCURVE",
"1206 283 OFFCURVE",
"1139 306 CURVE",
"1181 634 LINE",
"967 655 LINE",
"927 374 LINE SMOOTH",
"916 297 OFFCURVE",
"871 273 OFFCURVE",
"716 273 CURVE SMOOTH",
"654 273 OFFCURVE",
"577 282 OFFCURVE",
"514 296 CURVE",
"543 636 LINE",
"328 653 LINE",
"302 462 LINE SMOOTH",
"278 283 OFFCURVE",
"266 273 OFFCURVE",
"124 273 CURVE SMOOTH",
"-30 273 LINE SMOOTH",
"-102 273 OFFCURVE",
"-160 212 OFFCURVE",
"-160 137 CURVE SMOOTH",
"-160 61 OFFCURVE",
"-102 0 OFFCURVE",
"-30 0 CURVE SMOOTH",
"108 0 LINE SMOOTH",
"189 0 OFFCURVE",
"282 31 OFFCURVE",
"341 75 CURVE",
"417 25 OFFCURVE",
"542 0 OFFCURVE",
"708 0 CURVE SMOOTH",
"827 0 OFFCURVE",
"942 30 OFFCURVE",
"1007 79 CURVE",
"1102 28 OFFCURVE",
"1219 -1 OFFCURVE",
"1330 -1 CURVE SMOOTH",
"1471 -1 OFFCURVE",
"1574 35 OFFCURVE",
"1633 105 CURVE",
"1693 39 OFFCURVE",
"1786 0 OFFCURVE",
"1887 0 CURVE SMOOTH",
"2008 0 LINE",
"2051 39 OFFCURVE",
"2073 86 OFFCURVE",
"2073 137 CURVE SMOOTH",
"2073 188 OFFCURVE",
"2051 233 OFFCURVE",
"2008 273 CURVE"
);
}
);
width = 1978;
}
);
unicode = FEB4;
},
{
glyphname = "seen-ar.init";
lastChange = "2016-09-06 19:55:56 +0000";
layers = (
{
anchors = (
{
name = bottom;
position = "{1144, -195}";
},
{
name = top;
position = "{1009, 874}";
}
);
layerId = "93A312F7-B931-4485-B08E-C367313EB5E7";
paths = (
{
closed = 1;
nodes = (
"877 1 OFFCURVE",
"1005 36 OFFCURVE",
"1052 96 CURVE",
"1137 43 OFFCURVE",
"1256 4 OFFCURVE",
"1360 0 CURVE SMOOTH",
"1604 -9 OFFCURVE",
"1708 48 OFFCURVE",
"1701 311 CURVE SMOOTH",
"1696 412 OFFCURVE",
"1653 670 OFFCURVE",
"1612 839 CURVE SMOOTH",
"1609 852 OFFCURVE",
"1598 853 OFFCURVE",
"1589 844 CURVE SMOOTH",
"1486 739 LINE SMOOTH",
"1480 733 OFFCURVE",
"1478 726 OFFCURVE",
"1480 716 CURVE SMOOTH",
"1603 218 LINE SMOOTH",
"1606 204 OFFCURVE",
"1596 192 OFFCURVE",
"1584 190 CURVE SMOOTH",
"1425 164 OFFCURVE",
"1288 176 OFFCURVE",
"1149 231 CURVE SMOOTH",
"1143 233 OFFCURVE",
"1139 239 OFFCURVE",
"1140 247 CURVE SMOOTH",
"1179 582 LINE SMOOTH",
"1180 593 OFFCURVE",
"1173 600 OFFCURVE",
"1163 601 CURVE SMOOTH",
"1088 607 LINE SMOOTH",
"1078 608 OFFCURVE",
"1070 603 OFFCURVE",
"1069 592 CURVE SMOOTH",
"1036 351 LINE SMOOTH",
"1016 207 OFFCURVE",
"906 180 OFFCURVE",
"758 180 CURVE SMOOTH",
"676 180 OFFCURVE",
"565 191 OFFCURVE",
"487 215 CURVE SMOOTH",
"480 217 OFFCURVE",
"476 224 OFFCURVE",
"477 231 CURVE SMOOTH",
"515 582 LINE SMOOTH",
"516 593 OFFCURVE",
"509 600 OFFCURVE",
"498 601 CURVE SMOOTH",
"423 605 LINE SMOOTH",
"414 605 OFFCURVE",
"406 600 OFFCURVE",
"405 590 CURVE SMOOTH",
"384 435 LINE SMOOTH",
"356 228 OFFCURVE",
"324 191 OFFCURVE",
"121 179 CURVE SMOOTH",
"-20 179 LINE SMOOTH",
"-138 179 OFFCURVE",
"-138 0 OFFCURVE",
"-20 0 CURVE SMOOTH",
"124 0 LINE SMOOTH",
"228 0 OFFCURVE",
"327 52 OFFCURVE",
"365 100 CURVE",
"442 21 OFFCURVE",
"621 0 OFFCURVE",
"749 0 CURVE SMOOTH"
);
}
);
width = 1839;
},
{
anchors = (
{
name = bottom;
position = "{1042, -197}";
},
{
name = top;
position = "{987, 887}";
}
);
layerId = "00FED3EE-B3F5-49E6-B91A-35FC52169726";
paths = (
{
closed = 1;
nodes = (
"849 1 OFFCURVE",
"964 36 OFFCURVE",
"1012 89 CURVE",
"1096 38 OFFCURVE",
"1210 4 OFFCURVE",
"1306 0 CURVE SMOOTH",
"1320 -1 OFFCURVE",
"1333 -1 OFFCURVE",
"1346 -1 CURVE SMOOTH",
"1572 -1 OFFCURVE",
"1649 81 OFFCURVE",
"1643 308 CURVE SMOOTH",
"1638 406 OFFCURVE",
"1596 655 OFFCURVE",
"1557 817 CURVE SMOOTH",
"1554 828 OFFCURVE",
"1546 835 OFFCURVE",
"1537 835 CURVE SMOOTH",
"1531 835 OFFCURVE",
"1524 832 OFFCURVE",
"1519 827 CURVE SMOOTH",
"1420 726 LINE SMOOTH",
"1414 719 OFFCURVE",
"1410 711 OFFCURVE",
"1410 703 CURVE",
"1529 217 LINE",
"1531 209 OFFCURVE",
"1526 203 OFFCURVE",
"1519 202 CURVE SMOOTH",
"1468 193 OFFCURVE",
"1420 189 OFFCURVE",
"1374 189 CURVE SMOOTH",
"1280 189 OFFCURVE",
"1193 206 OFFCURVE",
"1107 240 CURVE SMOOTH",
"1104 241 OFFCURVE",
"1104 243 OFFCURVE",
"1104 246 CURVE SMOOTH",
"1143 573 LINE SMOOTH",
"1145 588 OFFCURVE",
"1135 601 OFFCURVE",
"1119 602 CURVE SMOOTH",
"1047 608 LINE SMOOTH",
"1032 609 OFFCURVE",
"1020 599 OFFCURVE",
"1019 585 CURVE SMOOTH",
"985 348 LINE SMOOTH",
"969 235 OFFCURVE",
"898 192 OFFCURVE",
"728 192 CURVE SMOOTH",
"649 192 OFFCURVE",
"544 203 OFFCURVE",
"470 226 CURVE SMOOTH",
"468 226 OFFCURVE",
"468 228 OFFCURVE",
"468 230 CURVE SMOOTH",
"506 573 LINE SMOOTH",
"508 588 OFFCURVE",
"497 601 OFFCURVE",
"481 602 CURVE SMOOTH",
"409 606 LINE SMOOTH",
"395 607 OFFCURVE",
"383 597 OFFCURVE",
"381 583 CURVE SMOOTH",
"361 434 LINE SMOOTH",
"334 237 OFFCURVE",
"302 202 OFFCURVE",
"115 191 CURVE",
"-19 191 LINE SMOOTH",
"-83 191 OFFCURVE",
"-113 143 OFFCURVE",
"-113 96 CURVE SMOOTH",
"-113 48 OFFCURVE",
"-83 0 OFFCURVE",
"-19 0 CURVE SMOOTH",
"119 0 LINE SMOOTH",
"205 0 OFFCURVE",
"303 39 OFFCURVE",
"351 91 CURVE",
"431 19 OFFCURVE",
"600 0 OFFCURVE",
"719 0 CURVE SMOOTH"
);
}
);
width = 1779;
},
{
anchors = (
{
name = bottom;
position = "{1042, -197}";
},
{
name = top;
position = "{987, 887}";
}
);
layerId = "E3174D42-D779-465D-8194-70AED922C337";
paths = (
{
closed = 1;
nodes = (
"1638 406 OFFCURVE",
"1596 655 OFFCURVE",
"1557 817 CURVE SMOOTH",
"1554 828 OFFCURVE",
"1546 835 OFFCURVE",
"1537 835 CURVE SMOOTH",
"1531 835 OFFCURVE",
"1524 832 OFFCURVE",
"1519 827 CURVE SMOOTH",
"1420 726 LINE",
"1414 719 OFFCURVE",
"1410 711 OFFCURVE",
"1410 703 CURVE",
"1529 217 LINE SMOOTH",
"1531 209 OFFCURVE",
"1526 203 OFFCURVE",
"1519 202 CURVE SMOOTH",
"1468 193 OFFCURVE",
"1420 189 OFFCURVE",
"1374 189 CURVE SMOOTH",
"1280 189 OFFCURVE",
"1193 206 OFFCURVE",
"1107 240 CURVE",
"1104 241 OFFCURVE",
"1104 243 OFFCURVE",
"1104 246 CURVE",
"1143 573 LINE SMOOTH",
"1145 588 OFFCURVE",
"1135 601 OFFCURVE",
"1119 602 CURVE SMOOTH",
"1047 608 LINE SMOOTH",
"1032 609 OFFCURVE",
"1020 599 OFFCURVE",
"1019 585 CURVE",
"985 348 LINE SMOOTH",
"969 235 OFFCURVE",
"898 192 OFFCURVE",
"728 192 CURVE SMOOTH",
"649 192 OFFCURVE",
"544 203 OFFCURVE",
"470 226 CURVE",
"468 226 OFFCURVE",
"468 228 OFFCURVE",
"468 230 CURVE",
"506 573 LINE SMOOTH",
"508 588 OFFCURVE",
"497 601 OFFCURVE",
"481 602 CURVE SMOOTH",
"409 606 LINE SMOOTH",
"395 607 OFFCURVE",
"383 597 OFFCURVE",
"381 583 CURVE SMOOTH",
"361 434 LINE SMOOTH",
"334 237 OFFCURVE",
"302 202 OFFCURVE",
"115 191 CURVE",
"-10 191 LINE SMOOTH",
"-74 191 OFFCURVE",
"-104 143 OFFCURVE",
"-104 96 CURVE SMOOTH",
"-104 49 OFFCURVE",
"-74 0 OFFCURVE",
"-10 0 CURVE SMOOTH",
"119 0 LINE SMOOTH",
"205 0 OFFCURVE",
"303 39 OFFCURVE",
"351 91 CURVE",
"431 19 OFFCURVE",
"600 0 OFFCURVE",
"719 0 CURVE SMOOTH",
"849 1 OFFCURVE",
"964 36 OFFCURVE",
"1012 89 CURVE",
"1096 38 OFFCURVE",
"1210 4 OFFCURVE",
"1306 0 CURVE SMOOTH",
"1320 -1 OFFCURVE",
"1333 -1 OFFCURVE",
"1346 -1 CURVE SMOOTH",
"1572 -1 OFFCURVE",
"1649 81 OFFCURVE",
"1643 308 CURVE SMOOTH"
);
}
);
width = 1779;
},
{
anchors = (
{
name = bottom;
position = "{1042, -201}";
},
{
name = top;
position = "{936, 803}";
}
);
layerId = "AB6A8399-B57F-40CA-845C-76C4C0121470";
paths = (
{
closed = 1;
nodes = (
"1660 424 OFFCURVE",
"1616 673 OFFCURVE",
"1576 837 CURVE",
"1390 717 LINE",
"1510 229 LINE",
"1396 200 OFFCURVE",
"1304 199 OFFCURVE",
"1124 267 CURVE",
"1163 587 LINE",
"1000 607 LINE",
"965 366 LINE SMOOTH",
"950 261 OFFCURVE",
"889 224 OFFCURVE",
"728 224 CURVE SMOOTH",
"655 224 OFFCURVE",
"560 234 OFFCURVE",
"489 254 CURVE",
"526 587 LINE",
"361 601 LINE",
"341 452 LINE SMOOTH",
"315 260 OFFCURVE",
"288 233 OFFCURVE",
"114 223 CURVE",
"-15 223 LINE SMOOTH",
"-75 223 OFFCURVE",
"-120 172 OFFCURVE",
"-120 112 CURVE SMOOTH",
"-120 52 OFFCURVE",
"-75 0 OFFCURVE",
"-15 0 CURVE SMOOTH",
"119 0 LINE SMOOTH",
"202 0 OFFCURVE",
"298 35 OFFCURVE",
"352 83 CURVE",
"441 18 OFFCURVE",
"605 0 OFFCURVE",
"719 0 CURVE SMOOTH",
"845 0 OFFCURVE",
"960 34 OFFCURVE",
"1016 83 CURVE",
"1113 28 OFFCURVE",
"1232 -1 OFFCURVE",
"1346 -1 CURVE SMOOTH",
"1583 -1 OFFCURVE",
"1670 88 OFFCURVE",
"1663 324 CURVE SMOOTH"
);
}
);
width = 1803;
},
{
anchors = (
{
name = bottom;
position = "{1042, -231}";
},
{
name = top;
position = "{946, 903}";
}
);
layerId = "EAE1A523-EADE-4FB1-A034-E66E80F3AE4F";
paths = (
{
closed = 1;
nodes = (
"1685 459 OFFCURVE",
"1634 740 OFFCURVE",
"1592 902 CURVE",
"1361 753 LINE",
"1480 273 LINE",
"1373 249 OFFCURVE",
"1288 259 OFFCURVE",
"1151 309 CURVE",
"1191 634 LINE",
"979 660 LINE",
"940 395 LINE SMOOTH",
"927 304 OFFCURVE",
"878 274 OFFCURVE",
"728 274 CURVE SMOOTH",
"658 274 OFFCURVE",
"578 283 OFFCURVE",
"516 298 CURVE",
"554 635 LINE",
"339 653 LINE",
"316 480 LINE SMOOTH",
"292 300 OFFCURVE",
"273 282 OFFCURVE",
"113 273 CURVE",
"-30 273 LINE SMOOTH",
"-102 273 OFFCURVE",
"-160 212 OFFCURVE",
"-160 137 CURVE SMOOTH",
"-160 61 OFFCURVE",
"-102 0 OFFCURVE",
"-30 0 CURVE SMOOTH",
"119 0 LINE SMOOTH",
"199 0 OFFCURVE",
"293 31 OFFCURVE",
"353 77 CURVE",
"432 28 OFFCURVE",
"567 0 OFFCURVE",
"719 0 CURVE SMOOTH",
"838 0 OFFCURVE",
"953 30 OFFCURVE",
"1019 78 CURVE",
"1114 27 OFFCURVE",
"1232 -1 OFFCURVE",
"1346 -1 CURVE SMOOTH",
"1597 -1 OFFCURVE",
"1695 100 OFFCURVE",
"1688 350 CURVE SMOOTH"
);
}
);
width = 1828;
}
);
leftKerningGroup = all;
unicode = FEB3;
},
{
glyphname = "sad-ar";
lastChange = "2016-09-06 20:17:55 +0000";
layers = (
{
anchors = (
{
name = bottom;
position = "{707, -704}";
},
{
name = top;
position = "{742, 713}";
}
);
layerId = "93A312F7-B931-4485-B08E-C367313EB5E7";
paths = (
{
closed = 1;
nodes = (
"818 -531 OFFCURVE",
"1176 -427 OFFCURVE",
"1296 -271 CURVE SMOOTH",
"1344 -208 OFFCURVE",
"1346 -147 OFFCURVE",
"1324 84 CURVE",
"1578 -72 OFFCURVE",
"2282 -36 OFFCURVE",
"2498 174 CURVE",
"2726 431 OFFCURVE",
"2376 779 OFFCURVE",
"2124 781 CURVE SMOOTH",
"1947 782 OFFCURVE",
"1727 712 OFFCURVE",
"1355 254 CURVE",
"1287 312 OFFCURVE",
"1293 419 OFFCURVE",
"1272 577 CURVE SMOOTH",
"1269 596 OFFCURVE",
"1252 601 OFFCURVE",
"1239 591 CURVE SMOOTH",
"1128 509 LINE SMOOTH",
"1124 506 OFFCURVE",
"1121 500 OFFCURVE",
"1122 494 CURVE SMOOTH",
"1216 -177 LINE SMOOTH",
"1217 -184 OFFCURVE",
"1213 -191 OFFCURVE",
"1206 -194 CURVE SMOOTH",
"1124 -233 OFFCURVE",
"929 -330 OFFCURVE",
"619 -330 CURVE SMOOTH",
"382 -330 OFFCURVE",
"255 -217 OFFCURVE",
"305 61 CURVE SMOOTH",
"339 251 LINE SMOOTH",
"341 262 OFFCURVE",
"334 269 OFFCURVE",
"323 271 CURVE SMOOTH",
"250 282 LINE SMOOTH",
"240 284 OFFCURVE",
"232 278 OFFCURVE",
"230 268 CURVE SMOOTH",
"189 38 LINE SMOOTH",
"137 -255 OFFCURVE",
"200 -531 OFFCURVE",
"591 -531 CURVE SMOOTH"
);
},
{
closed = 1;
nodes = (
"1722 541 OFFCURVE",
"1880 606 OFFCURVE",
"2044 606 CURVE SMOOTH",
"2254 606 OFFCURVE",
"2414 406 OFFCURVE",
"2458 320 CURVE SMOOTH",
"2462 309 OFFCURVE",
"2460 302 OFFCURVE",
"2451 297 CURVE SMOOTH",
"2178 133 OFFCURVE",
"1747 133 OFFCURVE",
"1451 215 CURVE"
);
}
);
width = 2709;
},
{
anchors = (
{
name = bottom;
position = "{616, -720}";
},
{
name = top;
position = "{699, 654}";
}
);
layerId = "00FED3EE-B3F5-49E6-B91A-35FC52169726";
paths = (
{
closed = 1;
nodes = (
"803 -519 OFFCURVE",
"1151 -419 OFFCURVE",
"1268 -266 CURVE SMOOTH",
"1297 -228 OFFCURVE",
"1309 -191 OFFCURVE",
"1309 -113 CURVE SMOOTH",
"1309 -70 OFFCURVE",
"1306 -13 OFFCURVE",
"1299 63 CURVE",
"1403 7 OFFCURVE",
"1571 -21 OFFCURVE",
"1748 -21 CURVE SMOOTH",
"2012 -21 OFFCURVE",
"2298 40 OFFCURVE",
"2421 160 CURVE",
"2467 212 OFFCURVE",
"2487 275 OFFCURVE",
"2487 339 CURVE SMOOTH",
"2487 538 OFFCURVE",
"2293 757 OFFCURVE",
"2055 759 CURVE SMOOTH",
"1884 760 OFFCURVE",
"1671 692 OFFCURVE",
"1316 258 CURVE",
"1262 312 OFFCURVE",
"1266 410 OFFCURVE",
"1247 555 CURVE SMOOTH",
"1244 572 OFFCURVE",
"1233 582 OFFCURVE",
"1219 582 CURVE SMOOTH",
"1212 582 OFFCURVE",
"1206 580 OFFCURVE",
"1200 575 CURVE SMOOTH",
"1093 496 LINE SMOOTH",
"1088 492 OFFCURVE",
"1084 483 OFFCURVE",
"1084 475 CURVE",
"1174 -171 LINE",
"1174 -174 OFFCURVE",
"1173 -176 OFFCURVE",
"1170 -178 CURVE SMOOTH",
"1092 -215 OFFCURVE",
"906 -307 OFFCURVE",
"611 -307 CURVE SMOOTH",
"409 -307 OFFCURVE",
"308 -221 OFFCURVE",
"308 -48 CURVE SMOOTH",
"308 3 OFFCURVE",
"314 30 OFFCURVE",
"351 239 CURVE SMOOTH",
"354 254 OFFCURVE",
"345 267 OFFCURVE",
"328 270 CURVE SMOOTH",
"257 280 LINE SMOOTH",
"244 283 OFFCURVE",
"230 275 OFFCURVE",
"228 259 CURVE SMOOTH",
"181 5 OFFCURVE",
"173 -38 OFFCURVE",
"173 -123 CURVE SMOOTH",
"173 -381 OFFCURVE",
"314 -519 OFFCURVE",
"584 -519 CURVE SMOOTH"
);
},
{
closed = 1;
nodes = (
"1679 513 OFFCURVE",
"1825 572 OFFCURVE",
"1979 572 CURVE SMOOTH",
"2175 572 OFFCURVE",
"2325 385 OFFCURVE",
"2367 303 CURVE SMOOTH",
"2370 298 OFFCURVE",
"2368 296 OFFCURVE",
"2364 294 CURVE SMOOTH",
"2213 203 OFFCURVE",
"2009 164 OFFCURVE",
"1810 164 CURVE SMOOTH",
"1674 164 OFFCURVE",
"1541 181 OFFCURVE",
"1427 212 CURVE"
);
}
);
width = 2622;
},
{
anchors = (
{
name = bottom;
position = "{616, -720}";
},
{
name = top;
position = "{699, 654}";
}
);
layerId = "E3174D42-D779-465D-8194-70AED922C337";
paths = (
{
closed = 1;
nodes = (
"803 -519 OFFCURVE",
"1151 -419 OFFCURVE",
"1268 -266 CURVE SMOOTH",
"1297 -228 OFFCURVE",
"1309 -191 OFFCURVE",
"1309 -113 CURVE SMOOTH",
"1309 -70 OFFCURVE",
"1306 -13 OFFCURVE",
"1299 63 CURVE",
"1403 7 OFFCURVE",
"1571 -21 OFFCURVE",
"1748 -21 CURVE SMOOTH",
"2012 -21 OFFCURVE",
"2298 40 OFFCURVE",
"2421 160 CURVE",
"2467 212 OFFCURVE",
"2487 275 OFFCURVE",
"2487 339 CURVE SMOOTH",
"2487 538 OFFCURVE",
"2293 757 OFFCURVE",
"2055 759 CURVE SMOOTH",
"1884 760 OFFCURVE",
"1671 692 OFFCURVE",
"1316 258 CURVE",
"1262 312 OFFCURVE",
"1266 410 OFFCURVE",
"1247 555 CURVE SMOOTH",
"1244 572 OFFCURVE",
"1233 582 OFFCURVE",
"1219 582 CURVE SMOOTH",
"1212 582 OFFCURVE",
"1206 580 OFFCURVE",
"1200 575 CURVE SMOOTH",
"1093 496 LINE SMOOTH",
"1088 492 OFFCURVE",
"1084 483 OFFCURVE",
"1084 475 CURVE",
"1174 -171 LINE",
"1174 -174 OFFCURVE",
"1173 -176 OFFCURVE",
"1170 -178 CURVE SMOOTH",
"1092 -215 OFFCURVE",
"906 -307 OFFCURVE",
"611 -307 CURVE SMOOTH",
"409 -307 OFFCURVE",
"308 -221 OFFCURVE",
"308 -48 CURVE SMOOTH",
"308 3 OFFCURVE",
"314 30 OFFCURVE",
"351 239 CURVE SMOOTH",
"354 254 OFFCURVE",
"345 267 OFFCURVE",
"328 270 CURVE SMOOTH",
"257 280 LINE SMOOTH",
"244 283 OFFCURVE",
"230 275 OFFCURVE",
"228 259 CURVE SMOOTH",
"181 5 OFFCURVE",
"173 -38 OFFCURVE",
"173 -123 CURVE SMOOTH",
"173 -381 OFFCURVE",
"314 -519 OFFCURVE",
"584 -519 CURVE SMOOTH"
);
},
{
closed = 1;
nodes = (
"1679 513 OFFCURVE",
"1825 572 OFFCURVE",
"1979 572 CURVE SMOOTH",
"2175 572 OFFCURVE",
"2325 385 OFFCURVE",
"2367 303 CURVE SMOOTH",
"2370 298 OFFCURVE",
"2368 296 OFFCURVE",
"2364 294 CURVE SMOOTH",
"2213 203 OFFCURVE",
"2009 164 OFFCURVE",
"1810 164 CURVE SMOOTH",
"1674 164 OFFCURVE",
"1541 181 OFFCURVE",
"1427 212 CURVE"
);
}
);
width = 2622;
},
{
anchors = (
{
name = bottom;
position = "{622, -714}";
},
{
name = top;
position = "{726, 594}";
}
);
layerId = "AB6A8399-B57F-40CA-845C-76C4C0121470";
paths = (
{
closed = 1;
nodes = (
"180 -371 OFFCURVE",
"331 -515 OFFCURVE",
"611 -515 CURVE SMOOTH",
"833 -515 OFFCURVE",
"1191 -412 OFFCURVE",
"1311 -256 CURVE SMOOTH",
"1345 -212 OFFCURVE",
"1356 -170 OFFCURVE",
"1356 -93 CURVE SMOOTH",
"1356 -54 OFFCURVE",
"1354 -5 OFFCURVE",
"1349 53 CURVE",
"1451 8 OFFCURVE",
"1605 -17 OFFCURVE",
"1775 -17 CURVE SMOOTH",
"2075 -17 OFFCURVE",
"2351 58 OFFCURVE",
"2464 171 CURVE",
"2510 223 OFFCURVE",
"2534 288 OFFCURVE",
"2534 359 CURVE SMOOTH",
"2534 582 OFFCURVE",
"2316 794 OFFCURVE",
"2082 795 CURVE SMOOTH",
"1910 796 OFFCURVE",
"1691 727 OFFCURVE",
"1343 307 CURVE",
"1310 358 OFFCURVE",
"1308 447 OFFCURVE",
"1294 577 CURVE",
"1294 578 LINE",
"1091 494 LINE",
"1180 -148 LINE",
"1097 -187 OFFCURVE",
"917 -271 OFFCURVE",
"638 -271 CURVE SMOOTH",
"446 -271 OFFCURVE",
"355 -192 OFFCURVE",
"355 -28 CURVE SMOOTH",
"355 22 OFFCURVE",
"361 48 OFFCURVE",
"398 256 CURVE",
"235 281 LINE",
"235 282 LINE",
"188 27 OFFCURVE",
"180 -17 OFFCURVE",
"180 -103 CURVE SMOOTH"
);
},
{
closed = 1;
nodes = (
"1694 486 OFFCURVE",
"1835 576 OFFCURVE",
"2006 576 CURVE SMOOTH",
"2186 576 OFFCURVE",
"2327 407 OFFCURVE",
"2372 322 CURVE",
"2236 243 OFFCURVE",
"2047 200 OFFCURVE",
"1837 200 CURVE SMOOTH",
"1714 200 OFFCURVE",
"1593 214 OFFCURVE",
"1485 241 CURVE"
);
}
);
width = 2674;
},
{
anchors = (
{
name = bottom;
position = "{647, -724}";
},
{
name = top;
position = "{751, 634}";
}
);
layerId = "EAE1A523-EADE-4FB1-A034-E66E80F3AE4F";
paths = (
{
closed = 1;
nodes = (
"180 -360 OFFCURVE",
"343 -515 OFFCURVE",
"636 -515 CURVE SMOOTH",
"862 -515 OFFCURVE",
"1231 -409 OFFCURVE",
"1356 -246 CURVE SMOOTH",
"1392 -199 OFFCURVE",
"1406 -151 OFFCURVE",
"1406 -68 CURVE SMOOTH",
"1406 -36 OFFCURVE",
"1405 1 OFFCURVE",
"1402 40 CURVE",
"1505 3 OFFCURVE",
"1646 -17 OFFCURVE",
"1800 -17 CURVE SMOOTH",
"2108 -17 OFFCURVE",
"2390 61 OFFCURVE",
"2507 179 CURVE",
"2557 235 OFFCURVE",
"2584 307 OFFCURVE",
"2584 384 CURVE SMOOTH",
"2584 622 OFFCURVE",
"2354 844 OFFCURVE",
"2107 845 CURVE SMOOTH",
"1872 846 OFFCURVE",
"1649 703 OFFCURVE",
"1374 378 CURVE",
"1360 424 OFFCURVE",
"1360 434 OFFCURVE",
"1344 640 CURVE",
"1089 535 LINE",
"1178 -108 LINE",
"1089 -149 OFFCURVE",
"919 -221 OFFCURVE",
"663 -221 CURVE SMOOTH",
"485 -221 OFFCURVE",
"405 -153 OFFCURVE",
"405 -3 CURVE SMOOTH",
"405 46 OFFCURVE",
"411 65 OFFCURVE",
"452 297 CURVE",
"239 320 LINE",
"192 65 OFFCURVE",
"180 10 OFFCURVE",
"180 -78 CURVE SMOOTH"
);
},
{
closed = 1;
nodes = (
"1745 497 OFFCURVE",
"1875 576 OFFCURVE",
"2031 576 CURVE SMOOTH",
"2186 576 OFFCURVE",
"2310 442 OFFCURVE",
"2363 357 CURVE",
"2232 287 OFFCURVE",
"2057 250 OFFCURVE",
"1862 250 CURVE SMOOTH",
"1756 250 OFFCURVE",
"1651 261 OFFCURVE",
"1556 281 CURVE"
);
}
);
width = 2724;
}
);
leftKerningGroup = all;
unicode = 0635;
},
{
glyphname = "sad-ar.fina";
lastChange = "2016-09-06 20:18:00 +0000";
layers = (
{
anchors = (
{
name = bottom;
position = "{707, -704}";
},
{
name = top;
position = "{742, 713}";
}
);
layerId = "93A312F7-B931-4485-B08E-C367313EB5E7";
paths = (
{
closed = 1;
nodes = (
"815 -531 OFFCURVE",
"1164 -437 OFFCURVE",
"1283 -271 CURVE SMOOTH",
"1330 -206 OFFCURVE",
"1342 -151 OFFCURVE",
"1321 61 CURVE",
"1448 14 OFFCURVE",
"1615 -8 OFFCURVE",
"1784 -6 CURVE SMOOTH",
"1999 -5 OFFCURVE",
"2261 33 OFFCURVE",
"2406 92 CURVE SMOOTH",
"2415 96 OFFCURVE",
"2422 94 OFFCURVE",
"2429 86 CURVE SMOOTH",
"2498 12 OFFCURVE",
"2611 0 OFFCURVE",
"2783 0 CURVE SMOOTH",
"2849 0 LINE",
"2897 60 OFFCURVE",
"2897 119 OFFCURVE",
"2849 179 CURVE",
"2783 179 LINE SMOOTH",
"2722 179 OFFCURVE",
"2601 183 OFFCURVE",
"2519 199 CURVE SMOOTH",
"2507 201 OFFCURVE",
"2502 208 OFFCURVE",
"2506 220 CURVE SMOOTH",
"2589 473 OFFCURVE",
"2369 790 OFFCURVE",
"2106 792 CURVE SMOOTH",
"1937 793 OFFCURVE",
"1709 659 OFFCURVE",
"1360 245 CURVE SMOOTH",
"1353 237 OFFCURVE",
"1346 234 OFFCURVE",
"1337 239 CURVE SMOOTH",
"1298 261 OFFCURVE",
"1294 289 OFFCURVE",
"1255 578 CURVE SMOOTH",
"1253 595 OFFCURVE",
"1243 599 OFFCURVE",
"1233 591 CURVE SMOOTH",
"1117 504 LINE SMOOTH",
"1110 498 OFFCURVE",
"1105 492 OFFCURVE",
"1107 482 CURVE SMOOTH",
"1216 -190 LINE",
"1194 -200 OFFCURVE",
"906 -330 OFFCURVE",
"616 -330 CURVE SMOOTH",
"391 -330 OFFCURVE",
"252 -216 OFFCURVE",
"302 61 CURVE SMOOTH",
"337 252 LINE SMOOTH",
"339 262 OFFCURVE",
"334 269 OFFCURVE",
"323 271 CURVE SMOOTH",
"247 282 LINE SMOOTH",
"237 283 OFFCURVE",
"230 279 OFFCURVE",
"228 268 CURVE SMOOTH",
"186 38 LINE SMOOTH",
"133 -255 OFFCURVE",
"221 -531 OFFCURVE",
"589 -531 CURVE SMOOTH"
);
},
{
closed = 1;
nodes = (
"1717 518 OFFCURVE",
"1904 615 OFFCURVE",
"2067 615 CURVE SMOOTH",
"2272 615 OFFCURVE",
"2399 357 OFFCURVE",
"2420 285 CURVE SMOOTH",
"2423 276 OFFCURVE",
"2418 269 OFFCURVE",
"2408 265 CURVE SMOOTH",
"2078 137 OFFCURVE",
"1732 153 OFFCURVE",
"1455 201 CURVE"
);
}
);
width = 2829;
},
{
anchors = (
{
name = bottom;
position = "{618, -715}";
},
{
name = top;
position = "{690, 664}";
}
);
layerId = "00FED3EE-B3F5-49E6-B91A-35FC52169726";
paths = (
{
closed = 1;
nodes = (
"801 -510 OFFCURVE",
"1140 -419 OFFCURVE",
"1257 -256 CURVE SMOOTH",
"1288 -212 OFFCURVE",
"1304 -172 OFFCURVE",
"1304 -84 CURVE SMOOTH",
"1304 -48 OFFCURVE",
"1302 -3 OFFCURVE",
"1296 54 CURVE",
"1408 15 OFFCURVE",
"1554 -6 OFFCURVE",
"1710 -6 CURVE SMOOTH",
"1921 -6 OFFCURVE",
"2186 30 OFFCURVE",
"2331 89 CURVE SMOOTH",
"2336 91 OFFCURVE",
"2338 90 OFFCURVE",
"2341 85 CURVE SMOOTH",
"2411 12 OFFCURVE",
"2523 0 OFFCURVE",
"2689 0 CURVE SMOOTH",
"2753 0 LINE",
"2780 32 OFFCURVE",
"2793 63 OFFCURVE",
"2793 96 CURVE SMOOTH",
"2793 128 OFFCURVE",
"2780 159 OFFCURVE",
"2753 191 CURVE",
"2689 191 LINE SMOOTH",
"2630 191 OFFCURVE",
"2515 195 OFFCURVE",
"2437 210 CURVE SMOOTH",
"2431 211 OFFCURVE",
"2431 212 OFFCURVE",
"2432 218 CURVE SMOOTH",
"2444 254 OFFCURVE",
"2450 293 OFFCURVE",
"2450 331 CURVE SMOOTH",
"2450 552 OFFCURVE",
"2259 778 OFFCURVE",
"2039 780 CURVE SMOOTH",
"1851 780 OFFCURVE",
"1618 610 OFFCURVE",
"1315 251 CURVE SMOOTH",
"1311 246 OFFCURVE",
"1309 246 OFFCURVE",
"1306 248 CURVE SMOOTH",
"1274 265 OFFCURVE",
"1270 279 OFFCURVE",
"1232 565 CURVE SMOOTH",
"1230 582 OFFCURVE",
"1221 590 OFFCURVE",
"1211 590 CURVE SMOOTH",
"1206 590 OFFCURVE",
"1200 588 OFFCURVE",
"1195 585 CURVE SMOOTH",
"1084 501 LINE SMOOTH",
"1076 495 OFFCURVE",
"1068 485 OFFCURVE",
"1070 470 CURVE SMOOTH",
"1174 -167 LINE",
"1126 -188 OFFCURVE",
"868 -298 OFFCURVE",
"609 -298 CURVE SMOOTH",
"410 -298 OFFCURVE",
"307 -206 OFFCURVE",
"307 -33 CURVE SMOOTH",
"307 21 OFFCURVE",
"314 53 OFFCURVE",
"350 250 CURVE SMOOTH",
"353 265 OFFCURVE",
"345 276 OFFCURVE",
"329 279 CURVE SMOOTH",
"255 290 LINE SMOOTH",
"240 292 OFFCURVE",
"229 283 OFFCURVE",
"227 269 CURVE SMOOTH",
"180 16 OFFCURVE",
"173 -14 OFFCURVE",
"173 -95 CURVE SMOOTH",
"173 -322 OFFCURVE",
"284 -510 OFFCURVE",
"583 -510 CURVE SMOOTH"
);
},
{
closed = 1;
nodes = (
"1677 502 OFFCURVE",
"1850 590 OFFCURVE",
"2002 590 CURVE SMOOTH",
"2193 590 OFFCURVE",
"2312 348 OFFCURVE",
"2331 280 CURVE SMOOTH",
"2332 277 OFFCURVE",
"2331 276 OFFCURVE",
"2325 273 CURVE SMOOTH",
"2146 204 OFFCURVE",
"1960 179 OFFCURVE",
"1786 179 CURVE SMOOTH",
"1661 179 OFFCURVE",
"1542 191 OFFCURVE",
"1432 209 CURVE"
);
}
);
width = 2735;
},
{
anchors = (
{
name = bottom;
position = "{618, -715}";
},
{
name = top;
position = "{690, 664}";
}
);
layerId = "E3174D42-D779-465D-8194-70AED922C337";
paths = (
{
closed = 1;
nodes = (
"2689 191 LINE SMOOTH",
"2630 191 OFFCURVE",
"2515 195 OFFCURVE",
"2437 210 CURVE SMOOTH",
"2431 211 OFFCURVE",
"2431 212 OFFCURVE",
"2432 218 CURVE",
"2444 254 OFFCURVE",
"2450 293 OFFCURVE",
"2450 331 CURVE SMOOTH",
"2450 552 OFFCURVE",
"2259 778 OFFCURVE",
"2039 780 CURVE SMOOTH",
"1851 780 OFFCURVE",
"1618 610 OFFCURVE",
"1315 251 CURVE SMOOTH",
"1311 246 OFFCURVE",
"1309 246 OFFCURVE",
"1306 248 CURVE",
"1274 265 OFFCURVE",
"1270 279 OFFCURVE",
"1232 565 CURVE SMOOTH",
"1230 582 OFFCURVE",
"1221 590 OFFCURVE",
"1211 590 CURVE SMOOTH",
"1206 590 OFFCURVE",
"1200 588 OFFCURVE",
"1195 585 CURVE",
"1084 501 LINE SMOOTH",
"1076 495 OFFCURVE",
"1068 485 OFFCURVE",
"1070 470 CURVE SMOOTH",
"1174 -167 LINE",
"1126 -188 OFFCURVE",
"868 -298 OFFCURVE",
"609 -298 CURVE SMOOTH",
"410 -298 OFFCURVE",
"307 -206 OFFCURVE",
"307 -33 CURVE SMOOTH",
"307 21 OFFCURVE",
"314 53 OFFCURVE",
"350 250 CURVE SMOOTH",
"353 265 OFFCURVE",
"345 276 OFFCURVE",
"329 279 CURVE",
"255 290 LINE SMOOTH",
"240 292 OFFCURVE",
"229 283 OFFCURVE",
"227 269 CURVE",
"180 16 OFFCURVE",
"173 -14 OFFCURVE",
"173 -95 CURVE SMOOTH",
"173 -322 OFFCURVE",
"284 -510 OFFCURVE",
"583 -510 CURVE SMOOTH",
"801 -510 OFFCURVE",
"1140 -419 OFFCURVE",
"1257 -256 CURVE SMOOTH",
"1288 -212 OFFCURVE",
"1304 -172 OFFCURVE",
"1304 -84 CURVE SMOOTH",
"1304 -48 OFFCURVE",
"1302 -3 OFFCURVE",
"1296 54 CURVE",
"1408 15 OFFCURVE",
"1554 -6 OFFCURVE",
"1710 -6 CURVE SMOOTH",
"1921 -6 OFFCURVE",
"2186 30 OFFCURVE",
"2331 89 CURVE SMOOTH",
"2336 91 OFFCURVE",
"2338 90 OFFCURVE",
"2341 85 CURVE",
"2411 12 OFFCURVE",
"2523 0 OFFCURVE",
"2689 0 CURVE SMOOTH",
"2745 0 LINE",
"2772 32 OFFCURVE",
"2784 64 OFFCURVE",
"2784 96 CURVE SMOOTH",
"2784 128 OFFCURVE",
"2772 159 OFFCURVE",
"2745 191 CURVE"
);
},
{
closed = 1;
nodes = (
"2146 204 OFFCURVE",
"1960 179 OFFCURVE",
"1786 179 CURVE SMOOTH",
"1661 179 OFFCURVE",
"1542 191 OFFCURVE",
"1432 209 CURVE",
"1677 502 OFFCURVE",
"1850 590 OFFCURVE",
"2002 590 CURVE SMOOTH",
"2193 590 OFFCURVE",
"2312 348 OFFCURVE",
"2331 280 CURVE",
"2332 277 OFFCURVE",
"2331 276 OFFCURVE",
"2325 273 CURVE"
);
}
);
width = 2735;
},
{
anchors = (
{
name = bottom;
position = "{615, -709}";
},
{
name = top;
position = "{717, 620}";
}
);
layerId = "AB6A8399-B57F-40CA-845C-76C4C0121470";
paths = (
{
closed = 1;
nodes = (
"2716 223 LINE SMOOTH",
"2660 223 OFFCURVE",
"2558 227 OFFCURVE",
"2482 240 CURVE",
"2492 274 OFFCURVE",
"2497 310 OFFCURVE",
"2497 347 CURVE SMOOTH",
"2497 585 OFFCURVE",
"2290 810 OFFCURVE",
"2066 812 CURVE SMOOTH",
"1871 814 OFFCURVE",
"1635 641 OFFCURVE",
"1334 285 CURVE",
"1318 301 OFFCURVE",
"1310 348 OFFCURVE",
"1279 583 CURVE",
"1077 484 LINE",
"1179 -142 LINE",
"1108 -173 OFFCURVE",
"872 -266 OFFCURVE",
"636 -266 CURVE SMOOTH",
"448 -266 OFFCURVE",
"354 -182 OFFCURVE",
"354 -17 CURVE SMOOTH",
"354 36 OFFCURVE",
"361 67 OFFCURVE",
"397 263 CURVE",
"234 287 LINE",
"234 288 LINE",
"187 34 OFFCURVE",
"180 3 OFFCURVE",
"180 -79 CURVE SMOOTH",
"180 -353 OFFCURVE",
"336 -510 OFFCURVE",
"610 -510 CURVE SMOOTH",
"831 -510 OFFCURVE",
"1180 -416 OFFCURVE",
"1300 -249 CURVE SMOOTH",
"1339 -195 OFFCURVE",
"1351 -150 OFFCURVE",
"1351 -68 CURVE SMOOTH",
"1351 -33 OFFCURVE",
"1349 5 OFFCURVE",
"1345 45 CURVE",
"1455 12 OFFCURVE",
"1592 -6 OFFCURVE",
"1737 -6 CURVE SMOOTH",
"1960 -6 OFFCURVE",
"2217 32 OFFCURVE",
"2357 87 CURVE",
"2431 12 OFFCURVE",
"2552 0 OFFCURVE",
"2716 0 CURVE SMOOTH",
"2820 0 LINE",
"2855 35 OFFCURVE",
"2870 72 OFFCURVE",
"2870 112 CURVE SMOOTH",
"2870 152 OFFCURVE",
"2855 188 OFFCURVE",
"2820 223 CURVE"
);
},
{
closed = 1;
nodes = (
"1709 211 OFFCURVE",
"1603 219 OFFCURVE",
"1492 236 CURVE",
"1701 480 OFFCURVE",
"1868 590 OFFCURVE",
"2029 590 CURVE SMOOTH",
"2199 590 OFFCURVE",
"2311 377 OFFCURVE",
"2336 300 CURVE",
"2178 241 OFFCURVE",
"2003 211 OFFCURVE",
"1813 211 CURVE SMOOTH"
);
}
);
width = 2805;
},
{
anchors = (
{
name = bottom;
position = "{640, -730}";
},
{
name = top;
position = "{742, 620}";
}
);
layerId = "EAE1A523-EADE-4FB1-A034-E66E80F3AE4F";
paths = (
{
closed = 1;
nodes = (
"2741 273 LINE SMOOTH",
"2692 273 OFFCURVE",
"2608 276 OFFCURVE",
"2538 286 CURVE",
"2544 313 OFFCURVE",
"2547 342 OFFCURVE",
"2547 372 CURVE SMOOTH",
"2547 624 OFFCURVE",
"2328 860 OFFCURVE",
"2091 862 CURVE SMOOTH",
"1895 864 OFFCURVE",
"1663 702 OFFCURVE",
"1366 357 CURVE",
"1358 394 OFFCURVE",
"1347 474 OFFCURVE",
"1324 646 CURVE",
"1074 523 LINE",
"1176 -102 LINE",
"1090 -138 OFFCURVE",
"875 -216 OFFCURVE",
"661 -216 CURVE SMOOTH",
"487 -216 OFFCURVE",
"404 -143 OFFCURVE",
"404 8 CURVE SMOOTH",
"404 60 OFFCURVE",
"411 84 OFFCURVE",
"451 304 CURVE",
"238 329 LINE",
"192 75 OFFCURVE",
"180 31 OFFCURVE",
"180 -54 CURVE SMOOTH",
"180 -342 OFFCURVE",
"348 -510 OFFCURVE",
"635 -510 CURVE SMOOTH",
"859 -510 OFFCURVE",
"1219 -413 OFFCURVE",
"1345 -239 CURVE SMOOTH",
"1387 -181 OFFCURVE",
"1401 -131 OFFCURVE",
"1401 -43 CURVE SMOOTH",
"1401 -18 OFFCURVE",
"1400 9 OFFCURVE",
"1398 36 CURVE",
"1504 9 OFFCURVE",
"1630 -6 OFFCURVE",
"1762 -6 CURVE SMOOTH",
"1982 -6 OFFCURVE",
"2232 30 OFFCURVE",
"2376 83 CURVE",
"2445 22 OFFCURVE",
"2545 0 OFFCURVE",
"2741 0 CURVE SMOOTH",
"2860 0 LINE",
"2903 39 OFFCURVE",
"2925 86 OFFCURVE",
"2925 137 CURVE SMOOTH",
"2925 188 OFFCURVE",
"2903 233 OFFCURVE",
"2860 273 CURVE"
);
},
{
closed = 1;
nodes = (
"1748 261 OFFCURVE",
"1658 267 OFFCURVE",
"1566 279 CURVE",
"1756 494 OFFCURVE",
"1909 590 OFFCURVE",
"2054 590 CURVE SMOOTH",
"2195 590 OFFCURVE",
"2294 426 OFFCURVE",
"2329 340 CURVE",
"2179 287 OFFCURVE",
"2015 261 OFFCURVE",
"1838 261 CURVE SMOOTH"
);
}
);
width = 2830;
}
);
unicode = FEBA;
},
{
glyphname = "sad-ar.medi";
lastChange = "2016-09-06 20:18:14 +0000";
layers = (
{
anchors = (
{
name = bottom;
position = "{974, -192}";
},
{
name = top;
position = "{1148, 965}";
}
);
layerId = "93A312F7-B931-4485-B08E-C367313EB5E7";
paths = (
{
closed = 1;
nodes = (
"1083 -1 OFFCURVE",
"1348 39 OFFCURVE",
"1492 110 CURVE SMOOTH",
"1498 114 OFFCURVE",
"1505 112 OFFCURVE",
"1512 103 CURVE SMOOTH",
"1581 28 OFFCURVE",
"1693 0 OFFCURVE",
"1865 0 CURVE SMOOTH",
"1931 0 LINE",
"1979 60 OFFCURVE",
"1979 119 OFFCURVE",
"1931 179 CURVE",
"1865 179 LINE SMOOTH",
"1804 179 OFFCURVE",
"1684 183 OFFCURVE",
"1601 199 CURVE SMOOTH",
"1589 201 OFFCURVE",
"1585 208 OFFCURVE",
"1588 220 CURVE SMOOTH",
"1671 473 OFFCURVE",
"1451 790 OFFCURVE",
"1188 792 CURVE SMOOTH",
"1019 793 OFFCURVE",
"791 662 OFFCURVE",
"442 247 CURVE SMOOTH",
"436 239 OFFCURVE",
"428 236 OFFCURVE",
"419 240 CURVE SMOOTH",
"382 255 OFFCURVE",
"383 273 OFFCURVE",
"392 369 CURVE SMOOTH",
"411 583 LINE SMOOTH",
"412 593 OFFCURVE",
"405 601 OFFCURVE",
"394 601 CURVE SMOOTH",
"324 604 LINE SMOOTH",
"314 604 OFFCURVE",
"307 600 OFFCURVE",
"306 589 CURVE SMOOTH",
"276 360 LINE SMOOTH",
"260 237 OFFCURVE",
"230 179 OFFCURVE",
"46 179 CURVE SMOOTH",
"-20 179 LINE SMOOTH",
"-138 179 OFFCURVE",
"-138 0 OFFCURVE",
"-20 0 CURVE SMOOTH",
"46 0 LINE SMOOTH",
"155 0 OFFCURVE",
"247 31 OFFCURVE",
"309 102 CURVE",
"438 31 OFFCURVE",
"651 -5 OFFCURVE",
"866 -2 CURVE SMOOTH"
);
},
{
closed = 1;
nodes = (
"799 521 OFFCURVE",
"987 615 OFFCURVE",
"1149 615 CURVE SMOOTH",
"1355 615 OFFCURVE",
"1481 363 OFFCURVE",
"1502 293 CURVE SMOOTH",
"1505 284 OFFCURVE",
"1501 277 OFFCURVE",
"1490 273 CURVE SMOOTH",
"1132 130 OFFCURVE",
"849 150 OFFCURVE",
"537 205 CURVE"
);
}
);
width = 1911;
},
{
anchors = (
{
name = bottom;
position = "{885, -204}";
},
{
name = top;
position = "{1133, 984}";
}
);
layerId = "00FED3EE-B3F5-49E6-B91A-35FC52169726";
paths = (
{
closed = 1;
nodes = (
"1021 -2 OFFCURVE",
"1288 32 OFFCURVE",
"1432 104 CURVE SMOOTH",
"1436 106 OFFCURVE",
"1441 106 OFFCURVE",
"1444 103 CURVE SMOOTH",
"1509 32 OFFCURVE",
"1615 0 OFFCURVE",
"1790 0 CURVE SMOOTH",
"1855 0 LINE",
"1882 32 OFFCURVE",
"1894 63 OFFCURVE",
"1894 96 CURVE SMOOTH",
"1894 128 OFFCURVE",
"1882 159 OFFCURVE",
"1855 191 CURVE",
"1790 191 LINE SMOOTH",
"1732 191 OFFCURVE",
"1618 195 OFFCURVE",
"1539 210 CURVE SMOOTH",
"1533 211 OFFCURVE",
"1532 212 OFFCURVE",
"1534 219 CURVE SMOOTH",
"1546 255 OFFCURVE",
"1551 293 OFFCURVE",
"1551 330 CURVE SMOOTH",
"1551 551 OFFCURVE",
"1361 778 OFFCURVE",
"1140 780 CURVE SMOOTH",
"950 780 OFFCURVE",
"717 610 OFFCURVE",
"417 252 CURVE SMOOTH",
"415 250 OFFCURVE",
"413 248 OFFCURVE",
"410 248 CURVE SMOOTH",
"409 248 OFFCURVE",
"407 248 OFFCURVE",
"406 249 CURVE SMOOTH",
"388 256 OFFCURVE",
"381 262 OFFCURVE",
"381 292 CURVE",
"406 575 LINE",
"408 590 OFFCURVE",
"396 602 OFFCURVE",
"380 603 CURVE SMOOTH",
"313 606 LINE SMOOTH",
"298 607 OFFCURVE",
"288 597 OFFCURVE",
"286 583 CURVE SMOOTH",
"255 356 LINE SMOOTH",
"240 240 OFFCURVE",
"215 191 OFFCURVE",
"44 191 CURVE SMOOTH",
"-19 191 LINE SMOOTH",
"-83 191 OFFCURVE",
"-113 143 OFFCURVE",
"-113 96 CURVE SMOOTH",
"-113 48 OFFCURVE",
"-83 0 OFFCURVE",
"-19 0 CURVE SMOOTH",
"44 0 LINE SMOOTH",
"154 0 OFFCURVE",
"240 33 OFFCURVE",
"299 95 CURVE",
"416 34 OFFCURVE",
"604 -2 OFFCURVE",
"808 -2 CURVE SMOOTH"
);
},
{
closed = 1;
nodes = (
"751 472 OFFCURVE",
"930 590 OFFCURVE",
"1103 590 CURVE SMOOTH",
"1295 590 OFFCURVE",
"1413 354 OFFCURVE",
"1432 288 CURVE SMOOTH",
"1434 285 OFFCURVE",
"1433 283 OFFCURVE",
"1428 280 CURVE SMOOTH",
"1235 204 OFFCURVE",
"1065 177 OFFCURVE",
"900 177 CURVE SMOOTH",
"778 177 OFFCURVE",
"659 191 OFFCURVE",
"534 213 CURVE"
);
}
);
width = 1836;
},
{
anchors = (
{
name = bottom;
position = "{885, -204}";
},
{
name = top;
position = "{1133, 984}";
}
);
layerId = "E3174D42-D779-465D-8194-70AED922C337";
paths = (
{
closed = 1;
nodes = (
"1790 191 LINE SMOOTH",
"1732 191 OFFCURVE",
"1618 195 OFFCURVE",
"1539 210 CURVE SMOOTH",
"1533 211 OFFCURVE",
"1532 212 OFFCURVE",
"1534 219 CURVE",
"1546 255 OFFCURVE",
"1551 293 OFFCURVE",
"1551 330 CURVE SMOOTH",
"1551 551 OFFCURVE",
"1361 778 OFFCURVE",
"1140 780 CURVE SMOOTH",
"950 780 OFFCURVE",
"717 610 OFFCURVE",
"417 252 CURVE",
"415 250 OFFCURVE",
"413 248 OFFCURVE",
"410 248 CURVE SMOOTH",
"409 248 OFFCURVE",
"407 248 OFFCURVE",
"406 249 CURVE",
"388 256 OFFCURVE",
"381 262 OFFCURVE",
"381 292 CURVE",
"406 575 LINE",
"408 590 OFFCURVE",
"396 602 OFFCURVE",
"380 603 CURVE SMOOTH",
"313 606 LINE SMOOTH",
"298 607 OFFCURVE",
"288 597 OFFCURVE",
"286 583 CURVE SMOOTH",
"255 356 LINE SMOOTH",
"240 240 OFFCURVE",
"215 191 OFFCURVE",
"44 191 CURVE SMOOTH",
"-10 191 LINE SMOOTH",
"-74 191 OFFCURVE",
"-104 143 OFFCURVE",
"-104 96 CURVE SMOOTH",
"-104 49 OFFCURVE",
"-74 0 OFFCURVE",
"-10 0 CURVE SMOOTH",
"44 0 LINE SMOOTH",
"154 0 OFFCURVE",
"240 33 OFFCURVE",
"299 95 CURVE",
"416 34 OFFCURVE",
"604 -2 OFFCURVE",
"808 -2 CURVE SMOOTH",
"1021 -2 OFFCURVE",
"1288 32 OFFCURVE",
"1432 104 CURVE SMOOTH",
"1436 106 OFFCURVE",
"1441 106 OFFCURVE",
"1444 103 CURVE",
"1509 32 OFFCURVE",
"1615 0 OFFCURVE",
"1790 0 CURVE SMOOTH",
"1846 0 LINE",
"1873 32 OFFCURVE",
"1885 64 OFFCURVE",
"1885 96 CURVE SMOOTH",
"1885 128 OFFCURVE",
"1873 159 OFFCURVE",
"1846 191 CURVE"
);
},
{
closed = 1;
nodes = (
"1235 204 OFFCURVE",
"1065 177 OFFCURVE",
"900 177 CURVE SMOOTH",
"778 177 OFFCURVE",
"659 191 OFFCURVE",
"534 213 CURVE",
"751 472 OFFCURVE",
"930 590 OFFCURVE",
"1103 590 CURVE SMOOTH",
"1295 590 OFFCURVE",
"1413 354 OFFCURVE",
"1432 288 CURVE",
"1434 285 OFFCURVE",
"1433 283 OFFCURVE",
"1428 280 CURVE"
);
}
);
width = 1836;
},
{
anchors = (
{
name = bottom;
position = "{861, -198}";
},
{
name = top;
position = "{1135, 1018}";
}
);
layerId = "AB6A8399-B57F-40CA-845C-76C4C0121470";
paths = (
{
closed = 1;
nodes = (
"1790 223 LINE SMOOTH",
"1735 223 OFFCURVE",
"1633 227 OFFCURVE",
"1556 240 CURVE",
"1566 273 OFFCURVE",
"1571 308 OFFCURVE",
"1571 346 CURVE SMOOTH",
"1571 585 OFFCURVE",
"1364 810 OFFCURVE",
"1140 812 CURVE SMOOTH",
"943 814 OFFCURVE",
"706 642 OFFCURVE",
"407 283 CURVE",
"396 292 OFFCURVE",
"400 279 OFFCURVE",
"426 589 CURVE",
"266 601 LINE",
"235 374 LINE SMOOTH",
"218 249 OFFCURVE",
"187 223 OFFCURVE",
"44 223 CURVE SMOOTH",
"-15 223 LINE SMOOTH",
"-75 223 OFFCURVE",
"-120 172 OFFCURVE",
"-120 112 CURVE SMOOTH",
"-120 52 OFFCURVE",
"-75 0 OFFCURVE",
"-15 0 CURVE SMOOTH",
"44 0 LINE SMOOTH",
"151 0 OFFCURVE",
"242 31 OFFCURVE",
"303 90 CURVE",
"423 32 OFFCURVE",
"610 -2 OFFCURVE",
"808 -2 CURVE SMOOTH",
"1020 -2 OFFCURVE",
"1287 32 OFFCURVE",
"1434 103 CURVE",
"1503 32 OFFCURVE",
"1615 0 OFFCURVE",
"1790 0 CURVE SMOOTH",
"1895 0 LINE",
"1930 35 OFFCURVE",
"1945 72 OFFCURVE",
"1945 112 CURVE SMOOTH",
"1945 152 OFFCURVE",
"1930 188 OFFCURVE",
"1895 223 CURVE"
);
},
{
closed = 1;
nodes = (
"789 209 OFFCURVE",
"681 221 OFFCURVE",
"567 240 CURVE",
"773 481 OFFCURVE",
"941 590 OFFCURVE",
"1103 590 CURVE SMOOTH",
"1274 590 OFFCURVE",
"1385 384 OFFCURVE",
"1411 307 CURVE",
"1238 240 OFFCURVE",
"1075 209 OFFCURVE",
"900 209 CURVE SMOOTH"
);
}
);
width = 1880;
},
{
anchors = (
{
name = bottom;
position = "{861, -218}";
},
{
name = top;
position = "{1135, 1078}";
}
);
layerId = "EAE1A523-EADE-4FB1-A034-E66E80F3AE4F";
paths = (
{
closed = 1;
nodes = (
"1790 273 LINE SMOOTH",
"1742 273 OFFCURVE",
"1658 276 OFFCURVE",
"1587 286 CURVE",
"1593 313 OFFCURVE",
"1596 341 OFFCURVE",
"1596 371 CURVE SMOOTH",
"1596 624 OFFCURVE",
"1377 860 OFFCURVE",
"1140 862 CURVE SMOOTH",
"943 864 OFFCURVE",
"712 703 OFFCURVE",
"424 366 CURVE",
"430 403 OFFCURVE",
"440 478 OFFCURVE",
"453 637 CURVE",
"244 653 LINE",
"210 402 LINE SMOOTH",
"195 290 OFFCURVE",
"174 273 OFFCURVE",
"44 273 CURVE SMOOTH",
"-30 273 LINE SMOOTH",
"-102 273 OFFCURVE",
"-160 212 OFFCURVE",
"-160 137 CURVE SMOOTH",
"-160 61 OFFCURVE",
"-102 0 OFFCURVE",
"-30 0 CURVE SMOOTH",
"44 0 LINE SMOOTH",
"150 0 OFFCURVE",
"243 30 OFFCURVE",
"308 85 CURVE",
"431 30 OFFCURVE",
"615 -2 OFFCURVE",
"808 -2 CURVE SMOOTH",
"1014 -2 OFFCURVE",
"1276 30 OFFCURVE",
"1429 98 CURVE",
"1503 31 OFFCURVE",
"1618 0 OFFCURVE",
"1790 0 CURVE SMOOTH",
"1910 0 LINE",
"1953 39 OFFCURVE",
"1975 86 OFFCURVE",
"1975 137 CURVE SMOOTH",
"1975 188 OFFCURVE",
"1953 233 OFFCURVE",
"1910 273 CURVE"
);
},
{
closed = 1;
nodes = (
"805 259 OFFCURVE",
"712 268 OFFCURVE",
"615 283 CURVE",
"803 494 OFFCURVE",
"956 590 OFFCURVE",
"1103 590 CURVE SMOOTH",
"1245 590 OFFCURVE",
"1343 431 OFFCURVE",
"1379 347 CURVE",
"1218 287 OFFCURVE",
"1065 259 OFFCURVE",
"900 259 CURVE SMOOTH"
);
}
);
width = 1880;
}
);
unicode = FEBC;
},
{
glyphname = "sad-ar.init";
lastChange = "2016-09-06 20:18:28 +0000";
layers = (
{
anchors = (
{
name = bottom;
position = "{974, -192}";
},
{
name = top;
position = "{1148, 965}";
}
);
layerId = "93A312F7-B931-4485-B08E-C367313EB5E7";
paths = (
{
closed = 1;
nodes = (
"1106 -2 OFFCURVE",
"1406 52 OFFCURVE",
"1573 197 CURVE SMOOTH",
"1787 386 OFFCURVE",
"1539 790 OFFCURVE",
"1211 792 CURVE SMOOTH",
"1041 793 OFFCURVE",
"812 657 OFFCURVE",
"460 237 CURVE SMOOTH",
"454 229 OFFCURVE",
"446 227 OFFCURVE",
"437 230 CURVE SMOOTH",
"382 247 OFFCURVE",
"382 254 OFFCURVE",
"392 365 CURVE SMOOTH",
"411 583 LINE SMOOTH",
"412 593 OFFCURVE",
"405 601 OFFCURVE",
"394 601 CURVE SMOOTH",
"324 604 LINE SMOOTH",
"314 604 OFFCURVE",
"308 600 OFFCURVE",
"306 589 CURVE SMOOTH",
"276 370 LINE SMOOTH",
"259 247 OFFCURVE",
"230 179 OFFCURVE",
"46 179 CURVE SMOOTH",
"-20 179 LINE SMOOTH",
"-138 179 OFFCURVE",
"-138 0 OFFCURVE",
"-20 0 CURVE SMOOTH",
"46 0 LINE SMOOTH",
"152 0 OFFCURVE",
"241 43 OFFCURVE",
"304 109 CURVE",
"432 28 OFFCURVE",
"624 -8 OFFCURVE",
"825 -6 CURVE SMOOTH"
);
},
{
closed = 1;
nodes = (
"822 516 OFFCURVE",
"980 603 OFFCURVE",
"1142 603 CURVE SMOOTH",
"1363 603 OFFCURVE",
"1505 416 OFFCURVE",
"1544 343 CURVE SMOOTH",
"1550 332 OFFCURVE",
"1547 326 OFFCURVE",
"1536 320 CURVE SMOOTH",
"1244 160 OFFCURVE",
"818 151 OFFCURVE",
"560 200 CURVE"
);
}
);
width = 1791;
},
{
anchors = (
{
name = bottom;
position = "{925, -214}";
},
{
name = top;
position = "{1170, 984}";
}
);
layerId = "00FED3EE-B3F5-49E6-B91A-35FC52169726";
paths = (
{
closed = 1;
nodes = (
"1129 -1 OFFCURVE",
"1596 88 OFFCURVE",
"1596 371 CURVE SMOOTH",
"1596 560 OFFCURVE",
"1403 779 OFFCURVE",
"1163 780 CURVE SMOOTH",
"973 780 OFFCURVE",
"739 608 OFFCURVE",
"434 243 CURVE SMOOTH",
"432 240 OFFCURVE",
"429 239 OFFCURVE",
"426 239 CURVE SMOOTH",
"425 239 OFFCURVE",
"423 239 OFFCURVE",
"422 239 CURVE SMOOTH",
"392 250 OFFCURVE",
"381 252 OFFCURVE",
"381 290 CURVE",
"406 577 LINE",
"408 592 OFFCURVE",
"396 604 OFFCURVE",
"380 605 CURVE SMOOTH",
"313 608 LINE SMOOTH",
"299 609 OFFCURVE",
"288 600 OFFCURVE",
"286 586 CURVE SMOOTH",
"255 366 LINE SMOOTH",
"239 250 OFFCURVE",
"214 191 OFFCURVE",
"44 191 CURVE SMOOTH",
"-19 191 LINE SMOOTH",
"-83 191 OFFCURVE",
"-113 143 OFFCURVE",
"-113 96 CURVE SMOOTH",
"-113 48 OFFCURVE",
"-83 0 OFFCURVE",
"-19 0 CURVE SMOOTH",
"44 0 LINE SMOOTH",
"140 0 OFFCURVE",
"228 36 OFFCURVE",
"294 102 CURVE",
"411 31 OFFCURVE",
"588 -8 OFFCURVE",
"792 -6 CURVE SMOOTH"
);
},
{
closed = 1;
nodes = (
"780 476 OFFCURVE",
"931 579 OFFCURVE",
"1096 579 CURVE SMOOTH",
"1304 579 OFFCURVE",
"1437 404 OFFCURVE",
"1474 334 CURVE SMOOTH",
"1476 329 OFFCURVE",
"1477 329 OFFCURVE",
"1470 325 CURVE SMOOTH",
"1285 224 OFFCURVE",
"1044 185 OFFCURVE",
"830 185 CURVE SMOOTH",
"730 185 OFFCURVE",
"636 194 OFFCURVE",
"556 208 CURVE"
);
}
);
width = 1731;
},
{
anchors = (
{
name = bottom;
position = "{925, -214}";
},
{
name = top;
position = "{1170, 984}";
}
);
layerId = "E3174D42-D779-465D-8194-70AED922C337";
paths = (
{
closed = 1;
nodes = (
"973 780 OFFCURVE",
"739 608 OFFCURVE",
"434 243 CURVE",
"432 240 OFFCURVE",
"429 239 OFFCURVE",
"426 239 CURVE SMOOTH",
"422 239 LINE",
"392 250 OFFCURVE",
"381 252 OFFCURVE",
"381 290 CURVE",
"406 577 LINE",
"408 592 OFFCURVE",
"396 604 OFFCURVE",
"380 605 CURVE SMOOTH",
"313 608 LINE SMOOTH",
"299 609 OFFCURVE",
"288 600 OFFCURVE",
"286 586 CURVE SMOOTH",
"255 366 LINE SMOOTH",
"239 250 OFFCURVE",
"214 191 OFFCURVE",
"44 191 CURVE SMOOTH",
"-10 191 LINE SMOOTH",
"-74 191 OFFCURVE",
"-104 143 OFFCURVE",
"-104 96 CURVE SMOOTH",
"-104 49 OFFCURVE",
"-74 0 OFFCURVE",
"-10 0 CURVE SMOOTH",
"44 0 LINE SMOOTH",
"140 0 OFFCURVE",
"228 36 OFFCURVE",
"294 102 CURVE",
"411 31 OFFCURVE",
"588 -8 OFFCURVE",
"792 -6 CURVE SMOOTH",
"1129 -1 OFFCURVE",
"1596 88 OFFCURVE",
"1596 371 CURVE SMOOTH",
"1596 560 OFFCURVE",
"1403 779 OFFCURVE",
"1163 780 CURVE SMOOTH"
);
},
{
closed = 1;
nodes = (
"1285 224 OFFCURVE",
"1044 185 OFFCURVE",
"830 185 CURVE SMOOTH",
"730 185 OFFCURVE",
"636 194 OFFCURVE",
"556 208 CURVE",
"780 476 OFFCURVE",
"931 579 OFFCURVE",
"1096 579 CURVE SMOOTH",
"1304 579 OFFCURVE",
"1437 404 OFFCURVE",
"1474 334 CURVE",
"1476 329 OFFCURVE",
"1477 329 OFFCURVE",
"1470 325 CURVE SMOOTH"
);
}
);
width = 1731;
},
{
anchors = (
{
name = bottom;
position = "{819, -206}";
},
{
name = top;
position = "{1164, 1013}";
}
);
layerId = "AB6A8399-B57F-40CA-845C-76C4C0121470";
paths = (
{
closed = 1;
nodes = (
"966 813 OFFCURVE",
"727 639 OFFCURVE",
"422 273 CURVE",
"395 283 OFFCURVE",
"400 307 OFFCURVE",
"410 434 CURVE SMOOTH",
"426 591 LINE",
"266 604 LINE",
"235 384 LINE SMOOTH",
"219 269 OFFCURVE",
"200 223 OFFCURVE",
"44 223 CURVE SMOOTH",
"-15 223 LINE SMOOTH",
"-75 223 OFFCURVE",
"-120 172 OFFCURVE",
"-120 112 CURVE SMOOTH",
"-120 52 OFFCURVE",
"-75 0 OFFCURVE",
"-15 0 CURVE SMOOTH",
"44 0 LINE SMOOTH",
"139 0 OFFCURVE",
"230 35 OFFCURVE",
"297 96 CURVE",
"417 29 OFFCURVE",
"594 -8 OFFCURVE",
"792 -6 CURVE SMOOTH",
"1017 -4 OFFCURVE",
"1306 39 OFFCURVE",
"1476 153 CURVE SMOOTH",
"1558 208 OFFCURVE",
"1616 287 OFFCURVE",
"1616 387 CURVE SMOOTH",
"1616 603 OFFCURVE",
"1395 811 OFFCURVE",
"1163 812 CURVE SMOOTH"
);
},
{
closed = 1;
nodes = (
"748 217 OFFCURVE",
"666 223 OFFCURVE",
"589 235 CURVE",
"800 484 OFFCURVE",
"942 579 OFFCURVE",
"1096 579 CURVE SMOOTH",
"1286 579 OFFCURVE",
"1410 424 OFFCURVE",
"1452 351 CURVE",
"1270 254 OFFCURVE",
"1039 217 OFFCURVE",
"830 217 CURVE SMOOTH"
);
}
);
width = 1756;
},
{
anchors = (
{
name = bottom;
position = "{819, -216}";
},
{
name = top;
position = "{1164, 1073}";
}
);
layerId = "EAE1A523-EADE-4FB1-A034-E66E80F3AE4F";
paths = (
{
closed = 1;
nodes = (
"963 863 OFFCURVE",
"725 695 OFFCURVE",
"427 343 CURVE",
"427 361 OFFCURVE",
"430 394 OFFCURVE",
"435 457 CURVE SMOOTH",
"453 639 LINE",
"245 656 LINE",
"210 412 LINE SMOOTH",
"193 293 OFFCURVE",
"171 273 OFFCURVE",
"44 273 CURVE SMOOTH",
"-30 273 LINE SMOOTH",
"-102 273 OFFCURVE",
"-160 212 OFFCURVE",
"-160 137 CURVE SMOOTH",
"-160 61 OFFCURVE",
"-102 0 OFFCURVE",
"-30 0 CURVE SMOOTH",
"44 0 LINE SMOOTH",
"138 0 OFFCURVE",
"230 33 OFFCURVE",
"300 91 CURVE",
"424 27 OFFCURVE",
"600 -8 OFFCURVE",
"792 -6 CURVE SMOOTH",
"1019 -4 OFFCURVE",
"1315 39 OFFCURVE",
"1490 157 CURVE SMOOTH",
"1588 223 OFFCURVE",
"1641 312 OFFCURVE",
"1641 412 CURVE SMOOTH",
"1641 642 OFFCURVE",
"1408 861 OFFCURVE",
"1163 862 CURVE SMOOTH"
);
},
{
closed = 1;
nodes = (
"765 267 OFFCURVE",
"700 271 OFFCURVE",
"638 278 CURVE",
"827 495 OFFCURVE",
"957 579 OFFCURVE",
"1096 579 CURVE SMOOTH",
"1257 579 OFFCURVE",
"1367 461 OFFCURVE",
"1416 386 CURVE",
"1260 309 OFFCURVE",
"1053 267 OFFCURVE",
"830 267 CURVE SMOOTH"
);
}
);
width = 1781;
}
);
leftKerningGroup = all;
unicode = FEBB;
},
{
glyphname = "tah-ar";
lastChange = "2016-09-06 20:19:13 +0000";
layers = (
{
anchors = (
{
name = bottom;
position = "{796, -195}";
},
{
name = top;
position = "{1225, 1018}";
}
);
layerId = "93A312F7-B931-4485-B08E-C367313EB5E7";
paths = (
{
closed = 1;
nodes = (
"722 -31 OFFCURVE",
"1305 -33 OFFCURVE",
"1587 240 CURVE SMOOTH",
"1799 448 OFFCURVE",
"1544 838 OFFCURVE",
"1243 839 CURVE SMOOTH",
"1055 840 OFFCURVE",
"852 698 OFFCURVE",
"659 484 CURVE",
"689 581 OFFCURVE",
"693 690 OFFCURVE",
"689 844 CURVE SMOOTH",
"669 1511 LINE SMOOTH",
"668 1531 OFFCURVE",
"651 1540 OFFCURVE",
"634 1528 CURVE SMOOTH",
"503 1431 LINE SMOOTH",
"499 1428 OFFCURVE",
"496 1424 OFFCURVE",
"496 1418 CURVE SMOOTH",
"519 1032 OFFCURVE",
"541 795 OFFCURVE",
"546 635 CURVE SMOOTH",
"554 390 OFFCURVE",
"523 329 OFFCURVE",
"396 195 CURVE SMOOTH",
"393 191 OFFCURVE",
"389 191 OFFCURVE",
"384 191 CURVE SMOOTH",
"194 210 LINE SMOOTH",
"181 212 OFFCURVE",
"170 200 OFFCURVE",
"174 185 CURVE SMOOTH",
"209 36 OFFCURVE",
"246 -5 OFFCURVE",
"377 -12 CURVE SMOOTH"
);
},
{
closed = 1;
nodes = (
"871 554 OFFCURVE",
"989 647 OFFCURVE",
"1162 647 CURVE SMOOTH",
"1393 647 OFFCURVE",
"1513 453 OFFCURVE",
"1542 369 CURVE SMOOTH",
"1544 362 OFFCURVE",
"1541 355 OFFCURVE",
"1533 351 CURVE SMOOTH",
"1240 204 OFFCURVE",
"864 167 OFFCURVE",
"512 183 CURVE"
);
}
);
width = 1803;
},
{
anchors = (
{
name = bottom;
position = "{809, -226}";
},
{
name = top;
position = "{1212, 1026}";
}
);
layerId = "00FED3EE-B3F5-49E6-B91A-35FC52169726";
paths = (
{
closed = 1;
nodes = (
"447 -15 OFFCURVE",
"529 -18 OFFCURVE",
"615 -18 CURVE SMOOTH",
"1016 -18 OFFCURVE",
"1623 78 OFFCURVE",
"1623 418 CURVE SMOOTH",
"1623 611 OFFCURVE",
"1428 824 OFFCURVE",
"1210 825 CURVE SMOOTH",
"1047 826 OFFCURVE",
"863 718 OFFCURVE",
"668 510 CURVE",
"684 575 OFFCURVE",
"688 648 OFFCURVE",
"688 736 CURVE",
"668 1460 LINE",
"667 1479 OFFCURVE",
"655 1492 OFFCURVE",
"639 1492 CURVE SMOOTH",
"633 1492 OFFCURVE",
"626 1489 OFFCURVE",
"619 1484 CURVE SMOOTH",
"493 1391 LINE SMOOTH",
"487 1386 OFFCURVE",
"483 1379 OFFCURVE",
"483 1371 CURVE SMOOTH",
"483 810 OFFCURVE",
"532 715 OFFCURVE",
"532 555 CURVE SMOOTH",
"532 375 OFFCURVE",
"503 317 OFFCURVE",
"392 205 CURVE SMOOTH",
"390 204 OFFCURVE",
"388 203 OFFCURVE",
"385 203 CURVE SMOOTH",
"324 203 OFFCURVE",
"264 214 OFFCURVE",
"204 221 CURVE SMOOTH",
"187 223 OFFCURVE",
"173 209 OFFCURVE",
"173 192 CURVE SMOOTH",
"173 189 OFFCURVE",
"173 187 OFFCURVE",
"174 184 CURVE SMOOTH",
"223 38 OFFCURVE",
"250 -5 OFFCURVE",
"377 -12 CURVE SMOOTH"
);
},
{
closed = 1;
nodes = (
"862 537 OFFCURVE",
"972 621 OFFCURVE",
"1132 621 CURVE SMOOTH",
"1348 621 OFFCURVE",
"1460 441 OFFCURVE",
"1487 361 CURVE SMOOTH",
"1488 358 OFFCURVE",
"1485 356 OFFCURVE",
"1483 355 CURVE SMOOTH",
"1255 241 OFFCURVE",
"948 191 OFFCURVE",
"655 191 CURVE",
"529 194 LINE"
);
}
);
width = 1758;
},
{
anchors = (
{
name = bottom;
position = "{809, -226}";
},
{
name = top;
position = "{1212, 1026}";
}
);
layerId = "E3174D42-D779-465D-8194-70AED922C337";
paths = (
{
closed = 1;
nodes = (
"447 -15 OFFCURVE",
"529 -18 OFFCURVE",
"615 -18 CURVE SMOOTH",
"1016 -18 OFFCURVE",
"1623 78 OFFCURVE",
"1623 418 CURVE SMOOTH",
"1623 611 OFFCURVE",
"1428 824 OFFCURVE",
"1210 825 CURVE SMOOTH",
"1047 826 OFFCURVE",
"863 718 OFFCURVE",
"668 510 CURVE",
"684 575 OFFCURVE",
"688 648 OFFCURVE",
"688 736 CURVE",
"668 1460 LINE",
"667 1479 OFFCURVE",
"655 1492 OFFCURVE",
"639 1492 CURVE SMOOTH",
"633 1492 OFFCURVE",
"626 1489 OFFCURVE",
"619 1484 CURVE SMOOTH",
"493 1391 LINE SMOOTH",
"487 1386 OFFCURVE",
"483 1379 OFFCURVE",
"483 1371 CURVE SMOOTH",
"483 810 OFFCURVE",
"532 715 OFFCURVE",
"532 555 CURVE SMOOTH",
"532 375 OFFCURVE",
"503 317 OFFCURVE",
"392 205 CURVE SMOOTH",
"390 204 OFFCURVE",
"388 203 OFFCURVE",
"385 203 CURVE SMOOTH",
"324 203 OFFCURVE",
"264 214 OFFCURVE",
"204 221 CURVE SMOOTH",
"187 223 OFFCURVE",
"173 209 OFFCURVE",
"173 192 CURVE SMOOTH",
"173 189 OFFCURVE",
"173 187 OFFCURVE",
"174 184 CURVE SMOOTH",
"223 38 OFFCURVE",
"250 -5 OFFCURVE",
"377 -12 CURVE SMOOTH"
);
},
{
closed = 1;
nodes = (
"862 537 OFFCURVE",
"972 621 OFFCURVE",
"1132 621 CURVE SMOOTH",
"1348 621 OFFCURVE",
"1460 441 OFFCURVE",
"1487 361 CURVE SMOOTH",
"1488 358 OFFCURVE",
"1485 356 OFFCURVE",
"1483 355 CURVE SMOOTH",
"1255 241 OFFCURVE",
"948 191 OFFCURVE",
"655 191 CURVE",
"529 194 LINE"
);
}
);
width = 1758;
},
{
anchors = (
{
name = bottom;
position = "{746, -213}";
},
{
name = top;
position = "{1149, 1039}";
}
);
layerId = "AB6A8399-B57F-40CA-845C-76C4C0121470";
paths = (
{
closed = 1;
nodes = (
"826 550 OFFCURVE",
"925 618 OFFCURVE",
"1069 618 CURVE SMOOTH",
"1184 618 OFFCURVE",
"1343 473 OFFCURVE",
"1411 382 CURVE",
"1185 269 OFFCURVE",
"883 213 OFFCURVE",
"592 220 CURVE SMOOTH",
"506 222 LINE"
);
},
{
closed = 1;
nodes = (
"217 -4 LINE",
"310 -12 OFFCURVE",
"479 -21 OFFCURVE",
"552 -21 CURVE SMOOTH",
"955 -21 OFFCURVE",
"1580 78 OFFCURVE",
"1580 431 CURVE SMOOTH",
"1580 643 OFFCURVE",
"1366 853 OFFCURVE",
"1147 854 CURVE SMOOTH",
"992 855 OFFCURVE",
"818 762 OFFCURVE",
"636 581 CURVE",
"642 626 OFFCURVE",
"645 679 OFFCURVE",
"645 749 CURVE",
"625 1473 LINE",
"400 1384 LINE",
"449 568 LINE",
"455 400 OFFCURVE",
"427 343 OFFCURVE",
"319 232 CURVE",
"248 236 OFFCURVE",
"248 236 OFFCURVE",
"180 245 CURVE"
);
}
);
width = 1720;
},
{
anchors = (
{
name = bottom;
position = "{752, -243}";
},
{
name = top;
position = "{1165, 1119}";
}
);
layerId = "EAE1A523-EADE-4FB1-A034-E66E80F3AE4F";
paths = (
{
closed = 1;
nodes = (
"872 557 OFFCURVE",
"964 618 OFFCURVE",
"1095 618 CURVE SMOOTH",
"1173 618 OFFCURVE",
"1307 527 OFFCURVE",
"1398 416 CURVE",
"1174 311 OFFCURVE",
"899 260 OFFCURVE",
"590 271 CURVE"
);
},
{
closed = 1;
nodes = (
"221 -2 LINE",
"308 -11 OFFCURVE",
"499 -21 OFFCURVE",
"578 -21 CURVE SMOOTH",
"983 -21 OFFCURVE",
"1631 82 OFFCURVE",
"1631 456 CURVE SMOOTH",
"1631 682 OFFCURVE",
"1405 902 OFFCURVE",
"1173 904 CURVE SMOOTH",
"1026 905 OFFCURVE",
"862 825 OFFCURVE",
"693 670 CURVE",
"695 701 OFFCURVE",
"696 735 OFFCURVE",
"696 774 CURVE",
"675 1534 LINE",
"400 1426 LINE",
"450 592 LINE",
"456 431 OFFCURVE",
"434 381 OFFCURVE",
"312 259 CURVE",
"266 262 OFFCURVE",
"259 263 OFFCURVE",
"180 273 CURVE"
);
}
);
width = 1771;
}
);
leftKerningGroup = all;
unicode = 0637;
},
{
glyphname = "tah-ar.fina";
lastChange = "2016-09-06 20:19:29 +0000";
layers = (
{
anchors = (
{
name = bottom;
position = "{796, -195}";
},
{
name = top;
position = "{1225, 1018}";
}
);
layerId = "93A312F7-B931-4485-B08E-C367313EB5E7";
paths = (
{
closed = 1;
nodes = (
"645 -15 OFFCURVE",
"1057 -20 OFFCURVE",
"1359 97 CURVE SMOOTH",
"1367 99 OFFCURVE",
"1374 98 OFFCURVE",
"1379 93 CURVE SMOOTH",
"1452 17 OFFCURVE",
"1625 0 OFFCURVE",
"1796 0 CURVE SMOOTH",
"1862 0 LINE",
"1910 60 OFFCURVE",
"1910 119 OFFCURVE",
"1862 179 CURVE",
"1796 179 LINE SMOOTH",
"1736 179 OFFCURVE",
"1619 185 OFFCURVE",
"1538 198 CURVE",
"1555 212 OFFCURVE",
"1572 225 OFFCURVE",
"1587 240 CURVE SMOOTH",
"1799 448 OFFCURVE",
"1544 818 OFFCURVE",
"1243 839 CURVE SMOOTH",
"1055 852 OFFCURVE",
"852 710 OFFCURVE",
"659 496 CURVE",
"689 592 OFFCURVE",
"695 702 OFFCURVE",
"689 856 CURVE SMOOTH",
"665 1519 LINE SMOOTH",
"664 1538 OFFCURVE",
"645 1547 OFFCURVE",
"630 1536 CURVE SMOOTH",
"499 1444 LINE SMOOTH",
"495 1441 OFFCURVE",
"492 1436 OFFCURVE",
"492 1432 CURVE SMOOTH",
"516 1036 OFFCURVE",
"538 795 OFFCURVE",
"543 635 CURVE SMOOTH",
"550 392 OFFCURVE",
"518 335 OFFCURVE",
"396 207 CURVE SMOOTH",
"393 203 OFFCURVE",
"389 201 OFFCURVE",
"384 202 CURVE SMOOTH",
"194 222 LINE SMOOTH",
"181 223 OFFCURVE",
"171 212 OFFCURVE",
"174 197 CURVE SMOOTH",
"209 47 OFFCURVE",
"246 7 OFFCURVE",
"377 0 CURVE SMOOTH"
);
},
{
closed = 1;
nodes = (
"871 566 OFFCURVE",
"989 657 OFFCURVE",
"1162 647 CURVE SMOOTH",
"1393 633 OFFCURVE",
"1513 451 OFFCURVE",
"1542 369 CURVE SMOOTH",
"1545 362 OFFCURVE",
"1541 355 OFFCURVE",
"1533 351 CURVE SMOOTH",
"1240 204 OFFCURVE",
"864 178 OFFCURVE",
"512 194 CURVE"
);
}
);
width = 1842;
},
{
anchors = (
{
name = bottom;
position = "{780, -227}";
},
{
name = top;
position = "{1172, 1016}";
}
);
layerId = "00FED3EE-B3F5-49E6-B91A-35FC52169726";
paths = (
{
closed = 1;
nodes = (
"451 -16 OFFCURVE",
"537 -20 OFFCURVE",
"628 -20 CURVE SMOOTH",
"854 -20 OFFCURVE",
"1117 -2 OFFCURVE",
"1324 81 CURVE SMOOTH",
"1329 83 OFFCURVE",
"1332 82 OFFCURVE",
"1333 80 CURVE SMOOTH",
"1395 18 OFFCURVE",
"1526 0 OFFCURVE",
"1740 0 CURVE SMOOTH",
"1805 0 LINE",
"1832 32 OFFCURVE",
"1844 63 OFFCURVE",
"1844 96 CURVE SMOOTH",
"1844 128 OFFCURVE",
"1832 159 OFFCURVE",
"1805 191 CURVE",
"1740 191 LINE SMOOTH",
"1689 191 OFFCURVE",
"1591 196 OFFCURVE",
"1516 206 CURVE",
"1583 261 OFFCURVE",
"1623 314 OFFCURVE",
"1623 405 CURVE SMOOTH",
"1623 602 OFFCURVE",
"1414 813 OFFCURVE",
"1187 813 CURVE SMOOTH",
"1032 813 OFFCURVE",
"857 709 OFFCURVE",
"669 509 CURVE",
"684 572 OFFCURVE",
"689 642 OFFCURVE",
"689 728 CURVE",
"664 1455 LINE",
"663 1474 OFFCURVE",
"650 1486 OFFCURVE",
"635 1486 CURVE SMOOTH",
"628 1486 OFFCURVE",
"621 1483 OFFCURVE",
"615 1479 CURVE SMOOTH",
"490 1391 LINE SMOOTH",
"484 1387 OFFCURVE",
"479 1379 OFFCURVE",
"479 1372 CURVE SMOOTH",
"479 803 OFFCURVE",
"529 697 OFFCURVE",
"529 549 CURVE SMOOTH",
"529 366 OFFCURVE",
"498 311 OFFCURVE",
"389 202 CURVE SMOOTH",
"388 201 OFFCURVE",
"387 201 OFFCURVE",
"386 201 CURVE SMOOTH",
"325 201 OFFCURVE",
"264 211 OFFCURVE",
"204 220 CURVE SMOOTH",
"184 223 OFFCURVE",
"170 204 OFFCURVE",
"174 184 CURVE SMOOTH",
"203 33 OFFCURVE",
"250 -6 OFFCURVE",
"377 -12 CURVE SMOOTH"
);
},
{
closed = 1;
nodes = (
"846 518 OFFCURVE",
"960 610 OFFCURVE",
"1108 610 CURVE SMOOTH",
"1339 610 OFFCURVE",
"1450 425 OFFCURVE",
"1488 348 CURVE SMOOTH",
"1489 347 OFFCURVE",
"1488 345 OFFCURVE",
"1484 343 CURVE SMOOTH",
"1250 226 OFFCURVE",
"963 189 OFFCURVE",
"678 189 CURVE",
"530 192 LINE"
);
}
);
width = 1786;
},
{
anchors = (
{
name = bottom;
position = "{780, -227}";
},
{
name = top;
position = "{1172, 1016}";
}
);
layerId = "E3174D42-D779-465D-8194-70AED922C337";
paths = (
{
closed = 1;
nodes = (
"1740 191 LINE SMOOTH",
"1689 191 OFFCURVE",
"1591 196 OFFCURVE",
"1516 206 CURVE",
"1583 261 OFFCURVE",
"1623 314 OFFCURVE",
"1623 405 CURVE SMOOTH",
"1623 602 OFFCURVE",
"1414 813 OFFCURVE",
"1187 813 CURVE SMOOTH",
"1032 813 OFFCURVE",
"857 709 OFFCURVE",
"669 509 CURVE",
"684 572 OFFCURVE",
"689 642 OFFCURVE",
"689 728 CURVE",
"664 1455 LINE SMOOTH",
"663 1474 OFFCURVE",
"650 1486 OFFCURVE",
"635 1486 CURVE SMOOTH",
"628 1486 OFFCURVE",
"621 1483 OFFCURVE",
"615 1479 CURVE SMOOTH",
"490 1391 LINE SMOOTH",
"484 1387 OFFCURVE",
"479 1379 OFFCURVE",
"479 1372 CURVE SMOOTH",
"479 803 OFFCURVE",
"529 697 OFFCURVE",
"529 549 CURVE SMOOTH",
"529 366 OFFCURVE",
"498 311 OFFCURVE",
"389 202 CURVE SMOOTH",
"388 201 OFFCURVE",
"387 201 OFFCURVE",
"386 201 CURVE SMOOTH",
"325 201 OFFCURVE",
"264 211 OFFCURVE",
"204 220 CURVE SMOOTH",
"184 223 OFFCURVE",
"170 204 OFFCURVE",
"174 184 CURVE SMOOTH",
"203 33 OFFCURVE",
"250 -6 OFFCURVE",
"377 -12 CURVE SMOOTH",
"451 -16 OFFCURVE",
"537 -20 OFFCURVE",
"628 -20 CURVE SMOOTH",
"854 -20 OFFCURVE",
"1117 -2 OFFCURVE",
"1324 81 CURVE SMOOTH",
"1329 83 OFFCURVE",
"1332 82 OFFCURVE",
"1333 80 CURVE",
"1395 18 OFFCURVE",
"1526 0 OFFCURVE",
"1740 0 CURVE SMOOTH",
"1806 0 LINE",
"1833 32 OFFCURVE",
"1845 64 OFFCURVE",
"1845 96 CURVE SMOOTH",
"1845 128 OFFCURVE",
"1833 159 OFFCURVE",
"1806 191 CURVE"
);
},
{
closed = 1;
nodes = (
"1250 226 OFFCURVE",
"963 189 OFFCURVE",
"678 189 CURVE SMOOTH",
"530 192 LINE",
"846 518 OFFCURVE",
"960 610 OFFCURVE",
"1108 610 CURVE SMOOTH",
"1339 610 OFFCURVE",
"1450 425 OFFCURVE",
"1488 348 CURVE",
"1489 347 OFFCURVE",
"1488 345 OFFCURVE",
"1484 343 CURVE SMOOTH"
);
}
);
width = 1796;
},
{
anchors = (
{
name = bottom;
position = "{687, -221}";
},
{
name = top;
position = "{1147, 1057}";
}
);
layerId = "AB6A8399-B57F-40CA-845C-76C4C0121470";
paths = (
{
closed = 1;
nodes = (
"769 -18 OFFCURVE",
"1051 11 OFFCURVE",
"1265 93 CURVE",
"1366 57 OFFCURVE",
"1510 0 OFFCURVE",
"1677 0 CURVE SMOOTH",
"1762 0 LINE",
"1795 37 OFFCURVE",
"1811 73 OFFCURVE",
"1811 112 CURVE SMOOTH",
"1811 150 OFFCURVE",
"1795 186 OFFCURVE",
"1762 223 CURVE",
"1677 223 LINE SMOOTH",
"1637 223 OFFCURVE",
"1559 226 OFFCURVE",
"1494 232 CURVE",
"1548 288 OFFCURVE",
"1580 354 OFFCURVE",
"1580 434 CURVE SMOOTH",
"1580 646 OFFCURVE",
"1366 856 OFFCURVE",
"1147 857 CURVE SMOOTH",
"992 858 OFFCURVE",
"818 765 OFFCURVE",
"636 584 CURVE",
"642 629 OFFCURVE",
"645 682 OFFCURVE",
"645 752 CURVE",
"625 1476 LINE",
"400 1387 LINE",
"449 571 LINE SMOOTH",
"456 403 OFFCURVE",
"427 346 OFFCURVE",
"319 235 CURVE",
"248 239 OFFCURVE",
"248 239 OFFCURVE",
"180 248 CURVE",
"217 -1 LINE",
"310 -9 OFFCURVE",
"479 -18 OFFCURVE",
"552 -18 CURVE SMOOTH"
);
},
{
closed = 1;
nodes = (
"506 225 LINE",
"826 553 OFFCURVE",
"925 621 OFFCURVE",
"1069 621 CURVE SMOOTH",
"1184 621 OFFCURVE",
"1343 476 OFFCURVE",
"1411 385 CURVE",
"1185 272 OFFCURVE",
"883 216 OFFCURVE",
"592 223 CURVE SMOOTH"
);
}
);
width = 1746;
},
{
anchors = (
{
name = bottom;
position = "{723, -221}";
},
{
name = top;
position = "{1173, 1117}";
}
);
layerId = "EAE1A523-EADE-4FB1-A034-E66E80F3AE4F";
paths = (
{
closed = 1;
nodes = (
"1703 273 LINE SMOOTH",
"1673 273 OFFCURVE",
"1622 275 OFFCURVE",
"1571 278 CURVE",
"1611 333 OFFCURVE",
"1631 393 OFFCURVE",
"1631 459 CURVE SMOOTH",
"1631 685 OFFCURVE",
"1405 905 OFFCURVE",
"1173 907 CURVE SMOOTH",
"1026 908 OFFCURVE",
"862 828 OFFCURVE",
"693 673 CURVE",
"695 704 OFFCURVE",
"696 738 OFFCURVE",
"696 778 CURVE",
"675 1537 LINE",
"400 1429 LINE",
"450 595 LINE SMOOTH",
"460 435 OFFCURVE",
"434 385 OFFCURVE",
"312 262 CURVE",
"266 265 OFFCURVE",
"259 266 OFFCURVE",
"180 276 CURVE",
"221 1 LINE",
"308 -8 OFFCURVE",
"499 -18 OFFCURVE",
"578 -18 CURVE SMOOTH",
"793 -18 OFFCURVE",
"1075 11 OFFCURVE",
"1291 91 CURVE",
"1392 55 OFFCURVE",
"1536 0 OFFCURVE",
"1703 0 CURVE SMOOTH",
"1802 0 LINE",
"1845 39 OFFCURVE",
"1867 86 OFFCURVE",
"1867 137 CURVE SMOOTH",
"1867 188 OFFCURVE",
"1845 233 OFFCURVE",
"1802 273 CURVE"
);
},
{
closed = 1;
nodes = (
"872 560 OFFCURVE",
"964 621 OFFCURVE",
"1095 621 CURVE SMOOTH",
"1173 621 OFFCURVE",
"1307 530 OFFCURVE",
"1398 419 CURVE",
"1174 314 OFFCURVE",
"899 263 OFFCURVE",
"590 274 CURVE"
);
}
);
width = 1772;
}
);
unicode = FEC2;
},
{
glyphname = "tah-ar.medi";
lastChange = "2016-09-06 20:19:43 +0000";
layers = (
{
anchors = (
{
name = bottom;
position = "{690, -173}";
},
{
name = top;
position = "{1097, 1017}";
}
);
layerId = "93A312F7-B931-4485-B08E-C367313EB5E7";
paths = (
{
closed = 1;
nodes = (
"639 0 OFFCURVE",
"967 1 OFFCURVE",
"1218 95 CURVE SMOOTH",
"1225 98 OFFCURVE",
"1231 95 OFFCURVE",
"1235 91 CURVE SMOOTH",
"1310 16 OFFCURVE",
"1480 0 OFFCURVE",
"1651 0 CURVE SMOOTH",
"1717 0 LINE",
"1765 60 OFFCURVE",
"1765 119 OFFCURVE",
"1717 179 CURVE",
"1651 179 LINE SMOOTH",
"1595 179 OFFCURVE",
"1487 185 OFFCURVE",
"1406 197 CURVE",
"1425 210 OFFCURVE",
"1442 224 OFFCURVE",
"1458 240 CURVE SMOOTH",
"1670 448 OFFCURVE",
"1415 838 OFFCURVE",
"1114 839 CURVE SMOOTH",
"926 840 OFFCURVE",
"723 698 OFFCURVE",
"530 484 CURVE",
"560 581 OFFCURVE",
"565 690 OFFCURVE",
"560 844 CURVE SMOOTH",
"541 1515 LINE SMOOTH",
"540 1533 OFFCURVE",
"522 1544 OFFCURVE",
"506 1532 CURVE SMOOTH",
"383 1440 LINE SMOOTH",
"378 1436 OFFCURVE",
"376 1432 OFFCURVE",
"376 1427 CURVE SMOOTH",
"392 1028 OFFCURVE",
"410 787 OFFCURVE",
"411 626 CURVE SMOOTH",
"411 395 OFFCURVE",
"375 324 OFFCURVE",
"241 184 CURVE SMOOTH",
"238 181 OFFCURVE",
"235 179 OFFCURVE",
"231 179 CURVE SMOOTH",
"-20 179 LINE SMOOTH",
"-138 179 OFFCURVE",
"-138 0 OFFCURVE",
"-20 0 CURVE SMOOTH",
"368 0 LINE SMOOTH"
);
},
{
closed = 1;
nodes = (
"742 554 OFFCURVE",
"860 647 OFFCURVE",
"1033 647 CURVE SMOOTH",
"1264 647 OFFCURVE",
"1385 453 OFFCURVE",
"1413 369 CURVE SMOOTH",
"1416 362 OFFCURVE",
"1412 355 OFFCURVE",
"1404 351 CURVE SMOOTH",
"1081 191 OFFCURVE",
"735 190 OFFCURVE",
"383 183 CURVE"
);
}
);
width = 1697;
},
{
anchors = (
{
name = bottom;
position = "{662, -195}";
},
{
name = top;
position = "{1073, 1035}";
}
);
layerId = "00FED3EE-B3F5-49E6-B91A-35FC52169726";
paths = (
{
closed = 1;
nodes = (
"613 0 OFFCURVE",
"930 1 OFFCURVE",
"1173 92 CURVE SMOOTH",
"1175 93 OFFCURVE",
"1176 92 OFFCURVE",
"1179 90 CURVE SMOOTH",
"1240 29 OFFCURVE",
"1371 0 OFFCURVE",
"1585 0 CURVE SMOOTH",
"1649 0 LINE",
"1676 32 OFFCURVE",
"1689 63 OFFCURVE",
"1689 96 CURVE SMOOTH",
"1689 128 OFFCURVE",
"1676 159 OFFCURVE",
"1649 191 CURVE",
"1585 191 LINE SMOOTH",
"1537 191 OFFCURVE",
"1449 196 OFFCURVE",
"1375 205 CURVE",
"1443 261 OFFCURVE",
"1483 324 OFFCURVE",
"1483 418 CURVE SMOOTH",
"1483 611 OFFCURVE",
"1287 824 OFFCURVE",
"1069 825 CURVE SMOOTH",
"908 826 OFFCURVE",
"724 718 OFFCURVE",
"528 510 CURVE",
"543 574 OFFCURVE",
"549 645 OFFCURVE",
"549 732 CURVE",
"529 1464 LINE",
"528 1483 OFFCURVE",
"515 1495 OFFCURVE",
"499 1495 CURVE SMOOTH",
"493 1495 OFFCURVE",
"487 1493 OFFCURVE",
"480 1488 CURVE SMOOTH",
"362 1400 LINE SMOOTH",
"355 1394 OFFCURVE",
"351 1387 OFFCURVE",
"351 1380 CURVE SMOOTH",
"367 996 OFFCURVE",
"384 765 OFFCURVE",
"385 611 CURVE SMOOTH",
"385 391 OFFCURVE",
"352 326 OFFCURVE",
"225 193 CURVE SMOOTH",
"223 191 OFFCURVE",
"222 191 OFFCURVE",
"222 191 CURVE SMOOTH",
"-19 191 LINE SMOOTH",
"-83 191 OFFCURVE",
"-113 143 OFFCURVE",
"-113 96 CURVE SMOOTH",
"-113 48 OFFCURVE",
"-83 0 OFFCURVE",
"-19 0 CURVE SMOOTH",
"353 0 LINE SMOOTH"
);
},
{
closed = 1;
nodes = (
"722 537 OFFCURVE",
"831 621 OFFCURVE",
"992 621 CURVE SMOOTH",
"1208 621 OFFCURVE",
"1321 441 OFFCURVE",
"1348 361 CURVE SMOOTH",
"1348 359 OFFCURVE",
"1348 357 OFFCURVE",
"1344 355 CURVE SMOOTH",
"1043 206 OFFCURVE",
"721 202 OFFCURVE",
"391 195 CURVE"
);
}
);
width = 1631;
},
{
anchors = (
{
name = bottom;
position = "{662, -195}";
},
{
name = top;
position = "{1073, 1035}";
}
);
layerId = "E3174D42-D779-465D-8194-70AED922C337";
paths = (
{
closed = 1;
nodes = (
"1585 191 LINE SMOOTH",
"1537 191 OFFCURVE",
"1449 196 OFFCURVE",
"1375 205 CURVE",
"1443 261 OFFCURVE",
"1483 324 OFFCURVE",
"1483 418 CURVE SMOOTH",
"1483 611 OFFCURVE",
"1287 824 OFFCURVE",
"1069 825 CURVE SMOOTH",
"908 826 OFFCURVE",
"724 718 OFFCURVE",
"528 510 CURVE",
"543 574 OFFCURVE",
"549 645 OFFCURVE",
"549 732 CURVE",
"529 1464 LINE SMOOTH",
"528 1483 OFFCURVE",
"515 1495 OFFCURVE",
"499 1495 CURVE SMOOTH",
"493 1495 OFFCURVE",
"487 1493 OFFCURVE",
"480 1488 CURVE SMOOTH",
"362 1400 LINE",
"355 1394 OFFCURVE",
"351 1387 OFFCURVE",
"351 1380 CURVE",
"367 996 OFFCURVE",
"384 765 OFFCURVE",
"385 611 CURVE SMOOTH",
"385 391 OFFCURVE",
"352 326 OFFCURVE",
"225 193 CURVE SMOOTH",
"223 191 OFFCURVE",
"222 191 OFFCURVE",
"222 191 CURVE SMOOTH",
"-10 191 LINE SMOOTH",
"-74 191 OFFCURVE",
"-104 143 OFFCURVE",
"-104 96 CURVE SMOOTH",
"-104 49 OFFCURVE",
"-74 0 OFFCURVE",
"-10 0 CURVE SMOOTH",
"353 0 LINE SMOOTH",
"613 0 OFFCURVE",
"930 1 OFFCURVE",
"1173 92 CURVE",
"1175 93 OFFCURVE",
"1176 92 OFFCURVE",
"1179 90 CURVE",
"1240 29 OFFCURVE",
"1371 0 OFFCURVE",
"1585 0 CURVE SMOOTH",
"1641 0 LINE",
"1668 32 OFFCURVE",
"1680 64 OFFCURVE",
"1680 96 CURVE SMOOTH",
"1680 128 OFFCURVE",
"1668 159 OFFCURVE",
"1641 191 CURVE"
);
},
{
closed = 1;
nodes = (
"1043 206 OFFCURVE",
"721 202 OFFCURVE",
"391 195 CURVE",
"722 537 OFFCURVE",
"831 621 OFFCURVE",
"992 621 CURVE SMOOTH",
"1208 621 OFFCURVE",
"1321 441 OFFCURVE",
"1348 361 CURVE",
"1348 359 OFFCURVE",
"1348 357 OFFCURVE",
"1344 355 CURVE SMOOTH"
);
}
);
width = 1631;
},
{
anchors = (
{
name = bottom;
position = "{602, -199}";
},
{
name = top;
position = "{1070, 1058}";
}
);
layerId = "AB6A8399-B57F-40CA-845C-76C4C0121470";
paths = (
{
closed = 1;
nodes = (
"1585 223 LINE SMOOTH",
"1546 223 OFFCURVE",
"1459 226 OFFCURVE",
"1395 233 CURVE",
"1456 292 OFFCURVE",
"1503 354 OFFCURVE",
"1503 434 CURVE SMOOTH",
"1503 646 OFFCURVE",
"1288 856 OFFCURVE",
"1069 857 CURVE SMOOTH",
"915 858 OFFCURVE",
"742 765 OFFCURVE",
"559 584 CURVE",
"566 631 OFFCURVE",
"569 685 OFFCURVE",
"569 748 CURVE",
"549 1480 LINE",
"331 1395 LINE",
"365 627 LINE",
"365 423 OFFCURVE",
"340 357 OFFCURVE",
"214 223 CURVE",
"-15 223 LINE SMOOTH",
"-75 223 OFFCURVE",
"-120 172 OFFCURVE",
"-120 112 CURVE SMOOTH",
"-120 52 OFFCURVE",
"-75 0 OFFCURVE",
"-15 0 CURVE SMOOTH",
"353 0 LINE SMOOTH",
"610 0 OFFCURVE",
"925 1 OFFCURVE",
"1170 89 CURVE",
"1236 30 OFFCURVE",
"1371 0 OFFCURVE",
"1585 0 CURVE SMOOTH",
"1661 0 LINE",
"1696 35 OFFCURVE",
"1711 72 OFFCURVE",
"1711 112 CURVE SMOOTH",
"1711 152 OFFCURVE",
"1696 188 OFFCURVE",
"1661 223 CURVE"
);
},
{
closed = 1;
nodes = (
"750 554 OFFCURVE",
"848 621 OFFCURVE",
"992 621 CURVE SMOOTH",
"1277 621 OFFCURVE",
"1334 386 OFFCURVE",
"1334 384 CURVE",
"1049 244 OFFCURVE",
"748 235 OFFCURVE",
"433 228 CURVE"
);
}
);
width = 1646;
},
{
anchors = (
{
name = bottom;
position = "{602, -219}";
},
{
name = top;
position = "{1070, 1118}";
}
);
layerId = "EAE1A523-EADE-4FB1-A034-E66E80F3AE4F";
paths = (
{
closed = 1;
nodes = (
"1585 273 LINE SMOOTH",
"1556 273 OFFCURVE",
"1501 275 OFFCURVE",
"1449 278 CURVE",
"1503 340 OFFCURVE",
"1528 397 OFFCURVE",
"1528 459 CURVE SMOOTH",
"1528 685 OFFCURVE",
"1302 905 OFFCURVE",
"1069 907 CURVE SMOOTH",
"923 908 OFFCURVE",
"761 828 OFFCURVE",
"591 674 CURVE",
"593 704 OFFCURVE",
"594 737 OFFCURVE",
"594 773 CURVE",
"573 1541 LINE",
"305 1437 LINE",
"340 651 LINE",
"340 458 OFFCURVE",
"319 397 OFFCURVE",
"203 273 CURVE",
"-30 273 LINE SMOOTH",
"-102 273 OFFCURVE",
"-160 212 OFFCURVE",
"-160 137 CURVE SMOOTH",
"-160 61 OFFCURVE",
"-102 0 OFFCURVE",
"-30 0 CURVE SMOOTH",
"353 0 LINE SMOOTH",
"605 0 OFFCURVE",
"918 1 OFFCURVE",
"1165 86 CURVE",
"1240 28 OFFCURVE",
"1379 0 OFFCURVE",
"1585 0 CURVE SMOOTH",
"1676 0 LINE",
"1719 39 OFFCURVE",
"1741 86 OFFCURVE",
"1741 137 CURVE SMOOTH",
"1741 188 OFFCURVE",
"1719 233 OFFCURVE",
"1676 273 CURVE"
);
},
{
closed = 1;
nodes = (
"770 561 OFFCURVE",
"862 621 OFFCURVE",
"992 621 CURVE SMOOTH",
"1070 621 OFFCURVE",
"1217 535 OFFCURVE",
"1308 424 CURVE",
"1051 302 OFFCURVE",
"781 287 OFFCURVE",
"494 279 CURVE"
);
}
);
width = 1646;
}
);
unicode = FEC4;
},
{
glyphname = "tah-ar.init";
lastChange = "2016-09-06 20:19:59 +0000";
layers = (
{
anchors = (
{
name = bottom;
position = "{690, -173}";
},
{
name = top;
position = "{1097, 1017}";
}
);
layerId = "93A312F7-B931-4485-B08E-C367313EB5E7";
paths = (
{
closed = 1;
nodes = (
"368 0 LINE SMOOTH",
"739 0 OFFCURVE",
"1217 6 OFFCURVE",
"1458 240 CURVE SMOOTH",
"1670 448 OFFCURVE",
"1416 838 OFFCURVE",
"1115 839 CURVE SMOOTH",
"927 840 OFFCURVE",
"723 698 OFFCURVE",
"530 484 CURVE",
"560 581 OFFCURVE",
"564 690 OFFCURVE",
"560 844 CURVE SMOOTH",
"541 1515 LINE SMOOTH",
"540 1533 OFFCURVE",
"522 1543 OFFCURVE",
"506 1532 CURVE SMOOTH",
"386 1446 LINE SMOOTH",
"381 1443 OFFCURVE",
"379 1438 OFFCURVE",
"379 1433 CURVE SMOOTH",
"393 1030 OFFCURVE",
"408 785 OFFCURVE",
"406 621 CURVE SMOOTH",
"403 386 OFFCURVE",
"366 317 OFFCURVE",
"241 184 CURVE SMOOTH",
"238 181 OFFCURVE",
"235 179 OFFCURVE",
"231 179 CURVE SMOOTH",
"-20 179 LINE SMOOTH",
"-138 179 OFFCURVE",
"-138 0 OFFCURVE",
"-20 0 CURVE SMOOTH"
);
},
{
closed = 1;
nodes = (
"742 554 OFFCURVE",
"860 647 OFFCURVE",
"1033 647 CURVE SMOOTH",
"1264 647 OFFCURVE",
"1385 453 OFFCURVE",
"1413 369 CURVE SMOOTH",
"1415 362 OFFCURVE",
"1412 355 OFFCURVE",
"1404 351 CURVE SMOOTH",
"1081 191 OFFCURVE",
"735 190 OFFCURVE",
"383 183 CURVE"
);
}
);
width = 1674;
},
{
anchors = (
{
name = bottom;
position = "{622, -205}";
},
{
name = top;
position = "{1073, 1035}";
}
);
layerId = "00FED3EE-B3F5-49E6-B91A-35FC52169726";
paths = (
{
closed = 1;
nodes = (
"353 0 LINE SMOOTH",
"788 0 OFFCURVE",
"1483 38 OFFCURVE",
"1483 418 CURVE SMOOTH",
"1483 612 OFFCURVE",
"1288 824 OFFCURVE",
"1070 825 CURVE SMOOTH",
"908 826 OFFCURVE",
"723 717 OFFCURVE",
"528 510 CURVE",
"543 575 OFFCURVE",
"548 648 OFFCURVE",
"548 736 CURVE",
"529 1464 LINE",
"528 1482 OFFCURVE",
"515 1494 OFFCURVE",
"499 1494 CURVE SMOOTH",
"492 1494 OFFCURVE",
"486 1492 OFFCURVE",
"480 1488 CURVE SMOOTH",
"365 1405 LINE SMOOTH",
"362 1404 OFFCURVE",
"354 1397 OFFCURVE",
"354 1385 CURVE SMOOTH",
"374 810 OFFCURVE",
"380 756 OFFCURVE",
"380 606 CURVE SMOOTH",
"380 383 OFFCURVE",
"344 320 OFFCURVE",
"225 193 CURVE SMOOTH",
"223 191 OFFCURVE",
"222 191 OFFCURVE",
"222 191 CURVE SMOOTH",
"-19 191 LINE SMOOTH",
"-83 191 OFFCURVE",
"-113 143 OFFCURVE",
"-113 96 CURVE SMOOTH",
"-113 48 OFFCURVE",
"-83 0 OFFCURVE",
"-19 0 CURVE SMOOTH"
);
},
{
closed = 1;
nodes = (
"722 537 OFFCURVE",
"831 621 OFFCURVE",
"992 621 CURVE SMOOTH",
"1208 621 OFFCURVE",
"1321 441 OFFCURVE",
"1348 361 CURVE SMOOTH",
"1348 359 OFFCURVE",
"1347 357 OFFCURVE",
"1344 355 CURVE SMOOTH",
"1043 206 OFFCURVE",
"721 202 OFFCURVE",
"391 195 CURVE"
);
}
);
width = 1618;
},
{
anchors = (
{
name = bottom;
position = "{622, -205}";
},
{
name = top;
position = "{1073, 1035}";
}
);
layerId = "E3174D42-D779-465D-8194-70AED922C337";
paths = (
{
closed = 1;
nodes = (
"908 826 OFFCURVE",
"723 717 OFFCURVE",
"528 510 CURVE",
"543 575 OFFCURVE",
"548 648 OFFCURVE",
"548 736 CURVE",
"529 1464 LINE SMOOTH",
"528 1482 OFFCURVE",
"515 1494 OFFCURVE",
"499 1494 CURVE SMOOTH",
"492 1494 OFFCURVE",
"486 1492 OFFCURVE",
"480 1488 CURVE",
"365 1405 LINE",
"362 1404 OFFCURVE",
"354 1397 OFFCURVE",
"354 1385 CURVE SMOOTH",
"374 810 OFFCURVE",
"380 756 OFFCURVE",
"380 606 CURVE SMOOTH",
"380 383 OFFCURVE",
"344 320 OFFCURVE",
"225 193 CURVE SMOOTH",
"223 191 OFFCURVE",
"222 191 OFFCURVE",
"222 191 CURVE SMOOTH",
"-10 191 LINE SMOOTH",
"-74 191 OFFCURVE",
"-104 143 OFFCURVE",
"-104 96 CURVE SMOOTH",
"-104 49 OFFCURVE",
"-74 0 OFFCURVE",
"-10 0 CURVE SMOOTH",
"353 0 LINE SMOOTH",
"788 0 OFFCURVE",
"1483 38 OFFCURVE",
"1483 418 CURVE SMOOTH",
"1483 612 OFFCURVE",
"1288 824 OFFCURVE",
"1070 825 CURVE SMOOTH"
);
},
{
closed = 1;
nodes = (
"1043 206 OFFCURVE",
"721 202 OFFCURVE",
"391 195 CURVE",
"722 537 OFFCURVE",
"831 621 OFFCURVE",
"992 621 CURVE SMOOTH",
"1208 621 OFFCURVE",
"1321 441 OFFCURVE",
"1348 361 CURVE",
"1348 359 OFFCURVE",
"1347 357 OFFCURVE",
"1344 355 CURVE"
);
}
);
width = 1618;
},
{
anchors = (
{
name = bottom;
position = "{802, -195}";
},
{
name = top;
position = "{1069, 1057}";
}
);
layerId = "AB6A8399-B57F-40CA-845C-76C4C0121470";
paths = (
{
closed = 1;
nodes = (
"915 858 OFFCURVE",
"742 765 OFFCURVE",
"559 584 CURVE",
"566 631 OFFCURVE",
"569 685 OFFCURVE",
"569 748 CURVE",
"549 1480 LINE",
"331 1395 LINE",
"365 627 LINE",
"365 423 OFFCURVE",
"340 357 OFFCURVE",
"214 223 CURVE",
"-15 223 LINE SMOOTH",
"-75 223 OFFCURVE",
"-120 172 OFFCURVE",
"-120 112 CURVE SMOOTH",
"-120 52 OFFCURVE",
"-75 0 OFFCURVE",
"-15 0 CURVE SMOOTH",
"353 0 LINE SMOOTH",
"838 0 OFFCURVE",
"1503 39 OFFCURVE",
"1503 434 CURVE SMOOTH",
"1503 646 OFFCURVE",
"1288 856 OFFCURVE",
"1069 857 CURVE SMOOTH"
);
},
{
closed = 1;
nodes = (
"750 570 OFFCURVE",
"848 637 OFFCURVE",
"992 637 CURVE SMOOTH",
"1277 637 OFFCURVE",
"1334 402 OFFCURVE",
"1334 400 CURVE",
"1049 260 OFFCURVE",
"748 251 OFFCURVE",
"433 244 CURVE"
);
}
);
width = 1643;
},
{
anchors = (
{
name = bottom;
position = "{792, -215}";
},
{
name = top;
position = "{1069, 1117}";
}
);
layerId = "EAE1A523-EADE-4FB1-A034-E66E80F3AE4F";
paths = (
{
closed = 1;
nodes = (
"923 908 OFFCURVE",
"761 828 OFFCURVE",
"591 674 CURVE",
"593 704 OFFCURVE",
"594 737 OFFCURVE",
"594 774 CURVE",
"573 1541 LINE",
"305 1437 LINE",
"340 651 LINE",
"340 458 OFFCURVE",
"319 397 OFFCURVE",
"203 273 CURVE",
"-30 273 LINE SMOOTH",
"-102 273 OFFCURVE",
"-160 212 OFFCURVE",
"-160 137 CURVE SMOOTH",
"-160 61 OFFCURVE",
"-102 0 OFFCURVE",
"-30 0 CURVE SMOOTH",
"353 0 LINE SMOOTH",
"839 0 OFFCURVE",
"1528 40 OFFCURVE",
"1528 459 CURVE SMOOTH",
"1528 685 OFFCURVE",
"1302 905 OFFCURVE",
"1069 907 CURVE SMOOTH"
);
},
{
closed = 1;
nodes = (
"770 577 OFFCURVE",
"862 637 OFFCURVE",
"992 637 CURVE SMOOTH",
"1070 637 OFFCURVE",
"1216 552 OFFCURVE",
"1308 440 CURVE",
"1051 318 OFFCURVE",
"781 303 OFFCURVE",
"494 295 CURVE"
);
}
);
width = 1668;
}
);
leftKerningGroup = all;
unicode = FEC3;
},
{
glyphname = "ain-ar";
lastChange = "2016-09-06 20:20:22 +0000";
layers = (
{
anchors = (
{
name = bottom;
position = "{853, -992}";
},
{
name = top;
position = "{592, 1357}";
}
);
layerId = "93A312F7-B931-4485-B08E-C367313EB5E7";
paths = (
{
closed = 1;
nodes = (
"1171 -486 OFFCURVE",
"993 -517 OFFCURVE",
"819 -504 CURVE SMOOTH",
"459 -477 OFFCURVE",
"319 -305 OFFCURVE",
"361 -80 CURVE SMOOTH",
"423 250 OFFCURVE",
"789 440 OFFCURVE",
"1122 519 CURVE SMOOTH",
"1132 521 OFFCURVE",
"1135 529 OFFCURVE",
"1136 538 CURVE SMOOTH",
"1150 695 LINE SMOOTH",
"1151 709 OFFCURVE",
"1142 714 OFFCURVE",
"1130 710 CURVE SMOOTH",
"942 652 OFFCURVE",
"808 591 OFFCURVE",
"639 511 CURVE SMOOTH",
"603 494 OFFCURVE",
"576 493 OFFCURVE",
"543 519 CURVE SMOOTH",
"417 621 OFFCURVE",
"330 728 OFFCURVE",
"312 868 CURVE SMOOTH",
"311 877 OFFCURVE",
"313 883 OFFCURVE",
"321 890 CURVE SMOOTH",
"457 1021 OFFCURVE",
"637 1051 OFFCURVE",
"885 970 CURVE SMOOTH",
"897 966 OFFCURVE",
"908 974 OFFCURVE",
"905 985 CURVE SMOOTH",
"872 1112 LINE SMOOTH",
"869 1122 OFFCURVE",
"870 1126 OFFCURVE",
"860 1131 CURVE SMOOTH",
"552 1283 OFFCURVE",
"170 1130 OFFCURVE",
"183 806 CURVE SMOOTH",
"190 638 OFFCURVE",
"283 503 OFFCURVE",
"450 353 CURVE",
"217 91 OFFCURVE",
"133 -337 OFFCURVE",
"382 -563 CURVE SMOOTH",
"547 -712 OFFCURVE",
"829 -732 OFFCURVE",
"1094 -682 CURVE SMOOTH",
"1254 -652 OFFCURVE",
"1310 -616 OFFCURVE",
"1365 -477 CURVE SMOOTH",
"1371 -462 OFFCURVE",
"1356 -451 OFFCURVE",
"1338 -454 CURVE SMOOTH"
);
}
);
width = 1289;
},
{
anchors = (
{
name = bottom;
position = "{736, -896}";
},
{
name = top;
position = "{575, 1370}";
}
);
layerId = "00FED3EE-B3F5-49E6-B91A-35FC52169726";
paths = (
{
closed = 1;
nodes = (
"1017 -460 OFFCURVE",
"838 -491 OFFCURVE",
"684 -478 CURVE SMOOTH",
"403 -454 OFFCURVE",
"356 -330 OFFCURVE",
"356 -143 CURVE SMOOTH",
"356 196 OFFCURVE",
"729 414 OFFCURVE",
"1086 498 CURVE SMOOTH",
"1098 501 OFFCURVE",
"1105 510 OFFCURVE",
"1107 525 CURVE SMOOTH",
"1120 676 LINE SMOOTH",
"1121 692 OFFCURVE",
"1112 702 OFFCURVE",
"1099 702 CURVE SMOOTH",
"1043 702 OFFCURVE",
"732 564 OFFCURVE",
"616 509 CURVE SMOOTH",
"601 501 OFFCURVE",
"588 498 OFFCURVE",
"577 498 CURVE SMOOTH",
"562 498 OFFCURVE",
"549 504 OFFCURVE",
"534 516 CURVE SMOOTH",
"414 612 OFFCURVE",
"333 712 OFFCURVE",
"316 844 CURVE SMOOTH",
"315 849 OFFCURVE",
"317 852 OFFCURVE",
"322 856 CURVE SMOOTH",
"404 935 OFFCURVE",
"500 974 OFFCURVE",
"616 974 CURVE SMOOTH",
"688 974 OFFCURVE",
"766 960 OFFCURVE",
"853 931 CURVE SMOOTH",
"868 926 OFFCURVE",
"891 937 OFFCURVE",
"885 958 CURVE SMOOTH",
"853 1080 LINE SMOOTH",
"848 1097 OFFCURVE",
"848 1098 OFFCURVE",
"836 1104 CURVE SMOOTH",
"755 1144 OFFCURVE",
"670 1163 OFFCURVE",
"589 1163 CURVE SMOOTH",
"359 1163 OFFCURVE",
"163 1010 OFFCURVE",
"173 783 CURVE SMOOTH",
"180 633 OFFCURVE",
"254 503 OFFCURVE",
"425 348 CURVE",
"299 202 OFFCURVE",
"219 0 OFFCURVE",
"219 -187 CURVE SMOOTH",
"219 -529 OFFCURVE",
"375 -700 OFFCURVE",
"731 -700 CURVE SMOOTH",
"803 -700 OFFCURVE",
"880 -693 OFFCURVE",
"959 -678 CURVE SMOOTH",
"1121 -647 OFFCURVE",
"1165 -607 OFFCURVE",
"1216 -475 CURVE SMOOTH",
"1226 -449 OFFCURVE",
"1204 -437 OFFCURVE",
"1180 -440 CURVE SMOOTH"
);
}
);
width = 1256;
},
{
anchors = (
{
name = bottom;
position = "{736, -896}";
},
{
name = top;
position = "{575, 1370}";
}
);
layerId = "E3174D42-D779-465D-8194-70AED922C337";
paths = (
{
closed = 1;
nodes = (
"1017 -460 OFFCURVE",
"838 -491 OFFCURVE",
"684 -478 CURVE SMOOTH",
"403 -454 OFFCURVE",
"356 -330 OFFCURVE",
"356 -143 CURVE SMOOTH",
"356 196 OFFCURVE",
"729 414 OFFCURVE",
"1086 498 CURVE SMOOTH",
"1098 501 OFFCURVE",
"1105 510 OFFCURVE",
"1107 525 CURVE SMOOTH",
"1120 676 LINE SMOOTH",
"1121 692 OFFCURVE",
"1112 702 OFFCURVE",
"1099 702 CURVE SMOOTH",
"1043 702 OFFCURVE",
"732 564 OFFCURVE",
"616 509 CURVE SMOOTH",
"601 501 OFFCURVE",
"588 498 OFFCURVE",
"577 498 CURVE SMOOTH",
"562 498 OFFCURVE",
"549 504 OFFCURVE",
"534 516 CURVE SMOOTH",
"414 612 OFFCURVE",
"333 712 OFFCURVE",
"316 844 CURVE SMOOTH",
"315 849 OFFCURVE",
"317 852 OFFCURVE",
"322 856 CURVE SMOOTH",
"404 935 OFFCURVE",
"500 974 OFFCURVE",
"616 974 CURVE SMOOTH",
"688 974 OFFCURVE",
"766 960 OFFCURVE",
"853 931 CURVE SMOOTH",
"868 926 OFFCURVE",
"891 937 OFFCURVE",
"885 958 CURVE SMOOTH",
"853 1080 LINE SMOOTH",
"848 1097 OFFCURVE",
"848 1098 OFFCURVE",
"836 1104 CURVE SMOOTH",
"755 1144 OFFCURVE",
"670 1163 OFFCURVE",
"589 1163 CURVE SMOOTH",
"359 1163 OFFCURVE",
"163 1010 OFFCURVE",
"173 783 CURVE SMOOTH",
"180 633 OFFCURVE",
"254 503 OFFCURVE",
"425 348 CURVE",
"299 202 OFFCURVE",
"219 0 OFFCURVE",
"219 -187 CURVE SMOOTH",
"219 -529 OFFCURVE",
"375 -700 OFFCURVE",
"731 -700 CURVE SMOOTH",
"803 -700 OFFCURVE",
"880 -693 OFFCURVE",
"959 -678 CURVE SMOOTH",
"1121 -647 OFFCURVE",
"1165 -607 OFFCURVE",
"1216 -475 CURVE SMOOTH",
"1226 -449 OFFCURVE",
"1204 -437 OFFCURVE",
"1180 -440 CURVE SMOOTH"
);
}
);
width = 1256;
},
{
anchors = (
{
name = bottom;
position = "{760, -916}";
},
{
name = top;
position = "{613, 1380}";
}
);
layerId = "AB6A8399-B57F-40CA-845C-76C4C0121470";
paths = (
{
closed = 1;
nodes = (
"1213 -431 LINE",
"869 -485 OFFCURVE",
"403 -524 OFFCURVE",
"403 -143 CURVE SMOOTH",
"403 177 OFFCURVE",
"740 385 OFFCURVE",
"1081 473 CURVE",
"1084 710 LINE",
"977 679 OFFCURVE",
"706 557 OFFCURVE",
"608 510 CURVE",
"544 519 OFFCURVE",
"364 787 OFFCURVE",
"364 845 CURVE",
"444 922 OFFCURVE",
"533 958 OFFCURVE",
"643 958 CURVE SMOOTH",
"706 958 OFFCURVE",
"773 947 OFFCURVE",
"849 924 CURVE",
"844 1131 LINE",
"771 1163 OFFCURVE",
"693 1179 OFFCURVE",
"616 1179 CURVE SMOOTH",
"361 1179 OFFCURVE",
"170 1007 OFFCURVE",
"180 782 CURVE SMOOTH",
"187 631 OFFCURVE",
"262 500 OFFCURVE",
"427 347 CURVE",
"302 196 OFFCURVE",
"226 -4 OFFCURVE",
"226 -187 CURVE SMOOTH",
"226 -515 OFFCURVE",
"398 -716 OFFCURVE",
"758 -716 CURVE SMOOTH",
"854 -716 OFFCURVE",
"1066 -687 OFFCURVE",
"1138 -662 CURVE"
);
}
);
width = 1224;
},
{
anchors = (
{
name = bottom;
position = "{785, -926}";
},
{
name = top;
position = "{638, 1440}";
}
);
layerId = "EAE1A523-EADE-4FB1-A034-E66E80F3AE4F";
paths = (
{
closed = 1;
nodes = (
"1274 -375 LINE",
"926 -432 OFFCURVE",
"453 -486 OFFCURVE",
"453 -118 CURVE SMOOTH",
"453 148 OFFCURVE",
"713 375 OFFCURVE",
"1131 478 CURVE",
"1134 766 LINE",
"1066 759 OFFCURVE",
"746 616 OFFCURVE",
"629 561 CURVE",
"580 587 OFFCURVE",
"431 795 OFFCURVE",
"415 860 CURVE",
"489 927 OFFCURVE",
"568 958 OFFCURVE",
"668 958 CURVE SMOOTH",
"738 958 OFFCURVE",
"812 944 OFFCURVE",
"900 914 CURVE",
"894 1172 LINE",
"815 1209 OFFCURVE",
"728 1229 OFFCURVE",
"641 1229 CURVE SMOOTH",
"371 1229 OFFCURVE",
"169 1045 OFFCURVE",
"180 806 CURVE SMOOTH",
"187 654 OFFCURVE",
"260 521 OFFCURVE",
"418 370 CURVE",
"298 216 OFFCURVE",
"226 18 OFFCURVE",
"226 -162 CURVE SMOOTH",
"226 -519 OFFCURVE",
"424 -716 OFFCURVE",
"783 -716 CURVE SMOOTH",
"892 -716 OFFCURVE",
"1127 -682 OFFCURVE",
"1183 -656 CURVE"
);
}
);
width = 1274;
}
);
leftKerningGroup = ain;
unicode = 0639;
},
